<svg width="24" height="24" viewBox="0 0 24 24" fill="none" xmlns="http://www.w3.org/2000/svg">
<rect width="24" height="24" fill="white"/>
<path d="M22 11.9457C22.0029 9.93292 21.3411 7.97075 20.1091 6.33923C18.8772 4.70771 17.138 3.49022 15.1398 2.86056C15.0488 2.83193 14.9497 2.83905 14.8642 2.88035C14.7787 2.92165 14.7139 2.99374 14.684 3.08078C14.654 3.16782 14.6615 3.26266 14.7047 3.34445C14.7478 3.42624 14.8232 3.48827 14.9141 3.5169C16.9321 4.15641 18.6594 5.43943 19.8071 7.15137C20.9548 8.86331 21.4533 10.9004 21.2193 12.9218C20.9852 14.9433 20.0328 16.8266 18.5214 18.2567C17.0099 19.6868 15.031 20.5771 12.9157 20.7786L13.8057 19.9253C13.842 19.894 13.8713 19.8559 13.8917 19.8134C13.9122 19.7709 13.9234 19.7248 13.9247 19.6781C13.9259 19.6313 13.9173 19.5847 13.8992 19.5413C13.8811 19.4978 13.854 19.4583 13.8195 19.4251C13.785 19.392 13.7438 19.3659 13.6984 19.3484C13.653 19.331 13.6044 19.3225 13.5555 19.3236C13.5066 19.3247 13.4584 19.3352 13.4139 19.3546C13.3694 19.3741 13.3295 19.4019 13.2966 19.4365L11.7458 20.9271C11.7284 20.9423 11.7132 20.9598 11.7007 20.9789C11.6945 20.9868 11.6896 20.9955 11.6863 21.0048C11.6786 21.0158 11.6719 21.0273 11.6664 21.0394L11.6556 21.0739C11.6492 21.082 11.6438 21.0907 11.6393 21.0998C11.6301 21.1443 11.6301 21.1901 11.6393 21.2346C11.6415 21.2451 11.6445 21.2555 11.6483 21.2657L11.6592 21.3002L11.679 21.333C11.6824 21.3423 11.6873 21.3511 11.6935 21.3589C11.7064 21.3783 11.7215 21.3963 11.7386 21.4125L13.293 22.8979C13.3605 22.9629 13.4522 22.9996 13.5481 23C13.6439 23.0003 13.7359 22.9642 13.8039 22.8996C13.8719 22.835 13.9103 22.7472 13.9106 22.6555C13.9109 22.5639 13.8732 22.4758 13.8057 22.4108L12.8308 21.4764C15.3291 21.2752 17.6575 20.1843 19.3554 18.4194C21.0533 16.6546 21.9971 14.3443 22 11.9457Z" fill="black"/>
<path d="M9.07221 20.371C7.05596 19.7293 5.33099 18.445 4.18557 16.7327C3.04015 15.0204 2.54367 12.9838 2.77912 10.9634C3.01456 8.94296 3.96766 7.06104 5.47913 5.63213C6.99059 4.20323 8.96886 3.31391 11.0833 3.1128L10.1951 3.96604C10.1588 3.9974 10.1295 4.03549 10.1091 4.078C10.0886 4.12051 10.0774 4.16655 10.0761 4.21332C10.0749 4.2601 10.0835 4.30664 10.1016 4.35012C10.1197 4.3936 10.1468 4.43312 10.1813 4.46626C10.2158 4.49941 10.2571 4.5255 10.3024 4.54295C10.3478 4.5604 10.3964 4.56885 10.4453 4.56778C10.4942 4.56672 10.5424 4.55615 10.5869 4.53674C10.6314 4.51732 10.6713 4.48946 10.7042 4.45484L12.255 2.96426C12.2724 2.94906 12.2876 2.93162 12.3001 2.91245C12.3063 2.90458 12.3112 2.89584 12.3145 2.88654C12.3222 2.87561 12.3289 2.86405 12.3344 2.85199L12.3452 2.81745C12.3516 2.80938 12.357 2.8007 12.3615 2.79154C12.3707 2.74707 12.3707 2.70129 12.3615 2.65682C12.3623 2.64647 12.3623 2.63608 12.3615 2.62573L12.3507 2.59119L12.3308 2.55837C12.3274 2.54907 12.3225 2.54033 12.3164 2.53246C12.3034 2.51306 12.2883 2.4951 12.2712 2.47892L10.7006 0.993522C10.6331 0.930228 10.5424 0.894775 10.4479 0.894775C10.3534 0.894775 10.2626 0.930228 10.1951 0.993522C10.1279 1.05824 10.0901 1.1458 10.0901 1.23706C10.0901 1.32832 10.1279 1.41587 10.1951 1.48059L11.17 2.41501C8.8742 2.59788 6.71483 3.53353 5.05688 5.06381C3.39893 6.59409 2.3441 8.62513 2.07069 10.8136C1.79728 13.0021 2.32207 15.2138 3.55635 17.0748C4.79063 18.9358 6.65868 20.332 8.84474 21.0274C8.88145 21.0389 8.91985 21.0447 8.95848 21.0446C9.04443 21.0449 9.12764 21.0158 9.19316 20.9625C9.25868 20.9093 9.30221 20.8355 9.31592 20.7543C9.32962 20.6731 9.31261 20.5899 9.26794 20.5197C9.22327 20.4494 9.15387 20.3967 9.07221 20.371Z" fill="black"/>
<path d="M12.1449 14.0185L13.1776 13.0288C13.9286 13.2538 14.7368 13.2314 15.473 12.9652C16.2091 12.699 16.8307 12.2044 17.2385 11.5604C17.6462 10.9163 17.8165 10.1602 17.7222 9.41265C17.6278 8.66514 17.2742 7.96948 16.718 7.43686C16.1617 6.90424 15.4348 6.56542 14.6536 6.47456C13.8724 6.38369 13.0818 6.54603 12.4084 6.93562C11.735 7.32522 11.2175 7.91957 10.9387 8.62367C10.6598 9.32777 10.6358 10.101 10.8704 10.8197L6.45099 15.0548C6.38701 15.1154 6.34902 15.1967 6.34447 15.2828L6.25421 17.0877C6.25195 17.1359 6.26026 17.184 6.27861 17.2289C6.29695 17.2738 6.32492 17.3146 6.36072 17.3485C6.42812 17.4134 6.51966 17.45 6.61527 17.4504H6.63332L8.52168 17.3641C8.59815 17.3602 8.67138 17.3332 8.73076 17.287C8.79015 17.2407 8.83263 17.1776 8.85205 17.1067L9.18603 15.8977L10.3848 15.63C10.4502 15.6153 10.51 15.5834 10.5576 15.5379C10.6051 15.4925 10.6384 15.4352 10.6537 15.3726L10.9264 14.2534L11.9409 14.1152C12.0181 14.1049 12.0896 14.0709 12.1449 14.0185ZM10.5797 13.6039C10.508 13.6139 10.4411 13.6442 10.3876 13.6911C10.3342 13.7379 10.2967 13.799 10.28 13.8665L10.002 15.0064L8.81053 15.2724C8.74711 15.2868 8.68895 15.3174 8.64223 15.3609C8.59551 15.4044 8.56196 15.4592 8.54515 15.5194L8.222 16.6784L6.99439 16.7354L7.05938 15.4417L11.5402 11.1548C11.5897 11.1074 11.6238 11.0472 11.6383 10.9815C11.6527 10.9159 11.6468 10.8477 11.6214 10.7851C11.4564 10.3796 11.3972 9.94164 11.4491 9.50926C11.501 9.07689 11.6624 8.66316 11.9192 8.30395C12.176 7.94473 12.5205 7.65088 12.9229 7.44789C13.3253 7.24489 13.7734 7.13887 14.2283 7.13902C14.5972 7.13668 14.9628 7.20484 15.3038 7.33949C15.6448 7.47415 15.9543 7.67258 16.2141 7.92317C16.6709 8.35743 16.957 8.92921 17.0241 9.54192C17.0913 10.1546 16.9353 10.7708 16.5827 11.2862C16.23 11.8017 15.7022 12.1849 15.0884 12.3712C14.4746 12.5574 13.8124 12.5353 13.2137 12.3085C13.1483 12.2842 13.077 12.2786 13.0084 12.2924C12.9398 12.3062 12.8769 12.3388 12.8273 12.3863L11.7207 13.4468L10.5797 13.6039Z" fill="black"/>
<path d="M15.0983 11.1359C15.1657 11.2007 15.2573 11.2374 15.3529 11.2378C15.4008 11.238 15.4484 11.2292 15.4927 11.2117C15.537 11.1942 15.5772 11.1684 15.611 11.1359C15.7925 10.9622 15.9365 10.7561 16.0347 10.5292C16.1329 10.3024 16.1835 10.0592 16.1835 9.81368C16.1835 9.56813 16.1329 9.32499 16.0347 9.09813C15.9365 8.87127 15.7925 8.66514 15.611 8.49151C15.4296 8.31788 15.2141 8.18015 14.977 8.08618C14.7399 7.99221 14.4857 7.94385 14.2291 7.94385C13.9724 7.94385 13.7183 7.99221 13.4812 8.08618C13.244 8.18015 13.0286 8.31788 12.8471 8.49151C12.8133 8.52365 12.7865 8.56186 12.7682 8.60396C12.75 8.64605 12.7406 8.69119 12.7406 8.73677C12.741 8.82824 12.7793 8.91582 12.8471 8.98031L15.0983 11.1359ZM15.0983 8.98204C15.2831 9.16052 15.4037 9.39064 15.4426 9.63906C15.4816 9.88748 15.4369 10.1413 15.315 10.3638L13.6505 8.77132C13.8838 8.65432 14.1501 8.61167 14.4105 8.64957C14.671 8.68747 14.9119 8.80395 15.0983 8.98204Z" fill="black"/>
</svg>
