<svg xmlns="http://www.w3.org/2000/svg" width="555" height="237" viewBox="0 0 555 237" fill="none"><path d="M61.39 116.133C61.39 109.988 61.3215 104.645 61.1845 100.104C61.0474 95.5633 60.8582 91.6372 60.6168 88.3258C60.3756 85.014 60.0659 82.2315 59.6877 79.9784C59.3994 78.1051 58.968 76.2562 58.3971 74.4478V74.0382H82.3473V74.4478C81.7764 76.2562 81.345 78.1051 81.0567 79.9784C80.6781 82.2313 80.3684 85.0138 80.1276 88.3258C79.8868 91.6378 79.6976 95.5639 79.5599 100.104C79.4229 104.646 79.3544 109.989 79.3544 116.133V141.943C79.3544 148.088 79.4229 153.448 79.5599 158.023C79.697 162.597 79.8862 166.541 80.1276 169.852C80.3684 173.165 80.6781 175.947 81.0567 178.199C81.345 180.073 81.7764 181.922 82.3473 183.73V184.14H58.3962V183.73C58.9671 181.922 59.3985 180.073 59.6868 178.199C60.0655 175.946 60.3752 173.164 60.6159 169.852C60.8567 166.54 61.0459 162.597 61.1836 158.023C61.3206 153.449 61.3891 148.089 61.3891 141.943L61.39 116.133Z" fill="black"></path><path d="M161.324 95.4446H159.26C158.688 93.9338 158.015 92.4625 157.246 91.0406C156.236 89.1502 154.987 87.3949 153.53 85.8171C151.893 84.0431 149.953 82.5696 147.8 81.4643C145.271 80.2114 142.47 79.5959 139.645 79.6721C137.436 79.6354 135.243 80.0358 133.192 80.8499C131.386 81.5675 129.755 82.661 128.411 84.0567C127.066 85.4525 126.039 87.118 125.398 88.941C124.697 90.8966 124.347 92.9593 124.366 95.035C124.39 98.663 125.524 102.198 127.618 105.173C129.99 108.626 132.705 111.834 135.722 114.749C138.957 117.924 142.467 121.116 146.252 124.326C149.96 127.461 153.476 130.813 156.782 134.363C159.922 137.714 162.643 141.428 164.887 145.424C167.036 149.243 168.156 153.546 168.139 157.919C168.108 161.375 167.497 164.801 166.333 168.057C165.102 171.582 163.111 174.798 160.499 177.48C157.563 180.452 154.052 182.803 150.176 184.393C145.323 186.324 140.123 187.248 134.897 187.108C131.73 187.12 128.568 186.845 125.451 186.288C122.659 185.791 119.901 185.124 117.192 184.291C114.899 183.591 112.657 182.735 110.481 181.731C108.796 180.957 107.159 180.085 105.577 179.119L107.436 159.761H109.604C110.337 162.259 111.359 164.665 112.649 166.931C113.988 169.317 115.656 171.506 117.604 173.435C119.603 175.408 121.947 177.005 124.521 178.148C127.401 179.389 130.517 180 133.657 179.94C135.98 179.955 138.288 179.556 140.47 178.762C142.516 178.03 144.395 176.898 145.993 175.434C147.576 173.951 148.825 172.154 149.658 170.159C150.58 167.935 151.037 165.549 151.001 163.144C151.027 160.192 150.392 157.271 149.143 154.592C147.836 151.86 146.169 149.311 144.187 147.013C142.041 144.508 139.712 142.163 137.219 139.997C134.638 137.744 131.971 135.457 129.218 133.135C126.465 130.813 123.798 128.441 121.217 126.017C118.659 123.62 116.327 120.998 114.248 118.182C112.206 115.424 110.54 112.41 109.293 109.219C108.022 105.865 107.392 102.305 107.435 98.7214C107.374 94.9463 108.261 91.2155 110.016 87.8651C111.691 84.7101 114.011 81.9368 116.828 79.7225C119.733 77.4604 123.019 75.7268 126.534 74.6021C130.198 73.4054 134.032 72.8003 137.89 72.8098C140.604 72.7962 143.315 73.0017 145.995 73.4243C148.293 73.7881 150.568 74.2842 152.808 74.91C154.838 75.4904 156.61 76.0707 158.124 76.651C159.639 77.2313 160.878 77.6923 161.841 78.0339L161.324 95.4446Z" fill="black"></path><path d="M193.534 116.133C193.534 109.988 193.466 104.645 193.328 100.104C193.191 95.5633 193.002 91.6372 192.761 88.3258C192.52 85.014 192.21 82.2315 191.832 79.9784C191.543 78.1051 191.112 76.2562 190.541 74.4478V74.0382H214.491V74.4478C213.92 76.2562 213.488 78.105 213.199 79.9784C212.821 82.2313 212.511 85.0138 212.27 88.3258C212.029 91.6378 211.84 95.5639 211.703 100.104C211.565 104.646 211.497 109.989 211.497 116.133V141.943C211.497 148.088 211.565 153.448 211.703 158.023C211.84 162.597 212.029 166.541 212.27 169.852C212.511 173.165 212.821 175.947 213.199 178.199C213.488 180.073 213.92 181.922 214.491 183.73V184.14H190.54V183.73C191.111 181.922 191.543 180.073 191.831 178.199C192.209 175.946 192.519 173.164 192.76 169.852C193.001 166.54 193.19 162.597 193.328 158.023C193.465 153.449 193.533 148.089 193.533 141.943L193.534 116.133Z" fill="black"></path><path d="M235.966 183.73C237.191 182.168 238.118 180.398 238.701 178.506C239.669 175.841 240.411 173.1 240.921 170.313C241.747 165.535 242.659 160.09 243.657 153.977C244.655 147.864 245.653 141.565 246.652 135.08C247.65 128.594 248.631 122.124 249.594 115.672L252.279 97.6969C253.104 92.166 253.793 87.3181 254.343 83.1533C254.894 78.9885 255.272 75.9501 255.477 74.0382H267.763L317.008 161.505L367.491 74.0382H377.504L389.891 159.56C390.511 163.452 391.113 166.764 391.698 169.494C392.283 172.225 392.851 174.53 393.401 176.408C393.835 177.966 394.387 179.49 395.053 180.965C395.604 182.128 396.086 183.049 396.498 183.731V184.14H371.102V183.731C371.412 182.824 371.67 181.901 371.877 180.965C372.209 179.452 372.365 177.906 372.341 176.357C372.341 175.196 372.255 173.523 372.083 171.338C371.911 169.153 371.653 167.002 371.309 164.886L362.431 102.102L315.458 183.936L308.128 182.912L261.981 101.487C260.261 112.958 258.747 123.576 257.439 133.341C256.889 137.506 256.338 141.671 255.787 145.836C255.237 150.001 254.755 153.91 254.342 157.563C253.929 161.216 253.585 164.442 253.309 167.242C253.034 170.041 252.896 172.124 252.897 173.489C252.897 175.196 252.931 176.681 253 177.945C253.068 179.208 253.172 180.318 253.309 181.273C253.446 182.366 253.584 183.322 253.722 184.141H235.966V183.73Z" fill="black"></path><path d="M485.897 149.522H459.572C456.062 149.522 452.724 149.539 449.558 149.574C446.392 149.608 443.502 149.642 440.886 149.676C438.271 149.712 436.24 149.729 434.795 149.727L430.975 157.716C429.324 160.993 427.913 163.844 426.743 166.268C425.573 168.692 424.609 170.826 423.852 172.671C423.196 174.22 422.644 175.811 422.2 177.433C421.872 178.653 421.698 179.909 421.685 181.172C421.672 181.737 421.706 182.302 421.788 182.861C421.832 183.169 421.937 183.465 422.097 183.732V184.141H403.928V183.732C404.777 182.76 405.537 181.714 406.199 180.608C407.231 179.005 408.419 177.042 409.761 174.719C411.102 172.396 412.548 169.767 414.097 166.832C415.645 163.898 417.176 160.859 418.69 157.717L460.811 71.4796H468.554L509.848 157.716C511.431 160.993 513.031 164.134 514.648 167.139C516.266 170.143 517.763 172.823 519.139 175.179C520.516 177.535 521.72 179.481 522.751 181.017C523.341 181.992 524.033 182.901 524.816 183.731V184.141H498.388C498.517 183.656 498.586 183.157 498.593 182.655V181.169C498.533 179.322 498.203 177.494 497.612 175.741C496.958 173.626 496.167 171.458 495.238 169.237C494.309 167.017 493.345 164.883 492.347 162.836C491.349 160.788 490.54 159.081 489.921 157.715L485.897 149.522ZM438.821 141.534H445.118C448.009 141.534 451.089 141.517 454.358 141.483C457.627 141.449 460.914 141.431 464.217 141.431C467.521 141.431 470.722 141.414 473.82 141.38C476.918 141.346 479.705 141.329 482.182 141.329L460.812 96.0592L438.821 141.534Z" fill="black"></path><path d="M70.475 27.0386C74.4669 30.6588 78.5964 34.2436 82.8636 37.7929C86.58 40.8653 90.675 44.1427 95.1485 47.6253C99.6219 51.1078 104.095 54.3169 108.568 57.2525L106.194 61.0421C103.235 59.6082 100.138 58.1231 96.9036 56.5868C93.6691 55.0505 90.486 53.5654 87.3541 52.1315C84.2218 50.6976 81.2108 49.3832 78.3211 48.1884C75.4314 46.9936 72.816 45.9864 70.475 45.167C68.1348 45.9866 65.5367 46.9938 62.6807 48.1884C59.8246 49.383 56.8308 50.6804 53.6991 52.0805C50.5668 53.4801 47.3837 54.9481 44.1498 56.4846C40.916 58.021 37.7844 59.5402 34.7551 61.0421L32.3806 57.2525C36.8545 54.3178 41.3278 51.1088 45.8005 47.6253C50.2731 44.1418 54.3681 40.8643 58.0853 37.7929C62.3534 34.2438 66.4834 30.659 70.475 27.0386Z" fill="#941100"></path><path d="M236.538 41.7073C231.445 43.4143 226.283 45.2238 221.052 47.1356C218.781 47.9549 216.407 48.8425 213.929 49.7987C211.451 50.7548 208.939 51.7789 206.393 52.871C203.846 53.9635 201.282 55.0731 198.701 56.1997C196.12 57.3264 193.66 58.5042 191.32 59.7333L189.049 55.9437C193.522 53.009 197.979 49.7998 202.418 46.3161C206.857 42.8324 210.935 39.555 214.652 36.4838C218.919 32.9349 223.049 29.3502 227.04 25.7297L236.538 41.7073Z" fill="#941100"></path></svg>