<svg width="24" height="24" viewBox="0 0 24 24" fill="none" xmlns="http://www.w3.org/2000/svg">
<rect width="24" height="24" rx="2" fill="white"/>
<path d="M4.86864 19.3701C4.91595 19.3701 4.96326 19.3465 5.01056 19.3229L8.88967 16.7244L12.7688 17.7874C12.8634 17.811 12.9343 17.7874 13.0053 17.7166L16.8371 13.6772L20.6453 16.0866C20.7162 16.1339 20.8108 16.1339 20.8818 16.0866C20.9527 16.0394 21 15.9685 21 15.874V11.126C21 11.0788 20.9764 11.0315 20.9527 11.0079L17.0027 4.77167C16.9554 4.70081 16.8608 4.65356 16.7898 4.65356C16.6952 4.65356 16.6242 4.72443 16.6006 4.7953L12.7215 14.8819L8.98428 12.3544C8.93698 12.3071 8.86602 12.3071 8.79506 12.3307C8.7241 12.3544 8.67679 12.378 8.65314 12.4488L4.67942 18.9921C4.63211 19.0866 4.63211 19.2047 4.72673 19.2756C4.75038 19.3465 4.82134 19.3701 4.86864 19.3701ZM8.93698 12.8977L12.6978 15.4488C12.7688 15.4961 12.8397 15.4961 12.9107 15.4725C12.9817 15.4488 13.029 15.4016 13.0526 15.3307L16.8608 5.40947L20.5506 11.1969V15.4488L16.9317 13.1811C16.8371 13.1103 16.7188 13.1339 16.6242 13.2284L12.7451 17.2914L8.91332 16.2284C8.84236 16.2047 8.7714 16.2284 8.7241 16.252L5.62554 18.3307L8.93698 12.8977Z" fill="#474E5D"/>
<path d="M3.23653 21H20.7635C20.9054 21 21 20.9055 21 20.7638C21 20.622 20.9054 20.5276 20.7635 20.5276H3.47306V3.23622C3.47306 3.09449 3.37845 3 3.23653 3C3.09461 3 3 3.09449 3 3.23622V20.7402C3 20.8819 3.11827 21 3.23653 21Z" fill="#474E5D"/>
</svg>
