<svg width="24" height="24" viewBox="0 0 24 24" fill="none" xmlns="http://www.w3.org/2000/svg">
<path fill-rule="evenodd" clip-rule="evenodd" d="M3.5 3C3.77614 3 4 3.22386 4 3.5L4 20.5C4 20.7761 3.77614 21 3.5 21C3.22386 21 3 20.7761 3 20.5L3 3.5C3 3.22386 3.22386 3 3.5 3Z" fill="#474E5D"/>
<path fill-rule="evenodd" clip-rule="evenodd" d="M21 20.5C21 20.7761 20.7761 21 20.5 21L3.5 21C3.22386 21 3 20.7761 3 20.5C3 20.2239 3.22386 20 3.5 20L20.5 20C20.7761 20 21 20.2239 21 20.5Z" fill="#474E5D"/>
<path fill-rule="evenodd" clip-rule="evenodd" d="M9.98531 11.5002C10.123 11.4962 10.2562 11.5491 10.3535 11.6465L13.4398 14.7326L17.0956 9.7059C17.177 9.59403 17.3011 9.52086 17.4383 9.50381C17.5756 9.48675 17.7138 9.52732 17.8201 9.61588L20.8201 12.1158C21.0322 12.2926 21.0609 12.6079 20.8841 12.82C20.7073 13.0322 20.392 13.0608 20.1799 12.884L17.5902 10.726L13.9044 15.794C13.8184 15.9122 13.6849 15.9869 13.5391 15.9983C13.3933 16.0098 13.2498 15.9568 13.1464 15.8534L10.0214 12.7285L6.3737 16.8322C6.19024 17.0386 5.8742 17.0572 5.66781 16.8737C5.46142 16.6902 5.44283 16.3742 5.62629 16.1678L9.62629 11.6678C9.71778 11.5649 9.84766 11.5043 9.98531 11.5002Z" fill="#474E5D"/>
<path fill-rule="evenodd" clip-rule="evenodd" d="M8.8517 8.52258C8.9956 8.47788 9.15199 8.50047 9.27736 8.58405L13.3184 11.2781L17.0588 4.26458C17.1513 4.09122 17.3367 3.98807 17.5328 4.00095C17.7288 4.01383 17.8992 4.14034 17.9682 4.32431L20.9682 12.3245C21.0651 12.583 20.9341 12.8712 20.6756 12.9682C20.417 13.0651 20.1288 12.9341 20.0318 12.6756L17.4204 5.71164L13.9412 12.2354C13.8748 12.3599 13.7588 12.4505 13.622 12.485C13.4851 12.5194 13.3401 12.4944 13.2227 12.4161L9.23539 9.75792L6.46424 16.6857C6.36168 16.9421 6.0707 17.0668 5.81431 16.9642C5.55792 16.8617 5.43321 16.5707 5.53577 16.3143L8.53577 8.81438C8.59173 8.67448 8.7078 8.56727 8.8517 8.52258Z" fill="#474E5D"/>
</svg>
