<svg width="24" height="24" viewBox="0 0 24 24" fill="none" xmlns="http://www.w3.org/2000/svg">
<path fill-rule="evenodd" clip-rule="evenodd" d="M3.5 7C3.77614 7 4 7.22386 4 7.5L4 16.5C4 16.7761 3.77614 17 3.5 17C3.22386 17 3 16.7761 3 16.5L3 7.5C3 7.22386 3.22386 7 3.5 7Z" fill="#474E5D"/>
<path fill-rule="evenodd" clip-rule="evenodd" d="M7.82843 15.5354L4.64645 12.3535C4.45119 12.1582 4.45119 11.8416 4.64645 11.6464L7.82843 8.46437C8.02369 8.26911 8.34027 8.26911 8.53553 8.46437C8.7308 8.65963 8.7308 8.97622 8.53553 9.17148L6.20711 11.4999L22 11.4999V12.4999L6.20711 12.4999L8.53553 14.8283C8.7308 15.0236 8.7308 15.3402 8.53553 15.5354C8.34027 15.7307 8.02369 15.7307 7.82843 15.5354Z" fill="#474E5D"/>
</svg>
