<svg width="24" height="24" viewBox="0 0 24 24" fill="none" xmlns="http://www.w3.org/2000/svg">
<path fill-rule="evenodd" clip-rule="evenodd" d="M3.5 3C3.77614 3 4 3.22386 4 3.5L4 20.5C4 20.7761 3.77614 21 3.5 21C3.22386 21 3 20.7761 3 20.5L3 3.5C3 3.22386 3.22386 3 3.5 3Z" fill="#474E5D"/>
<path fill-rule="evenodd" clip-rule="evenodd" d="M21 20.5C21 20.7761 20.7761 21 20.5 21L3.5 21C3.22386 21 3 20.7761 3 20.5C3 20.2239 3.22386 20 3.5 20L20.5 20C20.7761 20 21 20.2239 21 20.5Z" fill="#474E5D"/>
<path fill-rule="evenodd" clip-rule="evenodd" d="M9 11H7V18H9V11ZM7 10C6.44772 10 6 10.4477 6 11V18C6 18.5523 6.44772 19 7 19H9C9.55228 19 10 18.5523 10 18V11C10 10.4477 9.55228 10 9 10H7Z" fill="#474E5D"/>
<path fill-rule="evenodd" clip-rule="evenodd" d="M14 9H12V18H14V9ZM12 8C11.4477 8 11 8.44771 11 9V18C11 18.5523 11.4477 19 12 19H14C14.5523 19 15 18.5523 15 18V9C15 8.44772 14.5523 8 14 8H12Z" fill="#474E5D"/>
<path fill-rule="evenodd" clip-rule="evenodd" d="M19 13H17V18H19V13ZM17 12C16.4477 12 16 12.4477 16 13V18C16 18.5523 16.4477 19 17 19H19C19.5523 19 20 18.5523 20 18V13C20 12.4477 19.5523 12 19 12H17Z" fill="#474E5D"/>
</svg>
