<svg width="24" height="24" viewBox="0 0 24 24" fill="none" xmlns="http://www.w3.org/2000/svg">
<path d="M21 20.7841C21 20.6422 20.9055 20.5476 20.7638 20.5476H3.47244V3.23649C3.47244 3.0946 3.37795 3 3.23622 3C3.09449 3 3 3.0946 3 3.23649V20.7605C3 20.9024 3.09449 20.997 3.23622 20.997H20.7402C20.8819 21.0206 21 20.9024 21 20.7841Z" fill="#474E5D"/>
<path d="M4.86619 19.3887H8.05517C8.1969 19.3887 8.29139 19.2941 8.29139 19.1522V12.5778C8.29139 12.4359 8.1969 12.3413 8.05517 12.3413H4.86619C4.72446 12.3413 4.62997 12.4359 4.62997 12.5778V19.1522C4.62997 19.2705 4.74808 19.3887 4.86619 19.3887ZM5.10242 12.8143H7.81895V18.9158H5.10242V12.8143Z" fill="#474E5D"/>
<path d="M9.1181 19.3889H12.3071C12.4488 19.3889 12.5433 19.2943 12.5433 19.1524V15.1794C12.5433 15.0375 12.4488 14.9429 12.3071 14.9429H9.1181C8.97637 14.9429 8.88188 15.0375 8.88188 15.1794V19.1524C8.88188 19.2707 8.97637 19.3889 9.1181 19.3889ZM9.35432 15.4159H12.0709V18.9159H9.35432V15.4159Z" fill="#474E5D"/>
<path d="M13.3464 19.3889H16.5354C16.6771 19.3889 16.7716 19.2943 16.7716 19.1524V4.89201C16.7716 4.75011 16.6771 4.65552 16.5354 4.65552H13.3464C13.2047 4.65552 13.1102 4.75011 13.1102 4.89201V19.1288C13.1102 19.2707 13.2047 19.3889 13.3464 19.3889ZM13.5827 5.1285H16.2992V18.8923H13.5827V5.1285Z" fill="#474E5D"/>
<path d="M17.5748 19.3887H20.7638C20.9055 19.3887 21 19.2941 21 19.1522V11.1352C21 10.9933 20.9055 10.8987 20.7638 10.8987H17.5748C17.433 10.8987 17.3386 10.9933 17.3386 11.1352V19.1286C17.3386 19.2705 17.433 19.3887 17.5748 19.3887ZM17.811 11.3717H20.5275V18.8921H17.811V11.3717Z" fill="#474E5D"/>
</svg>
