<svg width="24" height="24" viewBox="0 0 24 24" fill="none" xmlns="http://www.w3.org/2000/svg">
<path d="M19.8025 20H4V4.19632C4 4.14425 4.02081 4.09432 4.05786 4.0575C4.0949 4.02068 4.14514 4 4.19753 4C4.24992 4 4.30016 4.02068 4.33721 4.0575C4.37425 4.09432 4.39506 4.14425 4.39506 4.19632V19.6074H19.8025C19.8549 19.6074 19.9051 19.628 19.9421 19.6649C19.9792 19.7017 20 19.7516 20 19.8037C20 19.8557 19.9792 19.9057 19.9421 19.9425C19.9051 19.9793 19.8549 20 19.8025 20Z" fill="#474E5D"/>
<path d="M14 13C13.8022 13 13.6089 12.9414 13.4444 12.8315C13.28 12.7216 13.1518 12.5654 13.0761 12.3827C13.0004 12.2 12.9806 11.9989 13.0192 11.8049C13.0578 11.6109 13.153 11.4327 13.2929 11.2929C13.4327 11.153 13.6109 11.0578 13.8049 11.0192C13.9989 10.9806 14.2 11.0004 14.3827 11.0761C14.5654 11.1518 14.7216 11.28 14.8315 11.4444C14.9414 11.6089 15 11.8022 15 12C15 12.2652 14.8946 12.5196 14.7071 12.7071C14.5196 12.8946 14.2652 13 14 13ZM14 11.4444C13.8901 11.4444 13.7827 11.477 13.6913 11.5381C13.6 11.5991 13.5288 11.6859 13.4867 11.7874C13.4447 11.8889 13.4337 12.0006 13.4551 12.1084C13.4766 12.2162 13.5295 12.3151 13.6072 12.3928C13.6849 12.4705 13.7838 12.5234 13.8916 12.5449C13.9994 12.5663 14.1111 12.5553 14.2126 12.5133C14.3141 12.4712 14.4009 12.4 14.4619 12.3087C14.523 12.2173 14.5556 12.1099 14.5556 12C14.5556 11.8527 14.497 11.7113 14.3928 11.6072C14.2887 11.503 14.1473 11.4444 14 11.4444Z" fill="#474E5D"/>
<path d="M17 8C16.8022 8 16.6089 7.94135 16.4444 7.83147C16.28 7.72159 16.1518 7.56541 16.0761 7.38268C16.0004 7.19996 15.9806 6.99889 16.0192 6.80491C16.0578 6.61093 16.153 6.43275 16.2929 6.29289C16.4327 6.15304 16.6109 6.0578 16.8049 6.01922C16.9989 5.98063 17.2 6.00043 17.3827 6.07612C17.5654 6.15181 17.7216 6.27998 17.8315 6.44443C17.9414 6.60888 18 6.80222 18 7C18 7.26522 17.8946 7.51957 17.7071 7.70711C17.5196 7.89464 17.2652 8 17 8ZM17 6.44444C16.8901 6.44444 16.7827 6.47703 16.6914 6.53807C16.6 6.59912 16.5288 6.68588 16.4867 6.7874C16.4447 6.88891 16.4337 7.00062 16.4551 7.10838C16.4766 7.21615 16.5295 7.31514 16.6072 7.39284C16.6849 7.47053 16.7839 7.52344 16.8916 7.54488C16.9994 7.56632 17.1111 7.55532 17.2126 7.51327C17.3141 7.47122 17.4009 7.40001 17.4619 7.30865C17.523 7.21729 17.5556 7.10988 17.5556 7C17.5556 6.85266 17.497 6.71135 17.3928 6.60716C17.2887 6.50298 17.1473 6.44444 17 6.44444Z" fill="#474E5D"/>
<path d="M10.5 11C10.0055 11 9.5222 10.8534 9.11108 10.5787C8.69995 10.304 8.37952 9.91352 8.1903 9.45671C8.00108 8.99989 7.95157 8.49723 8.04804 8.01227C8.1445 7.52732 8.3826 7.08187 8.73223 6.73223C9.08186 6.3826 9.52732 6.1445 10.0123 6.04804C10.4972 5.95157 10.9999 6.00108 11.4567 6.1903C11.9135 6.37952 12.304 6.69995 12.5787 7.11108C12.8534 7.5222 13 8.00555 13 8.5C13 9.16304 12.7366 9.79893 12.2678 10.2678C11.7989 10.7366 11.163 11 10.5 11ZM10.5 6.41667C10.088 6.41667 9.68517 6.53885 9.34256 6.76777C8.99996 6.99669 8.73293 7.32206 8.57525 7.70274C8.41757 8.08342 8.37631 8.50231 8.4567 8.90644C8.53708 9.31057 8.7355 9.68178 9.02686 9.97314C9.31822 10.2645 9.68944 10.4629 10.0936 10.5433C10.4977 10.6237 10.9166 10.5824 11.2973 10.4247C11.6779 10.2671 12.0033 10 12.2322 9.65744C12.4611 9.31484 12.5833 8.91205 12.5833 8.5C12.5833 7.94747 12.3638 7.41756 11.9731 7.02686C11.5824 6.63616 11.0525 6.41667 10.5 6.41667Z" fill="#474E5D"/>
<path d="M11 18C10.6044 18 10.2178 17.8827 9.88886 17.6629C9.55996 17.4432 9.30362 17.1308 9.15224 16.7654C9.00087 16.3999 8.96126 15.9978 9.03843 15.6098C9.1156 15.2219 9.30608 14.8655 9.58579 14.5858C9.86549 14.3061 10.2219 14.1156 10.6098 14.0384C10.9978 13.9613 11.3999 14.0009 11.7654 14.1522C12.1308 14.3036 12.4432 14.56 12.6629 14.8889C12.8827 15.2178 13 15.6044 13 16C13 16.5304 12.7893 17.0391 12.4142 17.4142C12.0391 17.7893 11.5304 18 11 18ZM11 14.4444C10.6923 14.4444 10.3916 14.5357 10.1358 14.7066C9.87997 14.8775 9.68059 15.1205 9.56286 15.4047C9.44512 15.689 9.41431 16.0017 9.47433 16.3035C9.53436 16.6052 9.68251 16.8824 9.90006 17.0999C10.1176 17.3175 10.3948 17.4656 10.6965 17.5257C10.9983 17.5857 11.311 17.5549 11.5953 17.4371C11.8795 17.3194 12.1225 17.12 12.2934 16.8642C12.4643 16.6084 12.5556 16.3077 12.5556 16C12.5556 15.5874 12.3917 15.1918 12.0999 14.9001C11.8082 14.6083 11.4126 14.4444 11 14.4444Z" fill="#474E5D"/>
<path d="M6.5 16C6.40111 16 6.30444 15.9707 6.22222 15.9157C6.13999 15.8608 6.0759 15.7827 6.03806 15.6913C6.00022 15.6 5.99031 15.4994 6.00961 15.4025C6.0289 15.3055 6.07652 15.2164 6.14645 15.1464C6.21637 15.0765 6.30546 15.0289 6.40245 15.0096C6.49945 14.9903 6.59998 15.0002 6.69134 15.0381C6.7827 15.0759 6.86079 15.14 6.91573 15.2222C6.97068 15.3044 7 15.4011 7 15.5C7 15.6326 6.94732 15.7598 6.85355 15.8536C6.75979 15.9473 6.63261 16 6.5 16ZM6.5 15.3333C6.46704 15.3333 6.43481 15.3431 6.40741 15.3614C6.38 15.3797 6.35863 15.4058 6.34602 15.4362C6.33341 15.4667 6.33011 15.5002 6.33654 15.5325C6.34297 15.5648 6.35884 15.5945 6.38215 15.6179C6.40546 15.6412 6.43515 15.657 6.46748 15.6635C6.49982 15.6699 6.53333 15.6666 6.56378 15.654C6.59423 15.6414 6.62026 15.62 6.63858 15.5926C6.65689 15.5652 6.66667 15.533 6.66667 15.5C6.66667 15.4558 6.64911 15.4134 6.61785 15.3821C6.5866 15.3509 6.5442 15.3333 6.5 15.3333Z" fill="#474E5D"/>
</svg>
