<svg width="68" height="63" viewBox="0 0 68 63" fill="none" xmlns="http://www.w3.org/2000/svg">
<path d="M67.7744 38.1375C67.4744 37.6375 66.8744 37.5375 66.3744 37.7375C64.2744 38.9375 62.6744 37.6375 59.8744 35.2375C57.8744 33.5375 55.5744 31.5375 52.6744 30.9375C49.5744 30.3375 46.8744 31.7375 45.1744 33.6375C44.6744 33.5375 44.1744 33.5375 43.6744 33.5375C43.6744 33.5375 43.6744 33.5375 43.5744 33.5375C42.3744 33.5375 41.0744 33.7375 39.8744 34.1375C38.9744 32.3375 37.6744 30.5375 36.0744 28.8375C37.9744 27.9375 39.2744 25.9375 39.2744 23.7375C39.2744 20.6375 36.7744 18.0375 33.5744 18.0375C30.8744 18.0375 28.5744 19.9375 28.0744 22.4375C27.0744 21.9375 26.0744 21.5375 25.1744 21.2375C25.5744 20.6375 26.0744 19.9375 26.6744 19.2375C28.1744 17.6375 28.6744 15.7375 28.0744 13.9375C27.9744 13.5375 27.7744 13.1375 27.4744 12.7375C28.4744 10.5375 28.2744 8.1375 27.5744 6.4375C28.4744 5.2375 29.2744 3.8375 29.6744 2.1375C29.7744 1.6375 29.4744 1.0375 28.9744 0.9375C28.4744 0.8375 27.8744 1.1375 27.7744 1.6375C27.4744 2.7375 27.0744 3.7375 26.4744 4.5375C25.7744 3.6375 24.7744 3.0375 23.8744 2.9375C20.7744 2.6375 19.2744 3.9375 18.8744 5.3375C18.4744 6.6375 19.0744 8.0375 20.2744 8.7375C21.4744 9.4375 22.9744 9.4375 24.4744 8.8375C24.9744 8.6375 25.4744 8.3375 25.9744 7.9375C26.1744 8.8375 26.2744 9.9375 25.9744 11.0375C25.3744 10.6375 24.6744 10.3375 23.9744 10.1375C22.3744 9.8375 20.8744 10.2375 19.8744 11.4375C19.1744 12.2375 18.9744 13.2375 19.2744 14.2375C19.6744 15.3375 20.6744 16.2375 21.8744 16.4375C22.7744 16.6375 24.4744 16.5375 26.1744 14.6375C26.4744 15.7375 26.0744 16.8375 25.1744 17.8375C24.2744 18.8375 23.5744 19.7375 23.0744 20.6375C22.2744 20.5375 21.5744 20.4375 20.8744 20.4375C18.7744 20.4375 16.9744 21.1375 15.6744 22.3375C15.0744 22.9375 14.5744 23.7375 14.2744 24.6375L0.174433 59.2375C-0.125567 59.9375 -0.0255668 60.7375 0.374433 61.4375C0.774433 62.1375 1.57443 62.4375 2.27443 62.4375C2.57443 62.4375 2.87443 62.3375 3.17443 62.2375L24.5744 53.4375L37.6744 48.0375C38.5744 47.7375 39.3744 47.2375 39.9744 46.6375C42.3744 44.2375 42.4744 40.2375 40.6744 35.9375C41.5744 35.6375 42.5744 35.5375 43.4744 35.5375C43.5744 35.5375 43.6744 35.5375 43.7744 35.5375C42.3744 38.2375 42.6744 41.1375 44.3744 43.1375C45.3744 44.2375 46.5744 44.6375 47.6744 44.6375C48.6744 44.6375 49.6744 44.2375 50.3744 43.6375C51.9744 42.2375 52.7744 39.5375 50.5744 36.7375C49.6744 35.6375 48.5744 34.7375 47.2744 34.2375C48.5744 33.1375 50.2744 32.5375 52.1744 32.9375C54.5744 33.4375 56.5744 35.1375 58.4744 36.7375C61.1744 39.0375 63.8744 41.3375 67.2744 39.4375C67.8744 39.2375 68.0744 38.6375 67.7744 38.1375ZM23.7744 7.0375C23.1744 7.3375 22.2744 7.5375 21.3744 7.0375C20.9744 6.8375 20.7744 6.3375 20.8744 5.9375C21.0744 5.4375 21.6744 4.9375 23.1744 4.9375C23.3744 4.9375 23.5744 4.9375 23.7744 4.9375C24.1744 4.9375 24.7744 5.3375 25.2744 6.0375C24.7744 6.5375 24.2744 6.8375 23.7744 7.0375ZM24.9744 13.3375C24.1744 14.3375 23.2744 14.8375 22.4744 14.6375C21.9744 14.5375 21.5744 14.2375 21.3744 13.7375C21.2744 13.4375 21.3744 13.1375 21.5744 12.9375C22.0744 12.3375 22.6744 12.2375 23.1744 12.2375C23.3744 12.2375 23.5744 12.2375 23.7744 12.3375C24.2744 12.4375 24.8744 12.7375 25.2744 13.1375C25.0744 13.1375 24.9744 13.2375 24.9744 13.3375ZM33.6744 20.0375C35.6744 20.0375 37.3744 21.6375 37.3744 23.7375C37.3744 25.5375 35.9744 27.1375 34.1744 27.3375C33.9744 27.3375 33.8744 27.4375 33.6744 27.4375C33.4744 27.4375 33.1744 27.4375 32.9744 27.3375C32.8744 27.3375 32.8744 27.3375 32.7744 27.3375C32.5744 27.3375 32.4744 27.2375 32.2744 27.1375C32.1744 27.1375 32.1744 27.0375 32.0744 27.0375C31.9744 26.9375 31.7744 26.9375 31.6744 26.8375C31.5744 26.7375 31.4744 26.7375 31.4744 26.6375C31.3744 26.5375 31.2744 26.5375 31.1744 26.4375C31.0744 26.3375 30.9744 26.2375 30.8744 26.1375C30.8744 26.0375 30.7744 26.0375 30.7744 25.9375C30.6744 25.7375 30.5744 25.6375 30.4744 25.4375C30.2744 25.0375 30.1744 24.6375 30.0744 24.1375C30.0744 24.0375 30.0744 23.9375 30.0744 23.8375C29.9744 21.7375 31.6744 20.0375 33.6744 20.0375ZM22.1744 42.6375C22.2744 42.7375 22.3744 42.8375 22.4744 42.8375C22.8744 43.1375 23.2744 43.5375 23.6744 43.8375C23.7744 43.9375 23.7744 43.9375 23.8744 44.0375C24.2744 44.3375 24.5744 44.5375 24.9744 44.8375C25.0744 44.9375 25.1744 44.9375 25.1744 45.0375C25.5744 45.3375 25.9744 45.5375 26.3744 45.8375C26.4744 45.9375 26.5744 45.9375 26.6744 46.0375C27.0744 46.2375 27.4744 46.5375 27.8744 46.7375H27.9744C28.3744 46.9375 28.7744 47.1375 29.2744 47.3375C29.2744 47.3375 29.3744 47.3375 29.3744 47.4375C20.5744 46.4375 13.7744 41.6375 11.7744 36.6375L12.7744 34.1375C14.0744 36.0375 15.9744 37.5375 18.3744 38.7375C19.1744 39.7375 19.9744 40.7375 20.9744 41.7375C21.3744 41.9375 21.7744 42.3375 22.1744 42.6375ZM24.1744 51.5375C20.0744 51.0375 10.9744 49.2375 8.87443 43.4375L10.6744 38.9375C14.0744 44.8375 21.8744 48.4375 29.5744 49.3375L24.1744 51.5375ZM16.6744 54.6375C12.9744 54.3375 8.37443 52.9375 6.77443 48.5375L7.87443 45.9375C10.4744 50.1375 15.9744 52.0375 20.6744 53.0375L16.6744 54.6375ZM9.97443 57.3375C6.87443 57.3375 4.67443 56.0375 4.27443 54.6375L5.77443 51.0375C7.27443 53.5375 9.77443 55.1375 13.1744 56.0375L9.97443 57.3375ZM15.7744 34.5375C14.8744 33.7375 14.2744 32.8375 13.6744 31.7375L14.2744 30.3375C14.5744 31.7375 15.0744 33.1375 15.7744 34.5375ZM2.47443 60.4375C2.27443 60.5375 2.17443 60.4375 2.07443 60.3375C1.97443 60.2375 2.07443 60.0375 2.07443 60.0375L3.37443 56.9375C4.17443 57.7375 5.17443 58.4375 6.47443 58.8375L2.47443 60.4375ZM38.6744 45.2375C38.2744 45.6375 37.6744 46.0375 37.0744 46.2375C36.4744 46.4375 35.6744 46.5375 34.8744 46.5375C31.5744 46.5375 27.4744 44.6375 23.8744 41.5375C23.7744 41.4375 23.5744 41.3375 23.4744 41.1375C23.0744 40.8375 22.7744 40.4375 22.3744 40.1375C22.0744 39.8375 21.6744 39.4375 21.3744 39.1375C21.2744 39.0375 21.1744 38.8375 21.0744 38.7375C20.8744 38.5375 20.6744 38.3375 20.4744 38.0375C20.3744 37.8375 20.2744 37.7375 20.0744 37.5375C19.8744 37.3375 19.7744 37.1375 19.5744 36.9375C19.4744 36.7375 19.3744 36.6375 19.2744 36.4375C19.1744 36.2375 18.9744 36.0375 18.8744 35.8375C18.7744 35.6375 18.6744 35.5375 18.5744 35.3375C18.3744 35.1375 18.2744 34.8375 18.1744 34.6375C18.0744 34.5375 18.0744 34.4375 17.9744 34.3375C17.7744 33.9375 17.5744 33.6375 17.3744 33.2375C17.3744 33.1375 17.2744 33.0375 17.2744 33.0375C17.1744 32.7375 16.9744 32.4375 16.8744 32.1375C16.8744 32.0375 16.7744 31.9375 16.7744 31.8375C16.6744 31.5375 16.5744 31.3375 16.4744 31.0375C16.4744 30.9375 16.3744 30.8375 16.3744 30.7375C16.2744 30.4375 16.1744 30.1375 16.1744 29.9375C16.1744 29.8375 16.1744 29.8375 16.0744 29.7375C15.9744 29.4375 15.9744 29.1375 15.8744 28.8375V28.7375C15.7744 28.0375 15.7744 27.4375 15.8744 26.8375C15.8744 26.7375 15.8744 26.7375 15.8744 26.7375C15.8744 26.5375 15.9744 26.2375 15.9744 26.0375C15.9744 25.9375 16.0744 25.8375 16.0744 25.7375C16.2744 24.9375 16.6744 24.3375 17.1744 23.8375C18.0744 22.9375 19.2744 22.5375 20.8744 22.5375C21.2744 22.5375 21.6744 22.5375 22.0744 22.6375C21.1744 24.6375 21.0744 26.0375 21.0744 26.4375C21.0744 27.0375 21.4744 27.4375 22.0744 27.4375C22.5744 27.4375 23.0744 27.0375 23.0744 26.4375C23.0744 26.2375 23.1744 24.8375 24.0744 22.9375C25.3744 23.3375 26.6744 23.8375 27.9744 24.6375C28.1744 25.6375 28.5744 26.5375 29.1744 27.3375C29.1744 27.3375 29.1744 27.3375 29.2744 27.4375C29.4744 27.6375 29.5744 27.8375 29.7744 27.9375C29.8744 27.9375 29.8744 28.0375 29.9744 28.0375C30.1744 28.2375 30.3744 28.3375 30.5744 28.4375C30.6744 28.4375 30.7744 28.5375 30.7744 28.5375C30.9744 28.6375 31.1744 28.7375 31.4744 28.8375C31.5744 28.8375 31.6744 28.9375 31.6744 28.9375C31.9744 29.0375 32.1744 29.1375 32.4744 29.1375C32.5744 29.1375 32.5744 29.1375 32.6744 29.1375C32.9744 29.1375 33.2744 29.2375 33.5744 29.2375C33.6744 29.2375 33.7744 29.2375 33.8744 29.2375C35.5744 30.9375 36.8744 32.8375 37.8744 34.7375C35.3744 35.8375 33.0744 37.6375 31.2744 40.0375C30.9744 40.4375 30.9744 41.1375 31.4744 41.4375C31.8744 41.7375 32.5744 41.7375 32.8744 41.2375C34.5744 39.1375 36.5744 37.5375 38.7744 36.5375C40.3744 40.2375 40.4744 43.5375 38.6744 45.2375ZM49.1744 38.0375C50.6744 39.9375 50.1744 41.5375 49.2744 42.2375C48.4744 42.9375 47.0744 43.1375 45.9744 41.8375C44.4744 40.1375 44.8744 37.8375 45.7744 36.2375C45.8744 36.1375 45.8744 36.0375 45.9744 35.9375C47.2744 36.3375 48.3744 37.0375 49.1744 38.0375ZM58.5744 15.2375C60.4744 15.2375 62.0744 13.6375 62.0744 11.7375C62.0744 9.8375 60.4744 8.2375 58.5744 8.2375C56.6744 8.2375 55.0744 9.8375 55.0744 11.7375C55.0744 13.6375 56.5744 15.2375 58.5744 15.2375ZM58.5744 10.2375C59.3744 10.2375 60.0744 10.9375 60.0744 11.7375C60.0744 12.5375 59.3744 13.2375 58.5744 13.2375C57.7744 13.2375 57.0744 12.5375 57.0744 11.7375C57.0744 10.9375 57.6744 10.2375 58.5744 10.2375ZM33.9744 33.1375C33.9744 31.6375 32.7744 30.4375 31.2744 30.4375C29.7744 30.4375 28.5744 31.6375 28.5744 33.1375C28.5744 34.6375 29.7744 35.8375 31.2744 35.8375C32.7744 35.8375 33.9744 34.5375 33.9744 33.1375ZM30.5744 33.1375C30.5744 32.7375 30.8744 32.4375 31.2744 32.4375C31.6744 32.4375 31.9744 32.7375 31.9744 33.1375C31.9744 33.5375 31.6744 33.8375 31.2744 33.8375C30.8744 33.8375 30.5744 33.4375 30.5744 33.1375ZM36.7744 7.9375L40.1744 9.7375L40.5744 13.5375C40.5744 13.9375 40.8744 14.2375 41.1744 14.3375C41.2744 14.3375 41.3744 14.4375 41.4744 14.4375C41.7744 14.4375 41.9744 14.3375 42.1744 14.1375L44.9744 11.5375L48.7744 12.3375C49.1744 12.4375 49.5744 12.2375 49.7744 11.9375C49.9744 11.6375 50.0744 11.2375 49.8744 10.9375L48.2744 7.4375L50.1744 4.1375C50.3744 3.8375 50.3744 3.4375 50.1744 3.0375C49.9744 2.7375 49.5744 2.5375 49.1744 2.6375L45.3744 3.2375L42.7744 0.3375C42.4744 0.0375001 42.1744 -0.0625 41.7744 0.0375C41.3744 0.1375 41.1744 0.4375 41.0744 0.8375L40.3744 4.6375L36.8744 6.2375C36.5744 6.4375 36.2744 6.7375 36.2744 7.1375C36.2744 7.5375 36.4744 7.7375 36.7744 7.9375ZM41.6744 6.2375C41.9744 6.1375 42.1744 5.8375 42.2744 5.5375L42.6744 3.2375L44.2744 4.9375C44.4744 5.1375 44.7744 5.3375 45.1744 5.2375L47.4744 4.9375L46.2744 6.9375C46.0744 7.2375 46.0744 7.5375 46.2744 7.8375L47.2744 9.9375L44.9744 9.5375C44.6744 9.4375 44.2744 9.5375 44.0744 9.8375L42.3744 11.4375L42.1744 9.1375C42.1744 8.8375 41.9744 8.5375 41.6744 8.3375L39.5744 7.2375L41.6744 6.2375ZM46.4744 18.7375C46.0744 18.6375 45.6744 18.7375 45.4744 18.9375C45.1744 19.2375 45.0744 19.6375 45.2744 19.9375L46.0744 22.3375L44.5744 24.3375C44.3744 24.6375 44.2744 25.0375 44.4744 25.4375C44.6744 25.7375 44.9744 25.9375 45.3744 26.0375H47.8744L49.2744 28.1375C49.4744 28.4375 49.7744 28.5375 50.0744 28.5375H50.1744C50.5744 28.4375 50.8744 28.2375 50.9744 27.8375L51.7744 25.4375L54.1744 24.7375C54.5744 24.6375 54.7744 24.3375 54.8744 23.9375C54.9744 23.5375 54.7744 23.1375 54.4744 22.9375L52.4744 21.4375L52.5744 18.9375C52.5744 18.5375 52.3744 18.2375 52.0744 18.0375C51.7744 17.8375 51.3744 17.9375 50.9744 18.1375L48.9744 19.6375L46.4744 18.7375ZM49.5744 21.4375L50.3744 20.8375V21.8375C50.3744 22.1375 50.4744 22.4375 50.7744 22.6375L51.5744 23.2375L50.5744 23.5375C50.2744 23.6375 49.9744 23.8375 49.8744 24.2375L49.5744 25.2375L48.9744 24.4375C48.7744 24.1375 48.4744 24.0375 48.1744 24.0375H47.1744L47.7744 23.2375C47.9744 22.9375 48.0744 22.6375 47.9744 22.3375L47.6744 21.3375L48.6744 21.6375C48.9744 21.7375 49.3744 21.6375 49.5744 21.4375Z" fill="black"/>
</svg>
