<svg width="24" height="24" viewBox="0 0 24 24" fill="none" xmlns="http://www.w3.org/2000/svg">
<path fill-rule="evenodd" clip-rule="evenodd" d="M14.8665 4.31663C11.0235 2.60428 6.5119 3.62361 3.77836 6.82185C1.04482 10.0201 0.740489 14.6354 3.03041 18.1648C5.32032 21.6943 9.65899 23.2972 13.6936 22.1043C17.7282 20.9114 20.4976 17.2069 20.5 12.9996V12.0699C20.5 11.7938 20.7239 11.5699 21 11.5699C21.2761 11.5699 21.5 11.7938 21.5 12.0699V12.9999C21.4973 17.65 18.4364 21.7448 13.9771 23.0633C9.51783 24.3818 4.72246 22.6101 2.1915 18.7091C-0.339459 14.8081 -0.00309491 9.70702 3.01819 6.17212C6.03947 2.63723 11.0259 1.5106 15.2735 3.4032C15.5257 3.51559 15.6391 3.81118 15.5267 4.06341C15.4143 4.31565 15.1187 4.42902 14.8665 4.31663Z" fill="#474E5D"/>
<path fill-rule="evenodd" clip-rule="evenodd" d="M22.3536 3.64645C22.5488 3.84171 22.5488 4.15829 22.3536 4.35355L11.3536 15.3536C11.1583 15.5488 10.8417 15.5488 10.6464 15.3536L7.64645 12.3536C7.45118 12.1583 7.45118 11.8417 7.64645 11.6464C7.84171 11.4512 8.15829 11.4512 8.35355 11.6464L11 14.2929L21.6464 3.64645C21.8417 3.45118 22.1583 3.45118 22.3536 3.64645Z" fill="#474E5D"/>
</svg>
