<svg width="24" height="24" viewBox="0 0 24 24" fill="none" xmlns="http://www.w3.org/2000/svg">
<path fill-rule="evenodd" clip-rule="evenodd" d="M9.52876 18.4714C9.26841 18.2111 9.26841 17.789 9.52876 17.5286L15.0574 12L9.52876 6.47143C9.26841 6.21107 9.26841 5.78897 9.52876 5.52862C9.78911 5.26827 10.2112 5.26827 10.4716 5.52862L16.4716 11.5286C16.7319 11.789 16.7319 12.2111 16.4716 12.4714L10.4716 18.4714C10.2112 18.7318 9.78911 18.7318 9.52876 18.4714Z" fill="#878787"/>
<path fill-rule="evenodd" clip-rule="evenodd" d="M12 1C5.92487 1 0.999999 5.92487 1 12C1 18.0751 5.92487 23 12 23C18.0751 23 23 18.0751 23 12C23 5.92487 18.0751 1 12 1ZM12 2.28879e-06C5.37258 2.49945e-06 -5.92101e-07 5.37258 -3.81438e-07 12C-1.70776e-07 18.6274 5.37258 24 12 24C18.6274 24 24 18.6274 24 12C24 5.37258 18.6274 2.07812e-06 12 2.28879e-06Z" fill="#878787"/>
</svg>
