<svg width="24" height="24" viewBox="0 0 24 24" fill="none" xmlns="http://www.w3.org/2000/svg">
<path fill-rule="evenodd" clip-rule="evenodd" d="M14.4712 5.52858C14.7316 5.78892 14.7316 6.21103 14.4712 6.47138L8.94265 12L14.4712 17.5286C14.7316 17.7889 14.7316 18.211 14.4712 18.4714C14.2109 18.7317 13.7888 18.7317 13.5284 18.4714L7.52843 12.4714C7.26808 12.211 7.26808 11.7889 7.52843 11.5286L13.5284 5.52858C13.7888 5.26823 14.2109 5.26823 14.4712 5.52858Z" fill="#878787"/>
<path fill-rule="evenodd" clip-rule="evenodd" d="M12 23C18.0751 23 23 18.0751 23 12C23 5.92487 18.0751 1 12 1C5.92487 1 1 5.92487 1 12C1 18.0751 5.92487 23 12 23ZM12 24C18.6274 24 24 18.6274 24 12C24 5.37258 18.6274 0 12 0C5.37258 0 0 5.37258 0 12C0 18.6274 5.37258 24 12 24Z" fill="#878787"/>
</svg>
