<svg width="24" height="24" viewBox="0 0 24 24" fill="none" xmlns="http://www.w3.org/2000/svg">
<path d="M11.6 10.6C11.6 10.2688 11.3318 10 11 10C10.6682 10 10.4 10.2688 10.4 10.6V12.4H8.6C8.2682 12.4 8 12.6688 8 13C8 13.3312 8.2682 13.6 8.6 13.6H10.4V15.4C10.4 15.7312 10.6682 16 11 16C11.3318 16 11.6 15.7312 11.6 15.4V13.6H13.4C13.7318 13.6 14 13.3312 14 13C14 12.6688 13.7318 12.4 13.4 12.4H11.6V10.6Z" fill="#474E5D"/>
<path d="M22 18.3929C22 18.7286 21.7126 19 21.3571 19C21.0016 19 20.7143 18.7286 20.7143 18.3929V3.21429H4.64286C4.28736 3.21429 4 2.94289 4 2.60714C4 2.27139 4.28736 2 4.64286 2H20.7143C21.424 2 22 2.544 22 3.21429V18.3929Z" fill="#474E5D"/>
<path d="M2 20.7143C2 21.424 2.544 22 3.21429 22H5.03571C5.37146 22 5.64286 21.7126 5.64286 21.3571C5.64286 21.0016 5.37146 20.7143 5.03571 20.7143H3.21429V5.28571H17.7857V20.7143H7.46429C7.12854 20.7143 6.85714 21.0016 6.85714 21.3571C6.85714 21.7126 7.12854 22 7.46429 22H17.7857C18.456 22 19 21.424 19 20.7143V5.28571C19 4.576 18.456 4 17.7857 4H3.21429C2.544 4 2 4.576 2 5.28571V20.7143Z" fill="#474E5D"/>
</svg>
