<svg width="24" height="24" viewBox="0 0 24 24" fill="none" xmlns="http://www.w3.org/2000/svg">
<path fill-rule="evenodd" clip-rule="evenodd" d="M18.3536 18.3536C18.1583 18.5489 17.8417 18.5489 17.6464 18.3536L5.64645 6.35361C5.45118 6.15835 5.45118 5.84177 5.64645 5.64651C5.84171 5.45125 6.15829 5.45125 6.35355 5.64651L18.3536 17.6465C18.5488 17.8418 18.5488 18.1584 18.3536 18.3536Z" fill="#474E5D"/>
<path fill-rule="evenodd" clip-rule="evenodd" d="M18.3536 5.64651C18.5488 5.84177 18.5488 6.15835 18.3536 6.35361L6.35355 18.3536C6.15829 18.5489 5.84171 18.5489 5.64645 18.3536C5.45118 18.1584 5.45118 17.8418 5.64645 17.6465L17.6464 5.64651C17.8417 5.45125 18.1583 5.45125 18.3536 5.64651Z" fill="#474E5D"/>
</svg>
