<svg width="100" height="100" viewBox="0 0 100 100" fill="none" xmlns="http://www.w3.org/2000/svg">
<path fill-rule="evenodd" clip-rule="evenodd" d="M75.6061 16.2493C77.3606 14.7027 79.9527 14.579 81.8465 15.9513L82.7216 16.5855C86.3449 19.2112 84.959 24.9097 80.5345 25.5781L68.5333 27.3912C68.0832 27.4592 67.6762 27.3838 67.3338 27.2111C67.337 27.3099 67.3255 27.4107 67.2977 27.511L65.7555 33.0731L75.3438 39.4251C77.2774 40.706 77.0419 43.4961 75.1703 44.539L84.2237 49.0657C84.3313 49.1195 84.4109 49.2068 84.4565 49.3086C84.469 49.3366 84.479 49.3658 84.4862 49.3958C84.4963 49.4374 84.501 49.4804 84.5001 49.5236V69.013C84.5001 69.2305 84.3594 69.4231 84.1521 69.4893L37.1521 84.4893C37.0201 84.5314 36.8764 84.5169 36.7555 84.449L16.2555 72.949C16.0978 72.8605 16.0001 72.6938 16.0001 72.513V53.0235C15.9953 52.8066 16.1331 52.6063 16.3454 52.5375C16.352 52.5353 16.3586 52.5333 16.3652 52.5315L16.3758 52.5286L16.3772 52.5283L35.4599 47.6353L51.7316 28.9886C53.3795 27.1002 56.1709 26.7236 58.2603 28.1078L64.0021 31.9116L65.3704 26.9766C65.5009 26.506 65.9469 26.2077 66.4164 26.247C66.077 25.507 66.1677 24.5695 66.912 23.9134L75.6061 16.2493ZM80.6729 17.5708C79.5366 16.7474 77.9813 16.8216 76.9287 17.7496L68.2346 25.4137L80.2358 23.6005C82.8905 23.1995 83.722 19.7804 81.548 18.205L80.6729 17.5708ZM46.1277 52.3795L39.3265 54.193L41.762 55.7923C42.2237 56.0954 42.3522 56.7154 42.049 57.1771C41.7459 57.6387 41.1259 57.7672 40.6642 57.4641L37.4532 55.3555C37.247 55.2201 37.1072 55.0215 37.0427 54.8019L33.1582 55.8377C31.2509 56.3463 29.8382 54.0775 31.136 52.5903L34.2994 48.9652L17.833 53.1874L37.0552 63.9705L82.677 49.4104L73.8376 44.9907L67.8155 46.5965L68.5016 46.9863C68.9817 47.2592 69.1498 47.8696 68.877 48.3498C68.6041 48.83 67.9937 48.9981 67.5135 48.7252L65.3696 47.507C65.2764 47.4541 65.195 47.3884 65.1263 47.3135L58.3198 49.1285L59.6448 49.9986C60.1065 50.3017 60.235 50.9217 59.9318 51.3834C59.6287 51.845 59.0087 51.9735 58.547 51.6704L55.7284 49.8195L48.6697 51.7016L50.6448 52.9986C51.1065 53.3017 51.235 53.9217 50.9318 54.3834C50.6287 54.845 50.0087 54.9735 49.547 54.6704L46.336 52.5618C46.2565 52.5096 46.1869 52.448 46.1277 52.3795ZM73.9446 42.8923L55.8053 47.7291C55.6849 47.7388 55.5668 47.7702 55.4571 47.8219L32.6429 53.9052L53.2385 30.3036C54.2273 29.1706 55.9021 28.9446 57.1557 29.7751L62.6134 33.3907L48.348 41.7821C47.872 42.0621 47.7131 42.675 47.9931 43.151C48.2731 43.6271 48.886 43.786 49.3621 43.5059L64.4687 34.6197L74.2392 41.0924C74.9579 41.5685 74.7776 42.6702 73.9446 42.8923ZM17.0001 53.8667L36.5001 64.8058V83.1592L17.0001 72.2201V53.8667ZM83.5001 68.6477L37.5001 83.3285V64.8782L83.5001 50.1974V68.6477Z" fill="#474E5D"/>
</svg>
