<svg width="24" height="24" viewBox="0 0 24 24" fill="none" xmlns="http://www.w3.org/2000/svg">
<path fill-rule="evenodd" clip-rule="evenodd" d="M20.3193 17.138L13.1471 5.32239C12.5849 4.39608 11.2614 4.39608 10.6992 5.32239L3.52705 17.138C2.9348 18.1137 3.62429 19.3723 4.75104 19.3723H19.0953C20.222 19.3723 20.9115 18.1137 20.3193 17.138ZM13.6717 4.99247C12.8685 3.66917 10.9778 3.66918 10.1746 4.99247L3.00248 16.8081C2.15641 18.202 3.1414 20 4.75104 20H19.0953C20.7049 20 21.6899 18.202 20.8438 16.8081L13.6717 4.99247Z" fill="#941100"/>
<path d="M11.7841 14.6893H12.4089L12.4993 10.5049H11.6936L11.7841 14.6893ZM12.6227 15.8692C12.6227 15.5763 12.4007 15.3504 12.1294 15.3504C11.8416 15.3504 11.6196 15.5763 11.6196 15.8692C11.6196 16.1621 11.8416 16.3881 12.1294 16.3881C12.4007 16.3881 12.6227 16.1621 12.6227 15.8692Z" fill="#941100"/>
</svg>
