<svg width="24" height="24" viewBox="0 0 24 24" fill="none" xmlns="http://www.w3.org/2000/svg">
<path fill-rule="evenodd" clip-rule="evenodd" d="M10.5 7V21C10.5 21.2761 10.7239 21.5 11 21.5H14C14.2761 21.5 14.5 21.2761 14.5 21V7H15.5V21C15.5 21.8284 14.8284 22.5 14 22.5H11C10.1716 22.5 9.5 21.8284 9.5 21V7H10.5Z" fill="#474E5D"/>
<path fill-rule="evenodd" clip-rule="evenodd" d="M21.5 1.5L21.5 8L20.5 8L20.5 2.5L10.1 2.5L4.5 4.83333L4.5 8L3.5 8L3.5 4.16667L9.9 1.5L21.5 1.5Z" fill="#474E5D"/>
<path fill-rule="evenodd" clip-rule="evenodd" d="M10 8H4V7H10V8Z" fill="#474E5D"/>
<path fill-rule="evenodd" clip-rule="evenodd" d="M21 8H15V7H21V8Z" fill="#474E5D"/>
<path fill-rule="evenodd" clip-rule="evenodd" d="M17 7V2H18V7H17Z" fill="#474E5D"/>
</svg>
