<svg width="24" height="24" viewBox="0 0 24 24" fill="none" xmlns="http://www.w3.org/2000/svg">
<path fill-rule="evenodd" clip-rule="evenodd" d="M12 3.5C7.30558 3.5 3.5 7.30558 3.5 12C3.5 16.6944 7.30558 20.5 12 20.5C16.6944 20.5 20.5 16.6944 20.5 12C20.5 7.30558 16.6944 3.5 12 3.5ZM2.5 12C2.5 6.75329 6.75329 2.5 12 2.5C17.2467 2.5 21.5 6.75329 21.5 12C21.5 17.2467 17.2467 21.5 12 21.5C6.75329 21.5 2.5 17.2467 2.5 12Z" fill="#474E5D"/>
<path fill-rule="evenodd" clip-rule="evenodd" d="M16.1696 7.83068C16.3035 7.9646 16.3503 8.16268 16.2904 8.34235L14.3824 14.0663C14.3326 14.2156 14.2154 14.3328 14.0661 14.3826L8.34215 16.2906C8.16248 16.3505 7.9644 16.3037 7.83048 16.1698C7.69657 16.0359 7.6498 15.8378 7.70969 15.6581L9.61769 9.93412C9.66746 9.78482 9.78462 9.66766 9.93392 9.61789L15.6579 7.70989C15.8376 7.65 16.0357 7.69676 16.1696 7.83068ZM10.4873 10.4875L8.9746 15.0257L13.5127 13.5129L15.0255 8.9748L10.4873 10.4875Z" fill="#474E5D"/>
</svg>
