<svg width="75" height="75" viewBox="0 0 75 75" fill="none" xmlns="http://www.w3.org/2000/svg">
<path d="M37.5 68.75C54.7589 68.75 68.75 54.7589 68.75 37.5C68.75 20.2411 54.7589 6.25 37.5 6.25C20.2411 6.25 6.25 20.2411 6.25 37.5C6.25 54.7589 20.2411 68.75 37.5 68.75Z" fill="white"/>
<path fill-rule="evenodd" clip-rule="evenodd" d="M37.5 6.75C20.5172 6.75 6.75 20.5172 6.75 37.5C6.75 54.4828 20.5172 68.25 37.5 68.25C54.4828 68.25 68.25 54.4828 68.25 37.5C68.25 20.5172 54.4828 6.75 37.5 6.75ZM5.75 37.5C5.75 19.965 19.965 5.75 37.5 5.75C55.035 5.75 69.25 19.965 69.25 37.5C69.25 55.035 55.035 69.25 37.5 69.25C19.965 69.25 5.75 55.035 5.75 37.5Z" fill="#333333"/>
<path fill-rule="evenodd" clip-rule="evenodd" d="M24.2929 36.7929C24.6834 36.4024 25.3166 36.4024 25.7071 36.7929L37.5 48.5858L49.2929 36.7929C49.6834 36.4024 50.3166 36.4024 50.7071 36.7929C51.0976 37.1834 51.0976 37.8166 50.7071 38.2071L38.2071 50.7071C38.0196 50.8946 37.7652 51 37.5 51C37.2348 51 36.9804 50.8946 36.7929 50.7071L24.2929 38.2071C23.9024 37.8166 23.9024 37.1834 24.2929 36.7929Z" fill="#2B2826"/>
<path fill-rule="evenodd" clip-rule="evenodd" d="M37.5 24C38.0523 24 38.5 24.4477 38.5 25V50C38.5 50.5523 38.0523 51 37.5 51C36.9477 51 36.5 50.5523 36.5 50V25C36.5 24.4477 36.9477 24 37.5 24Z" fill="#2B2826"/>
</svg>
