<svg width="75" height="75" viewBox="0 0 75 75" fill="none" xmlns="http://www.w3.org/2000/svg">
<path d="M37.5 68.75C54.7589 68.75 68.75 54.7589 68.75 37.5C68.75 20.2411 54.7589 6.25 37.5 6.25C20.2411 6.25 6.25 20.2411 6.25 37.5C6.25 54.7589 20.2411 68.75 37.5 68.75Z" fill="white"/>
<path fill-rule="evenodd" clip-rule="evenodd" d="M37.5 6.75C20.5172 6.75 6.75 20.5172 6.75 37.5C6.75 54.4828 20.5172 68.25 37.5 68.25C54.4828 68.25 68.25 54.4828 68.25 37.5C68.25 20.5172 54.4828 6.75 37.5 6.75ZM5.75 37.5C5.75 19.965 19.965 5.75 37.5 5.75C55.035 5.75 69.25 19.965 69.25 37.5C69.25 55.035 55.035 69.25 37.5 69.25C19.965 69.25 5.75 55.035 5.75 37.5Z" fill="#333333"/>
<g clip-path="url(#clip0)">
<path d="M35.8125 27.0625C35.5719 27.0625 35.375 27.2594 35.375 27.5V30.5625H28.8125C28.5719 30.5625 28.375 30.7594 28.375 31V34.0625H25.3125C25.0719 34.0625 24.875 34.2594 24.875 34.5V37.5625H24.5785C24.3742 37.5625 24.1967 37.7039 24.1512 37.9034C24.1184 38.0491 23.3708 41.5012 25.4791 44.3848C27.0069 46.4738 29.6135 47.6912 33.2259 48.0018C33.6993 48.043 34.1567 48.0625 34.6025 48.0625C43.325 48.0625 46.8226 40.5932 47.4985 38.9075C50.9285 39.1818 51.963 36.4254 51.9735 36.397C52.0348 36.2268 51.9844 36.0357 51.847 35.9176C50.5 34.7582 49.1734 34.7373 48.2607 35.0212C48.353 33.0171 46.2495 31.581 46.1467 31.5118C46.05 31.4467 45.9311 31.4229 45.8177 31.446C45.7036 31.4688 45.6035 31.5352 45.5392 31.6323C43.7511 34.326 44.4687 36.2855 44.8992 37.0515C44.2079 37.577 43.315 37.5638 43.2927 37.5625H43.25V34.5C43.25 34.2594 43.0531 34.0625 42.8125 34.0625H39.75V27.5C39.75 27.2594 39.5531 27.0625 39.3125 27.0625H35.8125ZM36.25 27.9375H38.875V30.5625H36.25V27.9375ZM29.25 31.4375H35.375V34.0625H32.75V32.75C32.75 32.5085 32.554 32.3125 32.3125 32.3125C32.071 32.3125 31.875 32.5085 31.875 32.75V34.0625H29.25V31.4375ZM36.25 31.4375H38.875V37.5625H36.25V34.9375H37.5625C37.8031 34.9375 38 34.7406 38 34.5C38 34.2594 37.8031 34.0625 37.5625 34.0625H36.25V31.4375ZM46.0194 32.5176C46.6376 33.0487 47.7874 34.2711 47.2388 35.6501C47.1661 35.8326 47.2253 36.0404 47.3815 36.1594C47.5376 36.2784 47.7559 36.2771 47.9121 36.1586C47.9716 36.1135 49.3215 35.1195 51.0199 36.3756C50.6861 36.9789 49.6587 38.3237 47.2687 38.0034C47.0574 37.975 46.8601 38.1 46.7944 38.2999C46.7638 38.3931 43.7588 47.1875 34.5923 47.1866C34.1753 47.1862 33.7439 47.1683 33.3011 47.1302C29.956 46.8424 27.5638 45.7471 26.1909 43.8755C24.6763 41.8105 24.8303 39.3313 24.9493 38.4375H25.3125H42.8125C42.8155 38.4375 42.818 38.4359 42.821 38.4358H43.2799C43.3442 38.4384 44.8152 38.4706 45.7904 37.4215C45.94 37.2609 45.9466 37.014 45.8066 36.8447C45.7922 36.8277 44.4763 35.1828 46.0194 32.5176ZM25.75 34.9375H28.375V37.5625H25.75V34.9375ZM29.25 34.9375H31.875V37.5625H29.25V34.9375ZM32.75 34.9375H35.375V37.5625H32.75V34.9375ZM39.75 34.9375H42.375V37.5625H39.75V34.9375ZM29.4687 40.625C29.1787 40.625 28.9005 40.7402 28.6953 40.9454C28.4902 41.1505 28.375 41.4287 28.375 41.7188C28.375 42.0088 28.4902 42.287 28.6953 42.4921C28.9005 42.6973 29.1787 42.8125 29.4687 42.8125C29.7588 42.8125 30.037 42.6973 30.2421 42.4921C30.4473 42.287 30.5625 42.0088 30.5625 41.7188C30.5625 41.4287 30.4473 41.1505 30.2421 40.9454C30.037 40.7402 29.7588 40.625 29.4687 40.625ZM42.5006 40.848C42.389 40.8573 42.2805 40.9091 42.2024 41.001C42.0462 41.1856 42.0695 41.4617 42.2537 41.6179L42.9202 42.1844C43.0024 42.254 43.1028 42.2878 43.203 42.2878C43.3272 42.2878 43.45 42.2351 43.5371 42.1332C43.6933 41.9486 43.6709 41.6724 43.4867 41.5162L42.8193 40.9506C42.727 40.8722 42.6122 40.8387 42.5006 40.848ZM41.0668 42.3348C40.9554 42.3232 40.84 42.3544 40.7463 42.4305C40.5586 42.5824 40.53 42.8572 40.6822 43.0449L41.2325 43.7251C41.3187 43.8323 41.4453 43.8875 41.5726 43.8875C41.6693 43.8875 41.7664 43.8552 41.8478 43.7892C42.0355 43.6374 42.0641 43.3616 41.9119 43.174L41.3616 42.4946C41.2854 42.4008 41.1781 42.3465 41.0668 42.3348ZM39.2228 43.4858C39.1661 43.4899 39.1091 43.5053 39.0553 43.5328C38.8396 43.6426 38.7545 43.9063 38.8639 44.1216L39.2612 44.9017C39.3382 45.0531 39.4916 45.1401 39.6509 45.1401C39.7178 45.1401 39.7857 45.1251 39.8491 45.0931C40.0648 44.9833 40.1499 44.7196 40.0405 44.5044L39.644 43.7251C39.5617 43.5637 39.3928 43.4738 39.2228 43.4858ZM37.3463 44.2327C37.2901 44.2243 37.2312 44.2271 37.1728 44.2421C36.9388 44.3024 36.7989 44.5404 36.8592 44.7744L37.078 45.6221C37.1292 45.8194 37.3063 45.9502 37.501 45.9502C37.5373 45.9502 37.574 45.9461 37.6103 45.9365C37.8444 45.8761 37.9852 45.6374 37.9248 45.4033L37.706 44.5557C37.6608 44.3804 37.5149 44.2578 37.3463 44.2327ZM35.1699 44.5411C34.9284 44.5534 34.7432 44.7585 34.7555 45L34.7999 45.8741C34.8117 46.1078 35.0051 46.2894 35.2366 46.2894C35.244 46.2894 35.2513 46.2886 35.2588 46.2886C35.5003 46.2763 35.6863 46.0712 35.6741 45.8297L35.6288 44.9556C35.6165 44.7141 35.407 44.5302 35.1699 44.5411Z" fill="#303C42"/>
</g>
<defs>
<clipPath id="clip0">
<rect width="28" height="28" fill="white" transform="translate(24 24)"/>
</clipPath>
</defs>
</svg>
