<svg width="130" height="130" viewBox="0 0 130 130" fill="none" xmlns="http://www.w3.org/2000/svg">
<rect width="130" height="130" fill="white"/>
<path d="M84.6958 75.7081C85.8932 72.0229 91.1068 72.0229 92.3042 75.7081L93.1025 78.1651C93.638 79.8132 95.1739 80.929 96.9068 80.929H99.4902C103.365 80.929 104.976 85.8875 101.841 88.1651L99.7513 89.6836C98.3493 90.7021 97.7627 92.5076 98.2982 94.1557L99.0965 96.6127C100.294 100.298 96.076 103.362 92.9411 101.085L90.8511 99.5663C89.4492 98.5477 87.5508 98.5477 86.1489 99.5663L84.0589 101.085C80.924 103.362 76.7061 100.298 77.9035 96.6127L78.7018 94.1557C79.2373 92.5076 78.6507 90.7021 77.2487 89.6836L75.1587 88.1651C72.0239 85.8875 73.635 80.929 77.5098 80.929H80.0932C81.8261 80.929 83.362 79.8132 83.8975 78.1651L84.6958 75.7081Z" fill="white"/>
<path fill-rule="evenodd" clip-rule="evenodd" d="M92.1515 78.4741L91.3532 76.0172C90.4551 73.2532 86.5449 73.2532 85.6468 76.0172L84.8485 78.4741C84.1791 80.5342 82.2594 81.929 80.0932 81.929H77.5098C74.6037 81.929 73.3954 85.6479 75.7465 87.3561L77.8365 88.8746C79.5889 90.1478 80.3222 92.4046 79.6529 94.4647L78.8545 96.9217C77.9565 99.6856 81.1199 101.984 83.4711 100.276L85.5611 98.7573C87.3135 97.4841 89.6865 97.4841 91.4389 98.7573L93.5289 100.276C95.8801 101.984 99.0435 99.6856 98.1455 96.9217L97.3471 94.4647C96.6778 92.4046 97.4111 90.1478 99.1635 88.8746L101.254 87.3561C103.605 85.6479 102.396 81.929 99.4902 81.929H96.9068C94.7406 81.929 92.8209 80.5342 92.1515 78.4741ZM92.3042 75.7081C91.1068 72.0229 85.8932 72.0229 84.6958 75.7081L83.8975 78.1651C83.362 79.8132 81.8261 80.929 80.0932 80.929H77.5098C73.635 80.929 72.0239 85.8875 75.1587 88.1651L77.2487 89.6836C78.6507 90.7021 79.2373 92.5076 78.7018 94.1557L77.9035 96.6127C76.7061 100.298 80.924 103.362 84.0589 101.085L86.1489 99.5663C87.5508 98.5477 89.4492 98.5477 90.8511 99.5663L92.9411 101.085C96.076 103.362 100.294 100.298 99.0965 96.6127L98.2982 94.1557C97.7627 92.5076 98.3493 90.7021 99.7513 89.6836L101.841 88.1651C104.976 85.8875 103.365 80.929 99.4902 80.929H96.9068C95.1739 80.929 93.638 79.8132 93.1025 78.1651L92.3042 75.7081Z" fill="#CDC1B3"/>
<path d="M34.5359 77C36.0755 74.3333 39.9245 74.3333 41.4641 77L51.8564 95C53.396 97.6667 51.4715 101 48.3923 101H27.6077C24.5285 101 22.604 97.6667 24.1436 95L34.5359 77Z" fill="white"/>
<path fill-rule="evenodd" clip-rule="evenodd" d="M50.9904 95.5L40.5981 77.5C39.4434 75.5 36.5566 75.5 35.4019 77.5L25.0096 95.5C23.8549 97.5 25.2983 100 27.6077 100H48.3923C50.7017 100 52.1451 97.5 50.9904 95.5ZM41.4641 77C39.9245 74.3333 36.0755 74.3333 34.5359 77L24.1436 95C22.604 97.6667 24.5285 101 27.6077 101H48.3923C51.4715 101 53.396 97.6667 51.8564 95L41.4641 77Z" fill="#CDC1B3"/>
<path d="M54 34C54 42.8366 46.8366 50 38 50C29.1634 50 22 42.8366 22 34C22 25.1634 29.1634 18 38 18C46.8366 18 54 25.1634 54 34Z" fill="white"/>
<path fill-rule="evenodd" clip-rule="evenodd" d="M38 49C46.2843 49 53 42.2843 53 34C53 25.7157 46.2843 19 38 19C29.7157 19 23 25.7157 23 34C23 42.2843 29.7157 49 38 49ZM38 50C46.8366 50 54 42.8366 54 34C54 25.1634 46.8366 18 38 18C29.1634 18 22 25.1634 22 34C22 42.8366 29.1634 50 38 50Z" fill="#CDC1B3"/>
<path d="M73.1547 36C72.4402 34.7624 72.4402 33.2376 73.1547 32L78.8453 22.1436C79.5598 20.906 80.8803 20.1436 82.3094 20.1436H93.6906C95.1197 20.1436 96.4402 20.906 97.1547 22.1436L102.845 32C103.56 33.2376 103.56 34.7624 102.845 36L97.1547 45.8564C96.4402 47.094 95.1197 47.8564 93.6906 47.8564H82.3094C80.8803 47.8564 79.5598 47.094 78.8453 45.8564L73.1547 36Z" fill="white"/>
<path fill-rule="evenodd" clip-rule="evenodd" d="M79.7113 22.6436L74.0207 32.5C73.4848 33.4282 73.4848 34.5718 74.0207 35.5L79.7113 45.3564C80.2472 46.2846 81.2376 46.8564 82.3094 46.8564H93.6906C94.7624 46.8564 95.7528 46.2846 96.2887 45.3564L101.979 35.5C102.515 34.5718 102.515 33.4282 101.979 32.5L96.2887 22.6436C95.7528 21.7154 94.7624 21.1436 93.6906 21.1436H82.3094C81.2376 21.1436 80.2472 21.7154 79.7113 22.6436ZM73.1547 32C72.4402 33.2376 72.4402 34.7624 73.1547 36L78.8453 45.8564C79.5598 47.094 80.8803 47.8564 82.3094 47.8564H93.6906C95.1197 47.8564 96.4402 47.094 97.1547 45.8564L102.845 36C103.56 34.7624 103.56 33.2376 102.845 32L97.1547 22.1436C96.4402 20.906 95.1197 20.1436 93.6906 20.1436H82.3094C80.8803 20.1436 79.5598 20.906 78.8453 22.1436L73.1547 32Z" fill="#CDC1B3"/>
</svg>
