<svg width="114" height="113" viewBox="0 0 114 113" fill="none" xmlns="http://www.w3.org/2000/svg">
<path fill-rule="evenodd" clip-rule="evenodd" d="M18.3333 16.8125C16.1674 16.8125 14.0902 17.6729 12.5586 19.2045C11.0271 20.736 10.1667 22.8132 10.1667 24.9792V89.1458C10.1667 91.3118 11.0271 93.389 12.5586 94.9205C14.0902 96.4521 16.1674 97.3125 18.3333 97.3125H91.6667C93.8326 97.3125 95.9098 96.4521 97.4414 94.9205C98.9729 93.389 99.8333 91.3118 99.8333 89.1458V38.7292C99.8333 36.5632 98.9729 34.486 97.4414 32.9545C95.9098 31.4229 93.8326 30.5625 91.6667 30.5625H50.4167C50.0823 30.5625 49.7701 30.3954 49.5846 30.1172L40.7148 16.8125H18.3333ZM11.1444 17.7902C13.051 15.8836 15.637 14.8125 18.3333 14.8125H41.25C41.5843 14.8125 41.8966 14.9796 42.082 15.2578L50.9518 28.5625H91.6667C94.363 28.5625 96.949 29.6336 98.8556 31.5402C100.762 33.4469 101.833 36.0328 101.833 38.7292V89.1458C101.833 91.8422 100.762 94.4281 98.8556 96.3348C96.949 98.2414 94.363 99.3125 91.6667 99.3125H18.3333C15.637 99.3125 13.051 98.2414 11.1444 96.3348C9.23778 94.4281 8.16666 91.8422 8.16666 89.1458V24.9792C8.16666 22.2828 9.23778 19.6969 11.1444 17.7902Z" fill="#474E5D"/>
<path fill-rule="evenodd" clip-rule="evenodd" d="M32 45.5625C33.3807 45.5625 34.5 46.6818 34.5 48.0625C34.5 50.1156 36.7103 52.5625 40.5 52.5625C44.2897 52.5625 46.5 50.1156 46.5 48.0625C46.5 46.6818 47.6193 45.5625 49 45.5625C50.3807 45.5625 51.5 46.6818 51.5 48.0625C51.5 53.7414 46.0991 57.5625 40.5 57.5625C34.9009 57.5625 29.5 53.7414 29.5 48.0625C29.5 46.6818 30.6193 45.5625 32 45.5625Z" fill="#474E5D"/>
<path fill-rule="evenodd" clip-rule="evenodd" d="M61 45.5625C62.3807 45.5625 63.5 46.6818 63.5 48.0625C63.5 50.1156 65.7103 52.5625 69.5 52.5625C73.2897 52.5625 75.5 50.1156 75.5 48.0625C75.5 46.6818 76.6193 45.5625 78 45.5625C79.3807 45.5625 80.5 46.6818 80.5 48.0625C80.5 53.7414 75.0991 57.5625 69.5 57.5625C63.9009 57.5625 58.5 53.7414 58.5 48.0625C58.5 46.6818 59.6193 45.5625 61 45.5625Z" fill="#474E5D"/>
<path d="M92.25 14.2383H100.852V17.0625H87.8555V15L96.293 2.84766H87.8672V0H100.664V2.01562L92.25 14.2383Z" fill="#474E5D"/>
<path d="M109.625 28.6504H113.926V30.0625H107.428V29.0312L111.646 22.9551H107.434V21.5312H113.832V22.5391L109.625 28.6504Z" fill="#474E5D"/>
<path d="M60 75.0625C60 77.2716 58.2091 79.0625 56 79.0625C53.7909 79.0625 52 77.2716 52 75.0625C52 72.8534 53.7909 71.0625 56 71.0625C58.2091 71.0625 60 72.8534 60 75.0625Z" fill="#474E5D"/>
</svg>
