<svg width="106" height="108" viewBox="0 0 106 108" fill="none" xmlns="http://www.w3.org/2000/svg">
<path d="M99.1927 7.82801C94.8417 3.47701 89.0574 1.08105 82.9051 1.08105C76.752 1.08105 70.9677 3.47701 66.6175 7.82801L46.8858 27.5589C45.9443 28.4996 45.9443 30.0255 46.8858 30.9669C47.8272 31.9084 49.3523 31.9084 50.2938 30.9669L70.0255 11.236C73.4656 7.79585 78.0395 5.90121 82.9051 5.90121C87.77 5.90121 92.3438 7.79585 95.7847 11.236C102.886 18.3376 102.886 29.8929 95.7847 36.9953L76.053 56.7262C75.1116 57.6669 75.1116 59.1928 76.053 60.1342C76.5237 60.6049 77.1404 60.8403 77.757 60.8403C78.3737 60.8403 78.9903 60.6049 79.461 60.1342L99.1927 40.4033C108.174 31.422 108.173 16.8085 99.1927 7.82801Z" fill="black"/>
<path d="M6.73598 100.284C11.087 104.635 16.8713 107.031 23.0236 107.031C29.1767 107.031 34.961 104.635 39.3112 100.284L59.0429 80.5533C59.9844 79.6127 59.9844 78.0867 59.0429 77.1453C58.1015 76.2039 56.5764 76.2039 55.6349 77.1453L35.9032 96.8762C32.4631 100.316 27.8893 102.211 23.0236 102.211C18.1587 102.211 13.5849 100.316 10.144 96.8762C3.04241 89.7747 3.04241 78.2193 10.144 71.1178L29.8757 51.386C30.8171 50.4454 30.8171 48.9187 29.8757 47.978C28.9343 47.0366 27.4091 47.0366 26.4677 47.978L6.73598 67.7098C-2.24533 76.6903 -2.24533 91.3037 6.73598 100.284Z" fill="black"/>
<path d="M71.8966 78.7725C70.6955 79.3467 70.1887 80.7863 70.763 81.9867L79.8824 101.041C80.2966 101.907 81.1588 102.412 82.0579 102.412C82.407 102.412 82.7608 102.336 83.0966 102.175C84.2977 101.601 84.8045 100.161 84.2302 98.9608L75.1108 79.9061C74.535 78.705 73.0985 78.1966 71.8966 78.7725Z" fill="black"/>
<path d="M35.7872 22.7647C36.1363 22.7647 36.4901 22.6886 36.8259 22.5278C38.027 21.9535 38.5338 20.5139 37.9595 19.3136L29.3721 1.3706C28.797 0.169484 27.359 -0.338107 26.1579 0.236954C24.9567 0.81123 24.4499 2.25084 25.0242 3.45117L33.6117 21.3942C34.0259 22.2595 34.8881 22.7647 35.7872 22.7647Z" fill="black"/>
<path d="M6.40646 20.051C5.20613 19.4775 3.76809 19.9874 3.19381 21.1878C2.62032 22.3889 3.1287 23.8269 4.3306 24.4004L22.629 33.1354C22.964 33.2954 23.317 33.3715 23.6653 33.3715C24.5652 33.3715 25.4282 32.8647 25.8416 31.9986C26.4151 30.7975 25.9067 29.3594 24.7048 28.7859L6.40646 20.051Z" fill="black"/>
<path d="M97.9527 83.3572C98.8525 83.3572 99.7155 82.8504 100.129 81.9843C100.702 80.7832 100.194 79.3451 98.9922 78.7716L83.0945 71.1821C81.8941 70.6086 80.4561 71.117 79.8818 72.3189C79.3083 73.52 79.8167 74.958 81.0186 75.5315L96.9163 83.1211C97.2513 83.2811 97.6043 83.3572 97.9527 83.3572Z" fill="black"/>
</svg>
