<svg width="65" height="65" viewBox="0 0 65 65" fill="none" xmlns="http://www.w3.org/2000/svg">
<path fill-rule="evenodd" clip-rule="evenodd" d="M9.44077 10.5966C8.87433 11.3608 8.48427 12.4798 8.48427 13.782V50.218C8.48427 51.5049 8.87483 52.6251 9.44448 53.3949C10.0156 54.1668 10.7 54.5157 11.3329 54.5157H30.0643C30.7065 54.5157 31.3898 54.1678 31.9564 53.4034C32.5228 52.6392 32.9129 51.5202 32.9129 50.218C32.9129 49.5319 33.469 48.9758 34.155 48.9758C34.841 48.9758 35.3971 49.5319 35.3971 50.218C35.3971 51.9962 34.868 53.6471 33.9522 54.8827C33.0365 56.1182 31.6744 57 30.0643 57H11.3329C9.72163 57 8.36065 56.1068 7.44746 54.8726C6.53276 53.6364 6 51.9867 6 50.218V13.782C6 12.0038 6.52911 10.3529 7.44496 9.11726C8.36066 7.88182 9.72272 7 11.3329 7H30.0643C31.6755 7 33.0365 7.89324 33.9497 9.12739C34.8644 10.3636 35.3971 12.0133 35.3971 13.782C35.3971 14.4681 34.841 15.0242 34.155 15.0242C33.469 15.0242 32.9129 14.4681 32.9129 13.782C32.9129 12.4951 32.5223 11.3749 31.9527 10.6051C31.3815 9.83316 30.6971 9.48427 30.0643 9.48427H11.3329C10.6907 9.48427 10.0073 9.83216 9.44077 10.5966Z" fill="black"/>
<path fill-rule="evenodd" clip-rule="evenodd" d="M19.9285 32C19.9285 31.314 20.4846 30.7579 21.1706 30.7579H55.5197C56.2057 30.7579 56.7619 31.314 56.7619 32C56.7619 32.686 56.2057 33.2421 55.5197 33.2421H21.1706C20.4846 33.2421 19.9285 32.686 19.9285 32Z" fill="black"/>
<path fill-rule="evenodd" clip-rule="evenodd" d="M42.4519 18.3526C42.937 17.8675 43.7235 17.8675 44.2086 18.3526L56.9777 31.1217C57.4628 31.6068 57.4628 32.3933 56.9777 32.8783C56.4926 33.3634 55.7062 33.3634 55.2211 32.8783L42.4519 20.1092C41.9669 19.6241 41.9669 18.8376 42.4519 18.3526Z" fill="black"/>
<path fill-rule="evenodd" clip-rule="evenodd" d="M56.9777 31.1217C57.4628 31.6068 57.4628 32.3932 56.9777 32.8783L44.2086 45.6475C43.7235 46.1325 42.937 46.1325 42.4519 45.6475C41.9669 45.1624 41.9669 44.3759 42.4519 43.8908L55.2211 31.1217C55.7062 30.6366 56.4926 30.6366 56.9777 31.1217Z" fill="black"/>
</svg>
