<svg version="1.1" xmlns="http://www.w3.org/2000/svg" width="36" height="32" viewBox="0 0 36 32">
<path stroke-linejoin="miter" stroke-linecap="butt" stroke-miterlimit="4" stroke-width="2" stroke="#000" fill="#000" d="M2.333 10.002v-0c-0-2.148 0.863-4.205 2.395-5.71s3.606-2.33 5.753-2.29v0l0.024-0c2.576-0.014 5.033 1.079 6.749 2.999l0.746 0.835 0.746-0.835c1.716-1.921 4.173-3.013 6.749-2.999v0l0.024-0c2.147-0.040 4.22 0.785 5.753 2.29s2.396 3.562 2.395 5.71v0c0 4.057-2.42 7.729-5.783 11.146-1.669 1.696-3.531 3.29-5.37 4.806-0.525 0.433-1.050 0.861-1.569 1.284-1.027 0.837-2.026 1.651-2.942 2.436-0.958-0.828-2.008-1.687-3.086-2.568-0.472-0.386-0.948-0.775-1.425-1.169-1.839-1.518-3.702-3.111-5.372-4.804-3.365-3.411-5.787-7.072-5.787-11.131z"></path>
</svg>
