<svg width="24" height="24" viewBox="0 0 24 24" fill="none" xmlns="http://www.w3.org/2000/svg">
<path fill-rule="evenodd" clip-rule="evenodd" d="M5.15407 3.17867C5.57487 2.74584 6.14865 2.5 6.75 2.5H13.75C13.885 2.5 14.0144 2.55463 14.1085 2.65146L19.3585 8.05146C19.4492 8.14479 19.5 8.26983 19.5 8.4V19.2C19.5 19.8055 19.2663 20.389 18.8459 20.8213C18.4251 21.2542 17.8514 21.5 17.25 21.5H6.75C6.14864 21.5 5.57487 21.2542 5.15407 20.8213C4.73373 20.389 4.5 19.8055 4.5 19.2V4.8C4.5 4.19448 4.73373 3.61101 5.15407 3.17867ZM6.75 3.5C6.4231 3.5 6.10664 3.63344 5.87106 3.87575C5.63502 4.11853 5.5 4.45074 5.5 4.8V19.2C5.5 19.5493 5.63502 19.8815 5.87106 20.1243C6.10664 20.3666 6.4231 20.5 6.75 20.5H17.25C17.5769 20.5 17.8934 20.3666 18.1289 20.1243C18.365 19.8815 18.5 19.5493 18.5 19.2V8.60299L13.5388 3.5H6.75Z" fill="#474E5D"/>
<path fill-rule="evenodd" clip-rule="evenodd" d="M14 3C14.2761 2.99999 14.5 3.22385 14.5 3.49999L14.5001 8.5H18.5C18.7761 8.5 19 8.72386 19 9C19 9.27614 18.7761 9.5 18.5 9.5H14.0001C13.724 9.5 13.5001 9.27615 13.5001 9.00001L13.5 3.50001C13.5 3.22387 13.7238 3.00001 14 3Z" fill="#474E5D"/>
<path fill-rule="evenodd" clip-rule="evenodd" d="M7.50012 14C7.50012 13.7239 7.72398 13.5 8.00012 13.5H16.0001C16.2763 13.5 16.5001 13.7239 16.5001 14C16.5001 14.2761 16.2763 14.5 16.0001 14.5H8.00012C7.72398 14.5 7.50012 14.2761 7.50012 14Z" fill="#474E5D"/>
<path fill-rule="evenodd" clip-rule="evenodd" d="M7.50012 17C7.50012 16.7239 7.72398 16.5 8.00012 16.5H16.0001C16.2763 16.5 16.5001 16.7239 16.5001 17C16.5001 17.2761 16.2763 17.5 16.0001 17.5H8.00012C7.72398 17.5 7.50012 17.2761 7.50012 17Z" fill="#474E5D"/>
<path fill-rule="evenodd" clip-rule="evenodd" d="M7.50012 11C7.50012 10.7239 7.72398 10.5 8.00012 10.5H9.00012C9.27626 10.5 9.50012 10.7239 9.50012 11C9.50012 11.2761 9.27626 11.5 9.00012 11.5H8.00012C7.72398 11.5 7.50012 11.2761 7.50012 11Z" fill="#474E5D"/>
</svg>
