<svg width="28" height="28" viewBox="0 0 28 28" fill="none" xmlns="http://www.w3.org/2000/svg">
<circle cx="14" cy="14" r="12" fill="#2B2826"/>
<path d="M11.5723 12.435H12.6903C12.6903 11.421 13.3533 10.81 14.4193 10.81C15.4723 10.81 16.1483 11.46 16.1483 12.5C16.1483 14.073 14.8873 14.359 13.4053 14.359H13.0283L13.0803 16.413H14.1073L14.1463 15.178C15.9663 15.178 17.2793 14.398 17.2793 12.5C17.2793 10.849 16.1093 9.822 14.4063 9.822C12.7033 9.822 11.5593 10.862 11.5723 12.435ZM14.3673 18.272C14.3673 17.817 14.0163 17.466 13.5873 17.466C13.1323 17.466 12.7813 17.817 12.7813 18.272C12.7813 18.727 13.1323 19.078 13.5873 19.078C14.0163 19.078 14.3673 18.727 14.3673 18.272Z" fill="white"/>
</svg>
