<svg width="24" height="24" viewBox="0 0 24 24" fill="none" xmlns="http://www.w3.org/2000/svg">
<path fill-rule="evenodd" clip-rule="evenodd" d="M12 20.25C16.5563 20.25 20.25 16.5563 20.25 12C20.25 7.44365 16.5563 3.75 12 3.75C7.44365 3.75 3.75 7.44365 3.75 12C3.75 16.5563 7.44365 20.25 12 20.25ZM12 21C16.9706 21 21 16.9706 21 12C21 7.02944 16.9706 3 12 3C7.02944 3 3 7.02944 3 12C3 16.9706 7.02944 21 12 21Z" fill="#474E5D"/>
<path fill-rule="evenodd" clip-rule="evenodd" d="M13.2616 14.9201C13.1551 14.8136 13.1551 14.6409 13.2616 14.5344L15.7961 12L13.2616 9.46557C13.1551 9.35907 13.1551 9.18639 13.2616 9.07988C13.3681 8.97337 13.5408 8.97337 13.6473 9.07988L16.3746 11.8072C16.4811 11.9137 16.4811 12.0863 16.3746 12.1928L13.6473 14.9201C13.5408 15.0266 13.3681 15.0266 13.2616 14.9201Z" fill="#474E5D"/>
<path fill-rule="evenodd" clip-rule="evenodd" d="M8 12C8 11.8494 8.14089 11.7273 8.31469 11.7273H15.8671C16.0409 11.7273 16.1818 11.8494 16.1818 12C16.1818 12.1506 16.0409 12.2727 15.8671 12.2727H8.31469C8.14089 12.2727 8 12.1506 8 12Z" fill="#474E5D"/>
</svg>
