<svg width="24" height="24" viewBox="0 0 24 24" fill="none" xmlns="http://www.w3.org/2000/svg">
<path fill-rule="evenodd" clip-rule="evenodd" d="M18.9189 12.7568C18.9189 14.9975 17.7223 16.9578 15.9381 18.0351C15.8914 18.0633 15.862 18.0958 15.8476 18.1187C15.841 18.1292 15.8386 18.1357 15.8378 18.1385V19.9459C15.8378 21.0804 14.9182 22 13.7838 22H11.7297C10.5953 22 9.67568 21.0804 9.67568 19.9459V18.1385C9.6749 18.1357 9.6725 18.1292 9.66591 18.1187C9.65147 18.0958 9.62209 18.0633 9.57537 18.0351C7.79121 16.9578 6.59459 14.9975 6.59459 12.7568C6.59459 9.35349 9.35349 6.59459 12.7568 6.59459C16.16 6.59459 18.9189 9.35349 18.9189 12.7568ZM15.4073 17.1559C15.0578 17.3669 14.8108 17.7284 14.8108 18.1367V19.9459C14.8108 20.5132 14.351 20.973 13.7838 20.973H11.7297C11.1625 20.973 10.7027 20.5132 10.7027 19.9459V18.1367C10.7027 17.7284 10.4557 17.3669 10.1062 17.1559C8.6172 16.2568 7.62162 14.623 7.62162 12.7568C7.62162 9.9207 9.9207 7.62162 12.7568 7.62162C15.5928 7.62162 17.8919 9.9207 17.8919 12.7568C17.8919 14.623 16.8963 16.2568 15.4073 17.1559Z" fill="#474E5D"/>
<path fill-rule="evenodd" clip-rule="evenodd" d="M5.56757 13.527C5.56757 13.9524 5.22271 14.2973 4.7973 14.2973H3.77027C3.34486 14.2973 3 13.9524 3 13.527C3 13.1016 3.34486 12.7568 3.77027 12.7568H4.7973C5.22271 12.7568 5.56757 13.1016 5.56757 13.527Z" fill="#474E5D"/>
<path fill-rule="evenodd" clip-rule="evenodd" d="M22 13.527C22 13.9524 21.6551 14.2973 21.2297 14.2973H20.2027C19.7773 14.2973 19.4324 13.9524 19.4324 13.527C19.4324 13.1016 19.7773 12.7568 20.2027 12.7568H21.2297C21.6551 12.7568 22 13.1016 22 13.527Z" fill="#474E5D"/>
<path fill-rule="evenodd" clip-rule="evenodd" d="M13.0135 5.56757C12.5881 5.56757 12.2432 5.22271 12.2432 4.7973V3.77027C12.2432 3.34486 12.5881 3 13.0135 3C13.4389 3 13.7838 3.34486 13.7838 3.77027V4.7973C13.7838 5.22271 13.4389 5.56757 13.0135 5.56757Z" fill="#474E5D"/>
<path fill-rule="evenodd" clip-rule="evenodd" d="M18.3743 8.5294C18.0734 8.22859 18.0734 7.74088 18.3743 7.44007L19.1005 6.71385C19.4013 6.41304 19.889 6.41304 20.1898 6.71385C20.4906 7.01466 20.4906 7.50237 20.1898 7.80318L19.4636 8.5294C19.1628 8.8302 18.6751 8.8302 18.3743 8.5294Z" fill="#474E5D"/>
<path fill-rule="evenodd" clip-rule="evenodd" d="M5.0852 6.04993C5.38601 5.74912 5.87372 5.74912 6.17453 6.04993L6.90075 6.77615C7.20156 7.07696 7.20156 7.56467 6.90075 7.86548C6.59994 8.16628 6.11223 8.16628 5.81142 7.86548L5.0852 7.13926C4.78439 6.83845 4.7844 6.35074 5.0852 6.04993Z" fill="#474E5D"/>
</svg>
