<svg width="24" height="24" viewBox="0 0 24 24" fill="none" xmlns="http://www.w3.org/2000/svg">
<path fill-rule="evenodd" clip-rule="evenodd" d="M14.6464 7.64645C14.8417 7.45118 15.1583 7.45118 15.3536 7.64645L19.3536 11.6464C19.5488 11.8417 19.5488 12.1583 19.3536 12.3536L15.3536 16.3536C15.1583 16.5488 14.8417 16.5488 14.6464 16.3536C14.4512 16.1583 14.4512 15.8417 14.6464 15.6464L18.2929 12L14.6464 8.35355C14.4512 8.15829 14.4512 7.84171 14.6464 7.64645Z" fill="#474E5D"/>
<path fill-rule="evenodd" clip-rule="evenodd" d="M9.5 12C9.5 11.7239 9.72386 11.5 10 11.5H19C19.2761 11.5 19.5 11.7239 19.5 12C19.5 12.2761 19.2761 12.5 19 12.5H10C9.72386 12.5 9.5 12.2761 9.5 12Z" fill="#474E5D"/>
<path fill-rule="evenodd" clip-rule="evenodd" d="M4.92934 7.29783C5.12461 7.10257 5.44119 7.10257 5.63645 7.29783L10.0333 11.6946C10.2285 11.8899 10.2285 12.2065 10.0333 12.4017L5.59617 16.8388C5.40091 17.0341 5.08433 17.0341 4.88907 16.8388C4.69381 16.6436 4.69381 16.327 4.88907 16.1317L8.9726 12.0482L4.92934 8.00494C4.73408 7.80967 4.73408 7.49309 4.92934 7.29783Z" fill="#474E5D"/>
</svg>
