<svg width="24" height="24" viewBox="0 0 24 24" fill="none" xmlns="http://www.w3.org/2000/svg">
<path d="M14.625 10.125H12.375V7.875H11.625V10.125H9.375V10.875H11.625V13.125H12.375V10.875H14.625V10.125Z" fill="#706E6B"/>
<path d="M20.9145 9.83059L19.875 8.63509V5.62571C19.875 5.00546 19.3699 4.49996 18.7496 4.49996H15.0424L13.2514 3.05621C12.5385 2.48059 11.4626 2.47946 10.749 3.05584L8.95762 4.49996H5.25038C4.63013 4.49996 4.125 5.00546 4.125 5.62571V8.95609L3.231 9.77846C2.84588 10.1325 2.625 10.6361 2.625 11.1592V19.5C2.625 20.5338 3.46688 21.375 4.50038 21.375H19.4993C20.5331 21.375 21.375 20.5335 21.375 19.5V11.0617C21.375 10.6095 21.2111 10.1722 20.9145 9.83059ZM20.3483 10.323C20.3509 10.326 20.3524 10.329 20.355 10.332L19.875 10.6383V9.77846L20.3483 10.323ZM11.2196 3.64009C11.6569 3.28721 12.3431 3.28684 12.7804 3.63971L13.8476 4.49996H10.1524L11.2196 3.64009ZM5.25038 5.24996H18.7493C18.9563 5.24996 19.125 5.41909 19.125 5.62571V11.1168L12.5839 15.2928C12.2156 15.5283 11.7386 15.5276 11.3704 15.2921L4.875 11.133V5.62571C4.875 5.41909 5.04375 5.24996 5.25038 5.24996ZM4.125 9.97534V10.6526L3.69675 10.3781C3.71175 10.3627 3.723 10.3451 3.73875 10.3305L4.125 9.97534ZM20.625 19.5C20.625 20.1202 20.1199 20.625 19.4996 20.625H4.50038C3.88013 20.625 3.375 20.1202 3.375 19.5V11.1592C3.375 11.1285 3.38213 11.0988 3.38475 11.0685L10.9661 15.9236C11.2732 16.1197 11.6257 16.2183 11.9779 16.2183C12.3289 16.2183 12.6806 16.1205 12.987 15.9247L20.6235 11.0497C20.6235 11.0538 20.625 11.0576 20.625 11.0617V19.5Z" fill="#706E6B"/>
<path d="M7.875 19.125H4.125V19.875H7.875V19.125Z" fill="#706E6B"/>
<path d="M7.125 17.625H4.125V18.375H7.125V17.625Z" fill="#706E6B"/>
</svg>
