<svg width="100" height="100" viewBox="0 0 100 100" fill="none" xmlns="http://www.w3.org/2000/svg">
<path d="M57.4943 38.4069L46.4533 28.7466C43.7553 26.3862 40.293 25.085 36.7087 25.085H29.5906H22.4726C18.8883 25.085 15.4261 26.3862 12.728 28.7466L1.68686 38.4069C-0.15949 40.0219 -0.539823 42.7475 0.792497 44.8069L9.13563 57.9412C10.3273 59.7842 12.7903 60.4895 14.6689 59.3542C16.6501 58.1565 17.1964 55.6685 16.0727 53.7979L11.3346 45.7545C10.5913 44.5155 10.9728 42.9089 12.1944 42.1365L15.5149 40.0379C16.2087 39.5989 17.1157 40.0909 17.1272 40.9115L18.0032 95.3889C18.0377 97.9452 20.1192 99.9992 22.6755 99.9992C25.2318 99.9992 27.3133 97.9452 27.3478 95.3889L27.8607 64.3665C27.863 64.2305 27.8745 64.0969 27.8976 63.9665C28.203 62.1765 30.9794 62.1765 31.2849 63.9665C31.3068 64.0969 31.3194 64.2305 31.3217 64.3665L31.8346 95.3889C31.8692 97.9452 33.9507 99.9992 36.507 99.9992C39.0633 99.9992 41.1447 97.9452 41.1793 95.3889L42.0553 40.9115C42.0667 40.0899 42.9727 39.5989 43.6677 40.0379L46.988 42.1365C48.2097 42.9089 48.5913 44.5142 47.8477 45.7532L43.262 53.3795C42.304 54.9769 42.4217 57.0709 43.7113 58.4149C45.522 60.3015 48.606 59.9972 50.019 57.8145L58.39 44.8059C59.721 42.7475 59.3397 40.0229 57.4943 38.4069Z" fill="#941100"/>
<path d="M29.5929 22.1677C35.7143 22.1677 40.6766 17.2053 40.6766 11.0838C40.6766 4.9624 35.7143 0 29.5929 0C23.4715 0 18.509 4.9624 18.509 11.0838C18.509 17.2053 23.4715 22.1677 29.5929 22.1677Z" fill="#941100"/>
<path d="M47.2983 23C76.3313 23 82.797 51.4338 98.6467 49.5322C98.6467 49.5322 98.219 67.5878 83.6627 71.6308C69.1063 75.6738 67.85 88.0498 67.85 88.0498C67.85 88.0498 62.8883 67.7052 53.8893 61.5288L64.6437 44.5752C66.2883 41.9832 65.772 38.5752 63.4337 36.5858L47.2983 23Z" fill="#941100"/>
</svg>
