<svg width="24" height="24" viewBox="0 0 24 24" fill="none" xmlns="http://www.w3.org/2000/svg">
<path fill-rule="evenodd" clip-rule="evenodd" d="M1.77639 6.55273L11.7764 1.55273L12 1.99995L12.2236 1.55273L22.2236 6.55273C22.393 6.63743 22.5 6.81056 22.5 6.99995C22.5 7.18933 22.393 7.36247 22.2236 7.44716L12.2236 12.4472C12.0828 12.5175 11.9172 12.5175 11.7764 12.4472L1.77639 7.44716C1.607 7.36247 1.5 7.18933 1.5 6.99995C1.5 6.81056 1.607 6.63743 1.77639 6.55273ZM12 2.55897L3.11803 6.99995L12 11.4409L20.882 6.99995L12 2.55897Z" fill="#474E5D"/>
<path fill-rule="evenodd" clip-rule="evenodd" d="M1.55277 16.7765C1.67627 16.5295 1.9766 16.4294 2.22359 16.5529L12 21.4411L21.7764 16.5529C22.0234 16.4294 22.3237 16.5295 22.4472 16.7765C22.5707 17.0235 22.4706 17.3238 22.2236 17.4473L12.2236 22.4473C12.0828 22.5177 11.9171 22.5177 11.7764 22.4473L1.77638 17.4473C1.52939 17.3238 1.42928 17.0235 1.55277 16.7765Z" fill="#474E5D"/>
<path fill-rule="evenodd" clip-rule="evenodd" d="M1.55277 11.7765C1.67627 11.5295 1.9766 11.4294 2.22359 11.5529L12 16.4411L21.7764 11.5529C22.0234 11.4294 22.3237 11.5295 22.4472 11.7765C22.5707 12.0235 22.4706 12.3238 22.2236 12.4473L12.2236 17.4473C12.0828 17.5177 11.9171 17.5177 11.7764 17.4473L1.77638 12.4473C1.52939 12.3238 1.42928 12.0235 1.55277 11.7765Z" fill="#474E5D"/>
</svg>
