<svg width="24" height="24" viewBox="0 0 24 24" fill="none" xmlns="http://www.w3.org/2000/svg">
<path d="M4.74858 19.3229C4.79585 19.3465 4.81948 19.3465 4.86674 19.3465C4.93764 19.3465 5.03217 19.2992 5.07943 19.2284L8.9314 12.8977L12.6888 15.4488C12.7597 15.4961 12.8306 15.4961 12.9015 15.4725C12.9724 15.4488 13.0197 15.4016 13.0433 15.3307L16.848 5.40947L20.5582 11.2441C20.6291 11.3622 20.7709 11.3858 20.8891 11.315C21.0072 11.2441 21.0309 11.1024 20.96 10.9843L16.9898 4.77167C16.9426 4.70081 16.848 4.65356 16.7771 4.65356C16.6826 4.65356 16.6117 4.72443 16.5881 4.7953L12.7125 14.8819L8.97867 12.3544C8.9314 12.3071 8.86051 12.3071 8.78961 12.3307C8.71872 12.3544 8.67145 12.378 8.64782 12.4488L4.67769 18.9921C4.60679 19.1103 4.65406 19.252 4.74858 19.3229Z" fill="#474E5D"/>
<path d="M3.23632 21H20.7474C20.8892 21 20.9838 20.9055 20.9838 20.7638C20.9838 20.622 20.8892 20.5276 20.7474 20.5276H3.47263V3.23622C3.47263 3.09449 3.37811 3 3.23632 3C3.09453 3 3 3.09449 3 3.23622V20.7402C3 20.8819 3.11816 21 3.23632 21Z" fill="#474E5D"/>
</svg>
