<svg width="24" height="24" viewBox="0 0 24 24" fill="none" xmlns="http://www.w3.org/2000/svg">
<path fill-rule="evenodd" clip-rule="evenodd" d="M3.5 3C3.77614 3 4 3.22386 4 3.5L4 20.5C4 20.7761 3.77614 21 3.5 21C3.22386 21 3 20.7761 3 20.5L3 3.5C3 3.22386 3.22386 3 3.5 3Z" fill="#474E5D"/>
<path fill-rule="evenodd" clip-rule="evenodd" d="M21 20.5C21 20.7761 20.7761 21 20.5 21L3.5 21C3.22386 21 3 20.7761 3 20.5C3 20.2239 3.22386 20 3.5 20L20.5 20C20.7761 20 21 20.2239 21 20.5Z" fill="#474E5D"/>
<path fill-rule="evenodd" clip-rule="evenodd" d="M9.96779 11.501C10.1113 11.4917 10.2519 11.5447 10.3535 11.6464L13.4019 14.6946L20.2307 3.37601C20.3734 3.13957 20.6807 3.06354 20.9171 3.20619C21.1536 3.34885 21.2296 3.65616 21.087 3.89261L13.9281 15.7581C13.8487 15.8897 13.7131 15.9775 13.5605 15.9961C13.4079 16.0147 13.2552 15.9621 13.1465 15.8533L10.0488 12.7558L6.05492 17.9395C5.88638 18.1582 5.57243 18.1989 5.35368 18.0304C5.13493 17.8618 5.09423 17.5479 5.26277 17.3291L9.60393 11.6948C9.6917 11.5808 9.82428 11.5102 9.96779 11.501Z" fill="#474E5D"/>
</svg>
