<svg width="24" height="24" viewBox="0 0 24 24" fill="none" xmlns="http://www.w3.org/2000/svg">
<path d="M14.88 4C12.0575 4 9.76 6.29625 9.76 9.12C9.76 9.7475 9.8825 10.3438 10.09 10.9L4.09 16.89L4 16.99V19.17L4.09 19.27L4.73 19.91L4.83 20H7.01L7.11 19.91L8.07 18.95L8.16 18.85V18.08H8.93L9.03 17.99L9.99 17.03L10.08 16.93V16.48H10.53L10.63 16.39L11.27 15.75L11.36 15.65V15.2H11.81L11.91 15.11L13.1 13.91C13.6562 14.1175 14.2525 14.24 14.88 14.24C17.7025 14.24 20 11.9425 20 9.12C20 6.29625 17.7025 4 14.88 4ZM14.88 4.64C17.3562 4.64 19.36 6.6425 19.36 9.12C19.36 11.5962 17.3562 13.6 14.88 13.6C14.265 13.6 13.6825 13.4837 13.15 13.26C13.1462 13.2562 13.1438 13.2537 13.14 13.25C11.5312 12.57 10.4 10.9775 10.4 9.12C10.4 6.6425 12.4038 4.64 14.88 4.64ZM14.88 5.6C13.9788 5.6 13.0763 5.94375 12.39 6.63L12.16 6.86L12.39 7.08L16.92 11.61L17.14 11.84L17.37 11.61C18.7425 10.2387 18.7425 8.00125 17.37 6.63C16.6838 5.94375 15.7812 5.6 14.88 5.6ZM14.88 6.24C15.6163 6.24 16.3562 6.51625 16.92 7.08C17.9675 8.1275 18 9.75875 17.1 10.89L13.11 6.9C13.6325 6.485 14.2475 6.24 14.88 6.24ZM10.36 11.53C10.8387 12.425 11.575 13.1613 12.47 13.64L11.54 14.56H10.72V15.38L10.26 15.84H9.44V16.66L8.66 17.44H7.52V18.58L6.74 19.36H5.1L4.78 19.04L10.08 13.74C10.195 13.6412 10.2262 13.4762 10.1537 13.3438C10.0812 13.21 9.925 13.1462 9.78 13.19C9.71875 13.2037 9.66375 13.235 9.62 13.28L4.64 18.27V17.26L10.36 11.53Z" fill="#474E5D"/>
</svg>
