<svg width="24" height="24" viewBox="0 0 24 24" fill="none" xmlns="http://www.w3.org/2000/svg">
<path fill-rule="evenodd" clip-rule="evenodd" d="M3.5 13C3.5 11.6193 4.61929 10.5 6 10.5H18C19.3807 10.5 20.5 11.6193 20.5 13V19C20.5 20.3807 19.3807 21.5 18 21.5H6C4.61929 21.5 3.5 20.3807 3.5 19V13ZM6 11.5C5.17157 11.5 4.5 12.1716 4.5 13V19C4.5 19.8284 5.17157 20.5 6 20.5H18C18.8284 20.5 19.5 19.8284 19.5 19V13C19.5 12.1716 18.8284 11.5 18 11.5H6Z" fill="#474E5D"/>
<path fill-rule="evenodd" clip-rule="evenodd" d="M6.5 8C6.5 4.96243 8.96243 2.5 12 2.5C15.0376 2.5 17.5 4.96243 17.5 8V11H16.5V8C16.5 5.51472 14.4853 3.5 12 3.5C9.51472 3.5 7.5 5.51472 7.5 8V11H6.5V8Z" fill="#474E5D"/>
</svg>
