<svg width="9" height="18" viewBox="0 0 9 18" fill="none" xmlns="http://www.w3.org/2000/svg">
<path d="M1.93548 10.6451C3.00442 10.6451 3.87097 9.77859 3.87097 8.70965C3.87097 7.64072 3.00442 6.77417 1.93548 6.77417C0.866546 6.77417 0 7.64072 0 8.70965C0 9.77859 0.866546 10.6451 1.93548 10.6451Z" fill="#C4C4C4"/>
<path d="M7.06451 10.6454C8.13345 10.6454 9 9.77884 9 8.7099C9 7.64096 8.13345 6.77441 7.06451 6.77441C5.99557 6.77441 5.12903 7.64096 5.12903 8.7099C5.12903 9.77884 5.99557 10.6454 7.06451 10.6454Z" fill="#C4C4C4"/>
<path d="M1.93548 3.87097C3.00442 3.87097 3.87097 3.00442 3.87097 1.93548C3.87097 0.866546 3.00442 0 1.93548 0C0.866546 0 0 0.866546 0 1.93548C0 3.00442 0.866546 3.87097 1.93548 3.87097Z" fill="#C4C4C4"/>
<path d="M7.06451 3.87097C8.13345 3.87097 9 3.00442 9 1.93548C9 0.866546 8.13345 0 7.06451 0C5.99557 0 5.12903 0.866546 5.12903 1.93548C5.12903 3.00442 5.99557 3.87097 7.06451 3.87097Z" fill="#C4C4C4"/>
<path d="M1.93548 17.4193C3.00442 17.4193 3.87097 16.5528 3.87097 15.4838C3.87097 14.4149 3.00442 13.5483 1.93548 13.5483C0.866546 13.5483 0 14.4149 0 15.4838C0 16.5528 0.866546 17.4193 1.93548 17.4193Z" fill="#C4C4C4"/>
<path d="M7.06451 17.4193C8.13345 17.4193 9 16.5528 9 15.4838C9 14.4149 8.13345 13.5483 7.06451 13.5483C5.99557 13.5483 5.12903 14.4149 5.12903 15.4838C5.12903 16.5528 5.99557 17.4193 7.06451 17.4193Z" fill="#C4C4C4"/>
</svg>
