<svg version="1.1" xmlns="http://www.w3.org/2000/svg" width="32" height="32" viewBox="0 0 32 32">
<path d="M15.778 0c-7.889 0-15.778 2.037-15.778 5.933v13.844c0 2.423 3.175 4.371 8.707 5.35l0.345-1.978c-5.197-0.89-7.080-2.512-7.080-3.372v-3.896c2.248 1.513 6.084 2.383 9.772 2.729l0.178-1.978c-6.784-0.623-9.95-2.621-9.95-3.778v-3.896c2.84 1.918 8.342 2.907 13.806 2.907s10.966-0.989 13.806-2.907v1.918h1.972v-4.944c0-3.896-7.889-5.933-15.778-5.933zM15.778 9.889c-8.431 0-13.806-2.344-13.806-3.956s5.374-3.956 13.806-3.956c8.431 0 13.806 2.344 13.806 3.956s-5.374 3.956-13.806 3.956z"></path>
<path d="M22.681 13.845c-1.755 0-3.471 0.522-4.931 1.5s-2.597 2.368-3.269 3.994c-0.672 1.626-0.847 3.416-0.505 5.142s1.188 3.312 2.429 4.557c1.241 1.245 2.823 2.092 4.544 2.436s3.506 0.167 5.128-0.506c1.622-0.674 3.008-1.814 3.983-3.278s1.496-3.184 1.496-4.945c0-2.36-0.935-4.624-2.599-6.293s-3.922-2.607-6.276-2.607zM22.681 29.667c-1.365 0-2.7-0.406-3.835-1.167s-2.020-1.842-2.542-3.107c-0.523-1.265-0.659-2.657-0.393-3.999s0.924-2.576 1.889-3.544 2.195-1.627 3.534-1.894c1.339-0.267 2.727-0.13 3.988 0.394s2.339 1.411 3.098 2.549 1.163 2.477 1.163 3.846c0 1.836-0.727 3.597-2.022 4.895s-3.050 2.027-4.881 2.027z"></path>
<path d="M23.667 17.8h-1.972v5.933h1.972v-5.933z"></path>
<path d="M23.667 25.711h-1.972v1.978h1.972v-1.978z"></path>
</svg>
