<svg width="24" height="24" viewBox="0 0 24 24" fill="none" xmlns="http://www.w3.org/2000/svg">
<path fill-rule="evenodd" clip-rule="evenodd" d="M20.9853 12C20.9853 12.2761 20.7614 12.5 20.4853 12.5H3.51472C3.23858 12.5 3.01472 12.2761 3.01472 12C3.01472 11.7239 3.23858 11.5 3.51472 11.5H20.4853C20.7614 11.5 20.9853 11.7239 20.9853 12Z" fill="#474E5D"/>
<path fill-rule="evenodd" clip-rule="evenodd" d="M12 3.01472C12.2761 3.01472 12.5 3.23858 12.5 3.51472L12.5 20.4853C12.5 20.7614 12.2761 20.9853 12 20.9853C11.7239 20.9853 11.5 20.7614 11.5 20.4853L11.5 3.51472C11.5 3.23858 11.7239 3.01472 12 3.01472Z" fill="#474E5D"/>
</svg>
