<svg width="24" height="24" viewBox="0 0 24 24" fill="none" xmlns="http://www.w3.org/2000/svg">
<path d="M9.23563 15.1668H13.6023C15.3974 15.1668 16.8583 13.6865 16.8583 11.8668V11.1334C16.8583 9.31366 15.3974 7.83343 13.6023 7.83343H11.5561L12.0239 8.30753C12.1653 8.45089 12.1653 8.68263 12.0239 8.82599C11.9533 8.89749 11.8607 8.93343 11.7681 8.93343C11.6755 8.93343 11.5829 8.89749 11.5123 8.82599L10.4273 7.72636C10.3937 7.69263 10.3673 7.65193 10.3488 7.60683C10.3119 7.51736 10.3119 7.41616 10.3488 7.32669C10.3673 7.28159 10.3937 7.24089 10.4273 7.20716L11.5123 6.10752C11.6538 5.96416 11.8824 5.96416 12.0239 6.10752C12.1653 6.25089 12.1653 6.48263 12.0239 6.62599L11.5561 7.10009H13.6023C15.7965 7.10009 17.5819 8.90959 17.5819 11.1334V11.8668C17.5819 14.0906 15.7965 15.9001 13.6023 15.9001H9.23563V15.1668Z" fill="black"/>
<path fill-rule="evenodd" clip-rule="evenodd" d="M2 15.5333C2 15.3308 2.16198 15.1667 2.36178 15.1667L9.23563 15.1668C9.43544 15.1668 9.59741 15.3308 9.59741 15.5333C9.59741 15.7358 9.43544 15.9001 9.23563 15.9001L2.36178 15.9C2.16198 15.9 2 15.7358 2 15.5333Z" fill="black"/>
<path d="M10.321 15.1667H9.59741C7.80189 15.1667 6.34138 13.6864 6.34138 11.8667V11.1333C6.34138 9.31357 7.80189 7.83333 9.59741 7.83333C9.79748 7.83333 9.9592 7.66943 9.9592 7.46667C9.9592 7.2639 9.79748 7.1 9.59741 7.1C7.40321 7.1 5.61782 8.9095 5.61782 11.1333V11.8667C5.61782 14.0905 7.40321 15.9 9.59741 15.9H10.321V15.1667Z" fill="black"/>
<path d="M17.2117 15.8999H21.7651L21.2973 16.374C21.1558 16.5174 21.1558 16.7491 21.2973 16.8925C21.4387 17.0358 21.6674 17.0358 21.8088 16.8925L22.8938 15.7928C22.9275 15.7591 22.9539 15.7184 22.9723 15.6733C23.0092 15.5838 23.0092 15.4826 22.9723 15.3932C22.9539 15.3481 22.9275 15.3074 22.8938 15.2736L21.8088 14.174C21.7383 14.1025 21.6457 14.0666 21.5531 14.0666C21.4604 14.0666 21.3678 14.1025 21.2973 14.174C21.1558 14.3174 21.1558 14.5491 21.2973 14.6925L21.7651 15.1666H17.2117V15.8999Z" fill="black"/>
</svg>
