<svg width="24" height="24" viewBox="0 0 24 24" fill="none" xmlns="http://www.w3.org/2000/svg">
<path d="M5.04732 19.4952C5.10635 19.5924 5.212 19.6521 5.32613 19.6521H9.23915C9.36078 19.6521 9.47197 19.5846 9.52838 19.4766L13.4414 11.9767C13.4906 11.8821 13.4906 11.7696 13.4414 11.6751L9.52838 4.17511C9.47197 4.0675 9.36078 4 9.23915 4H5.32613C5.212 4 5.10635 4.05967 5.04732 4.15685C4.98798 4.25467 4.98439 4.37565 5.03689 4.47674L8.87132 11.826L5.03689 19.1753C4.98439 19.2764 4.98798 19.3974 5.04732 19.4952ZM9.52838 11.9767C9.57762 11.8821 9.57762 11.7696 9.52838 11.6751L5.86417 4.65217H9.04154L12.7843 11.826L9.04154 18.9999H5.86417L9.52838 11.9767Z" fill="black"/>
<path d="M15.3929 11.826L11.5585 19.1753C11.5057 19.2764 11.5096 19.3977 11.5689 19.4952C11.628 19.5924 11.7336 19.6521 11.8477 19.6521H15.7608C15.8824 19.6521 15.9936 19.5846 16.05 19.4766L19.963 11.9767C20.0123 11.8821 20.0123 11.7696 19.963 11.6751L16.05 4.17511C15.9936 4.0675 15.8824 4 15.7608 4H11.8477C11.7336 4 11.628 4.05967 11.5689 4.15685C11.5096 4.25435 11.506 4.37565 11.5585 4.47674L15.3929 11.826ZM15.5632 4.65217L19.306 11.826L15.5632 18.9999H12.3858L16.05 11.9767C16.0992 11.8821 16.0992 11.7696 16.05 11.6751L12.3858 4.65217H15.5632Z" fill="black"/>
</svg>
