<svg width="24" height="24" viewBox="0 0 24 24" fill="none" xmlns="http://www.w3.org/2000/svg">
<path d="M8.518 9.93H9.722C9.722 8.838 10.436 8.18 11.584 8.18C12.718 8.18 13.446 8.88 13.446 10C13.446 11.694 12.088 12.002 10.492 12.002H10.086L10.142 14.214H11.248L11.29 12.884C13.25 12.884 14.664 12.044 14.664 10C14.664 8.222 13.404 7.116 11.57 7.116C9.736 7.116 8.504 8.236 8.518 9.93ZM11.528 16.216C11.528 15.726 11.15 15.348 10.688 15.348C10.198 15.348 9.82 15.726 9.82 16.216C9.82 16.706 10.198 17.084 10.688 17.084C11.15 17.084 11.528 16.706 11.528 16.216Z" fill="#474E5D"/>
</svg>
