<svg width="24" height="24" viewBox="0 0 24 24" fill="none" xmlns="http://www.w3.org/2000/svg">
<path fill-rule="evenodd" clip-rule="evenodd" d="M13.2071 9.86121C13.2041 9.58508 13.4254 9.35877 13.7016 9.35572L20.2722 9.28325L20.1998 2.71258C20.1967 2.43646 20.4181 2.21014 20.6942 2.2071C20.9703 2.20405 21.1966 2.42543 21.1997 2.70155L21.2777 9.77219C21.2807 10.0483 21.0594 10.2746 20.7832 10.2777L13.7126 10.3557C13.4365 10.3587 13.2101 10.1373 13.2071 9.86121Z" fill="#474E5D"/>
<path fill-rule="evenodd" clip-rule="evenodd" d="M16.9358 5.01439C15.3315 3.89713 13.4621 3.37884 11.591 3.52388C9.71956 3.66896 7.92783 4.47142 6.47128 5.82957C5.00425 7.19749 4.44105 8.23592 3.4472 10.2236C3.32371 10.4706 3.02337 10.5707 2.77638 10.4472C2.52939 10.3237 2.42928 10.0234 2.55277 9.7764C3.55893 7.7641 4.1867 6.59253 5.78931 5.09819C7.40239 3.59408 9.40432 2.6904 11.5137 2.52688C13.6235 2.36332 15.7207 2.94959 17.5073 4.19377C19.3341 5.4659 20.1999 7.2345 20.9693 9.32749C21.0646 9.58667 20.9317 9.87402 20.6725 9.9693C20.4133 10.0646 20.126 9.93171 20.0307 9.67252C19.2778 7.62455 18.5 6.10369 16.9358 5.01439Z" fill="#474E5D"/>
<path fill-rule="evenodd" clip-rule="evenodd" d="M10.774 13.1979C10.777 13.474 10.5556 13.7003 10.2795 13.7034L3.70885 13.7758L3.78132 20.3465C3.78437 20.6226 3.56299 20.8489 3.28687 20.852C3.01074 20.855 2.78443 20.6337 2.78138 20.3575L2.7034 13.2869C2.70035 13.0108 2.92173 12.7845 3.19785 12.7814L10.2685 12.7034C10.5446 12.7004 10.7709 12.9217 10.774 13.1979Z" fill="#474E5D"/>
<path fill-rule="evenodd" clip-rule="evenodd" d="M7.04523 18.0447C8.64958 19.162 10.5189 19.6802 12.39 19.5352C14.2615 19.3901 16.0533 18.5877 17.5098 17.2295C18.9768 15.8616 19.54 14.8232 20.5339 12.8355C20.6574 12.5885 20.9577 12.4884 21.2047 12.6119C21.4517 12.7354 21.5518 13.0357 21.4283 13.2827C20.4222 15.295 19.7944 16.4665 18.1918 17.9609C16.5787 19.465 14.5768 20.3687 12.4673 20.5322C10.3575 20.6958 8.26035 20.1095 6.47376 18.8653C4.64701 17.5932 3.7812 15.8246 3.0118 13.7316C2.91652 13.4724 3.04939 13.1851 3.30858 13.0898C3.56776 12.9945 3.85511 13.1274 3.95039 13.3866C4.70324 15.4345 5.48104 16.9554 7.04523 18.0447Z" fill="#474E5D"/>
</svg>
