<svg width="24" height="24" viewBox="0 0 24 24" fill="none" xmlns="http://www.w3.org/2000/svg">
<path fill-rule="evenodd" clip-rule="evenodd" d="M8.85355 3.14645C9.04882 3.34171 9.04882 3.65829 8.85355 3.85355L4.20711 8.5L8.85355 13.1464C9.04882 13.3417 9.04882 13.6583 8.85355 13.8536C8.65829 14.0488 8.34171 14.0488 8.14645 13.8536L3.14645 8.85355C2.95118 8.65829 2.95118 8.34171 3.14645 8.14645L8.14645 3.14645C8.34171 2.95118 8.65829 2.95118 8.85355 3.14645Z" fill="#474E5D"/>
<path fill-rule="evenodd" clip-rule="evenodd" d="M3.5 8.5C3.5 8.22386 3.72386 8 4 8H14C17.0376 8 19.5 10.4624 19.5 13.5V15C19.5 18.0376 17.0376 20.5 14 20.5H4C3.72386 20.5 3.5 20.2761 3.5 20C3.5 19.7239 3.72386 19.5 4 19.5H14C16.4853 19.5 18.5 17.4853 18.5 15V13.5C18.5 11.0147 16.4853 9 14 9H4C3.72386 9 3.5 8.77614 3.5 8.5Z" fill="#474E5D"/>
</svg>
