<svg width="101" height="101" viewBox="0 0 101 101" fill="none" xmlns="http://www.w3.org/2000/svg">
<path d="M96.7918 56.8122C96.7918 78.8921 78.8925 96.7913 56.8127 96.7913C34.7328 96.7913 16.8335 78.8921 16.8335 56.8122C16.8335 34.7323 34.7328 16.833 56.8127 16.833C78.8925 16.833 96.7918 34.7323 96.7918 56.8122Z" fill="#CFCFCF"/>
<path d="M75.75 44.1875C75.75 61.619 61.619 75.75 44.1875 75.75C26.756 75.75 12.625 61.619 12.625 44.1875C12.625 26.756 26.756 12.625 44.1875 12.625C61.619 12.625 75.75 26.756 75.75 44.1875Z" fill="white"/>
<path fill-rule="evenodd" clip-rule="evenodd" d="M10.521 44.1872C10.521 25.5936 25.5941 10.5205 44.1877 10.5205C62.7813 10.5205 77.8543 25.5936 77.8543 44.1872C77.8543 62.7808 62.7813 77.8538 44.1877 77.8538C25.5941 77.8538 10.521 62.7808 10.521 44.1872ZM44.1877 14.7288C27.9183 14.7288 14.7293 27.9178 14.7293 44.1872C14.7293 60.4566 27.9183 73.6455 44.1877 73.6455C60.4571 73.6455 73.646 60.4566 73.646 44.1872C73.646 27.9178 60.4571 14.7288 44.1877 14.7288Z" fill="#474E5D"/>
<path fill-rule="evenodd" clip-rule="evenodd" d="M65.0035 65.004C65.8252 64.1823 67.1575 64.1823 67.9792 65.004L89.8626 86.8873C90.6843 87.709 90.6843 89.0413 89.8626 89.8631C89.0408 90.6848 87.7086 90.6848 86.8868 89.8631L65.0035 67.9797C64.1818 67.158 64.1818 65.8257 65.0035 65.004Z" fill="#474E5D"/>
</svg>
