<svg width="24" height="24" viewBox="0 0 24 24" fill="none" xmlns="http://www.w3.org/2000/svg">
<path fill-rule="evenodd" clip-rule="evenodd" d="M9.04541 12C9.04541 10.3683 10.3682 9.04546 12 9.04546C13.6317 9.04546 14.9545 10.3683 14.9545 12C14.9545 13.6318 13.6317 14.9545 12 14.9545C10.3682 14.9545 9.04541 13.6318 9.04541 12ZM12 10.0455C10.9205 10.0455 10.0454 10.9205 10.0454 12C10.0454 13.0795 10.9205 13.9545 12 13.9545C13.0794 13.9545 13.9545 13.0795 13.9545 12C13.9545 10.9205 13.0794 10.0455 12 10.0455Z" fill="#474E5D"/>
<path fill-rule="evenodd" clip-rule="evenodd" d="M12 3.5C11.3724 3.5 10.8636 4.00877 10.8636 4.63636V4.77745C10.8607 5.51481 10.4202 6.18001 9.74242 6.47048C9.69083 6.49259 9.63596 6.50583 9.58012 6.50971C8.912 6.75854 8.15561 6.60145 7.64128 6.09834L7.63733 6.09448L7.58826 6.04537C7.37512 5.83199 7.08569 5.71189 6.78409 5.71189C6.48249 5.71189 6.19326 5.83179 5.98011 6.04517C5.76673 6.25832 5.64644 6.54794 5.64644 6.84955C5.64644 7.15115 5.76634 7.44038 5.97972 7.65352L6.03291 7.70671C6.55806 8.24358 6.70618 9.0442 6.4092 9.73285C6.14319 10.4376 5.47585 10.9113 4.72169 10.929L4.71 10.9292L4.63636 10.9291C4.00877 10.9291 3.5 11.4379 3.5 12.0655C3.5 12.6931 4.00877 13.2018 4.63636 13.2018H4.77745C5.51391 13.2048 6.17839 13.6442 6.46942 14.3206C6.77335 15.0119 6.62656 15.8187 6.09834 16.3587L6.09449 16.3627L6.04537 16.4117C5.83199 16.6249 5.71189 16.9143 5.71189 17.2159C5.71189 17.5175 5.83179 17.8067 6.04517 18.0199C6.25832 18.2333 6.54794 18.3536 6.84955 18.3536C7.15115 18.3536 7.44038 18.2337 7.65352 18.0203L7.70671 17.9671C8.24357 17.4419 9.04419 17.2938 9.73285 17.5908C10.4376 17.8568 10.9113 18.5241 10.929 19.2783L10.9292 19.29L10.9291 19.3636C10.9291 19.9912 11.4379 20.5 12.0655 20.5C12.6931 20.5 13.2018 19.9912 13.2018 19.3636V19.2245L13.2018 19.2226C13.2048 18.4861 13.6442 17.8216 14.3205 17.5306C15.0119 17.2266 15.8187 17.3734 16.3587 17.9017L16.3627 17.9055L16.4117 17.9546C16.6249 18.168 16.9143 18.2881 17.2159 18.2881C17.5175 18.2881 17.8067 18.1682 18.0199 17.9548C18.2333 17.7417 18.3536 17.4521 18.3536 17.1505C18.3536 16.8489 18.2337 16.5596 18.0203 16.3465L17.9671 16.2933C17.4389 15.7533 17.2921 14.9464 17.5961 14.2551C17.8871 13.5787 18.5516 13.1393 19.288 13.1364L19.29 13.1364L19.3636 13.1364C19.9912 13.1364 20.5 12.6276 20.5 12C20.5 11.3724 19.9912 10.8636 19.3636 10.8636H19.2245L19.2226 10.8636C18.4852 10.8607 17.82 10.4202 17.5295 9.74242C17.5074 9.69083 17.4942 9.63596 17.4903 9.58013C17.2415 8.912 17.3985 8.15561 17.9017 7.64128L17.9055 7.63734L17.9546 7.58827C18.168 7.37512 18.2881 7.08569 18.2881 6.78409C18.2881 6.48249 18.1682 6.19326 17.9548 5.98011C17.7417 5.76673 17.4521 5.64644 17.1505 5.64644C16.8489 5.64644 16.5596 5.76634 16.3465 5.97972L16.2933 6.03291C15.7533 6.56112 14.9465 6.7079 14.2551 6.40396C13.5788 6.11293 13.1393 5.44845 13.1364 4.71199L13.1364 4.71V4.63636C13.1364 4.00877 12.6276 3.5 12 3.5ZM9.86364 4.63636C9.86364 3.45648 10.8201 2.5 12 2.5C13.1799 2.5 14.1364 3.45648 14.1364 4.63636V4.70904C14.1381 5.04742 14.3404 5.35256 14.6515 5.48588L14.6564 5.488C14.9736 5.62797 15.3439 5.56132 15.5923 5.31973L15.639 5.27301C16.0397 4.87185 16.5834 4.64644 17.1505 4.64644C17.7175 4.64644 18.2612 4.87185 18.6619 5.27301C19.0628 5.67368 19.2881 6.21726 19.2881 6.78409C19.2881 7.35101 19.0628 7.89468 18.6617 8.29537C18.6617 8.29544 18.6618 8.2953 18.6617 8.29537L18.6148 8.34229C18.3732 8.59068 18.3066 8.96097 18.4465 9.27812C18.4672 9.32486 18.4805 9.37439 18.4861 9.42495C18.6338 9.69237 18.9158 9.86209 19.2257 9.86364H19.3636C20.5435 9.86364 21.5 10.8201 21.5 12C21.5 13.1799 20.5435 14.1364 19.3636 14.1364H19.291C18.9526 14.1381 18.6474 14.3404 18.5141 14.6515L18.512 14.6564C18.372 14.9736 18.4387 15.3439 18.6803 15.5923L18.727 15.639C19.1282 16.0397 19.3536 16.5834 19.3536 17.1505C19.3536 17.7174 19.1282 18.261 18.7272 18.6617C18.3265 19.0628 17.7828 19.2881 17.2159 19.2881C16.649 19.2881 16.1053 19.0628 15.7046 18.6617C15.7046 18.6617 15.7047 18.6618 15.7046 18.6617L15.6577 18.6148C15.4093 18.3732 15.039 18.3066 14.7219 18.4465L14.717 18.4487C14.4059 18.582 14.2036 18.8871 14.2018 19.2255V19.3636C14.2018 20.5435 13.2453 21.5 12.0655 21.5C10.8856 21.5 9.92909 20.5435 9.92909 19.3636V19.2965C9.91889 18.9497 9.69882 18.6437 9.37286 18.5238C9.36298 18.5202 9.35321 18.5162 9.34357 18.512C9.02642 18.372 8.65613 18.4387 8.40774 18.6803L8.36102 18.727C8.36096 18.7271 8.36109 18.7269 8.36102 18.727C7.96033 19.128 7.41647 19.3536 6.84955 19.3536C6.28272 19.3536 5.73914 19.1283 5.33846 18.7274C4.9373 18.3267 4.71189 17.7829 4.71189 17.2159C4.71189 16.6489 4.9373 16.1051 5.33846 15.7044L5.38519 15.6577C5.62677 15.4093 5.69345 15.039 5.55348 14.7219L5.55131 14.717C5.41799 14.4059 5.11287 14.2036 4.7745 14.2018H4.63636C3.45648 14.2018 2.5 13.2453 2.5 12.0655C2.5 10.8856 3.45648 9.92909 4.63636 9.92909H4.70347C5.05028 9.91889 5.35631 9.69882 5.47619 9.37286C5.47982 9.36298 5.48377 9.35321 5.48802 9.34357C5.62799 9.02642 5.56132 8.65614 5.31973 8.40775L5.27301 8.36102C5.27294 8.36096 5.27307 8.36109 5.27301 8.36102C4.87197 7.96033 4.64644 7.41646 4.64644 6.84955C4.64644 6.28263 4.87177 5.73896 5.27281 5.33826C5.67351 4.93723 6.21717 4.71189 6.78409 4.71189C7.35101 4.71189 7.89468 4.93723 8.29537 5.33826C8.29544 5.33833 8.29531 5.3382 8.29537 5.33826L8.34229 5.38519C8.59069 5.62677 8.96097 5.69345 9.27812 5.55348C9.32486 5.53285 9.37439 5.51955 9.42496 5.51395C9.69237 5.36618 9.86209 5.08417 9.86364 4.77431V4.63636Z" fill="#474E5D"/>
</svg>
