<svg width="21" height="22" viewBox="0 0 21 22" fill="none" xmlns="http://www.w3.org/2000/svg">
<path d="M14.3858 19.9931C13.2469 20.4176 12.0357 20.634 10.8143 20.6311C9.05138 20.6313 7.32022 20.1794 5.79901 19.3218C4.2778 18.4642 3.02148 17.2319 2.15936 15.7519C1.29724 14.2718 0.860458 12.5973 0.893961 10.9008C0.927465 9.20423 1.43005 7.54694 2.34998 6.09945C2.39146 6.0026 2.39514 5.89458 2.36036 5.79531C2.32557 5.69605 2.25466 5.61225 2.16071 5.55936C2.06675 5.50648 1.9561 5.48809 1.84916 5.50758C1.74222 5.52707 1.64622 5.58313 1.57886 5.66541C0.4037 7.52298 -0.137935 9.68798 0.0299067 11.8568C0.197748 14.0256 1.06665 16.0895 2.51476 17.759C3.96286 19.4285 5.91755 20.6199 8.1047 21.1661C10.2919 21.7123 12.6018 21.586 14.7105 20.8047C14.8224 20.7633 14.9125 20.6808 14.9611 20.5754C15.0098 20.47 15.0129 20.3503 14.9698 20.2426C14.9268 20.135 14.8411 20.0482 14.7315 20.0014C14.622 19.9546 14.4977 19.9516 14.3858 19.9931Z" fill="black"/>
<path d="M10.5452 0.500137C9.16408 0.492973 7.7953 0.766799 6.51817 1.30575C5.24105 1.8447 4.081 2.63805 3.10524 3.63983C3.03354 3.72563 2.99607 3.83601 3.00033 3.94889C3.00458 4.06177 3.05024 4.16885 3.12818 4.24873C3.20613 4.32861 3.31061 4.37541 3.42075 4.37977C3.5309 4.38413 3.63859 4.34573 3.72232 4.27225C4.68357 3.28202 5.83899 2.51223 7.11219 2.01378C8.38538 1.51534 9.74732 1.2996 11.1079 1.38083C12.4685 1.46207 13.7968 1.83843 15.0049 2.48502C16.213 3.13161 17.2734 4.0337 18.116 5.13162C18.9585 6.22955 19.5641 7.49829 19.8925 8.85394C20.2209 10.2096 20.2647 11.6213 20.0211 12.9956C19.7775 14.3699 19.252 15.6755 18.4793 16.8262C17.7065 17.9768 16.7043 18.9462 15.5388 19.6702C15.4895 19.701 15.4466 19.7415 15.4127 19.7893C15.3787 19.8371 15.3543 19.8914 15.3409 19.9489C15.3275 20.0064 15.3253 20.0661 15.3344 20.1245C15.3436 20.1829 15.364 20.2389 15.3943 20.2892C15.4338 20.3538 15.4886 20.4071 15.5537 20.444C15.6188 20.4809 15.692 20.5001 15.7663 20.5C15.8464 20.5008 15.9251 20.479 15.9939 20.4372C17.9397 19.2123 19.443 17.3709 20.2761 15.1919C21.1092 13.0128 21.2266 10.6149 20.6108 8.36134C19.9949 6.10775 18.6791 4.12126 16.8629 2.70275C15.0466 1.28424 12.8287 0.510993 10.5452 0.500137Z" fill="black"/>
<path d="M4.43494 14.5H7.91446C7.9911 14.5003 8.06646 14.4801 8.13291 14.4415C8.19936 14.4029 8.25454 14.3472 8.29286 14.2801L11.6462 8.34277H13.5991V9.30594L16 7.90297L13.5991 6.5V7.46317H11.394C11.3173 7.46286 11.242 7.48303 11.1755 7.52165C11.1091 7.56027 11.0539 7.61595 11.0156 7.68307L7.6622 13.6204H4.43494C4.31959 13.6204 4.20896 13.6667 4.12739 13.7492C4.04582 13.8317 4 13.9436 4 14.0602C4 14.1768 4.04582 14.2887 4.12739 14.3712C4.20896 14.4537 4.31959 14.5 4.43494 14.5Z" fill="black"/>
<path d="M16 14L13.8291 12.5V13.5298H12.0632L11.7368 12.8433C11.711 12.7895 11.6766 12.7424 11.6355 12.7046C11.5944 12.6668 11.5476 12.639 11.4975 12.6229C11.3965 12.5902 11.2887 12.6069 11.198 12.6693C11.1073 12.7316 11.0409 12.8345 11.0137 12.9553C10.9864 13.0762 11.0003 13.205 11.0525 13.3135L11.493 14.2539C11.5296 14.3222 11.5803 14.378 11.6402 14.4159C11.7002 14.4538 11.7673 14.4725 11.8351 14.4702H13.8291V15.5L16 14Z" fill="black"/>
<path d="M4.4495 8.50932H7.7848L8.15788 9.24598C8.21749 9.3624 8.31586 9.44748 8.43135 9.48249C8.54683 9.5175 8.66998 9.49958 8.7737 9.43267C8.87742 9.36576 8.95321 9.25534 8.9844 9.12571C9.01559 8.99607 8.99962 8.85784 8.94002 8.74142L8.43658 7.7323C8.39475 7.65905 8.33676 7.59918 8.26824 7.55851C8.19972 7.51784 8.12299 7.49776 8.04551 7.5002H4.4495C4.33029 7.5002 4.21595 7.55336 4.13166 7.64798C4.04736 7.7426 4 7.87094 4 8.00476C4 8.13858 4.04736 8.26692 4.13166 8.36154C4.21595 8.45616 4.33029 8.50932 4.4495 8.50932Z" fill="black"/>
</svg>
