<svg width="88" height="88" viewBox="0 0 88 88" fill="none" xmlns="http://www.w3.org/2000/svg">
<path fill-rule="evenodd" clip-rule="evenodd" d="M44 87C67.7482 87 87 67.7482 87 44C87 20.2518 67.7482 1 44 1C20.2518 1 1 20.2518 1 44C1 67.7482 20.2518 87 44 87ZM44 88C68.3005 88 88 68.3005 88 44C88 19.6995 68.3005 0 44 0C19.6995 0 0 19.6995 0 44C0 68.3005 19.6995 88 44 88Z" fill="#474E5D"/>
<path fill-rule="evenodd" clip-rule="evenodd" d="M60.3515 33.5148C60.742 33.9053 60.742 34.5385 60.3515 34.929L38.8404 56.4401C38.6529 56.6277 38.3985 56.733 38.1333 56.733C37.8681 56.733 37.6137 56.6277 37.4262 56.4401L27.6484 46.6624C27.2579 46.2718 27.2579 45.6387 27.6484 45.2482C28.0389 44.8576 28.6721 44.8576 29.0626 45.2482L38.1333 54.3188L58.9373 33.5148C59.3278 33.1243 59.961 33.1243 60.3515 33.5148Z" fill="#474E5D"/>
</svg>
