<svg width="18" height="18" viewBox="0 0 18 18" fill="none" xmlns="http://www.w3.org/2000/svg">
<path d="M0 9C0 4.02944 4.02944 0 9 0C13.9706 0 18 4.02944 18 9C18 13.9706 13.9706 18 9 18C4.02944 18 0 13.9706 0 9Z" fill="#C4C4C4"/>
<path d="M4.5 10.1132H6.23864C6.35795 9.60395 6.80114 9.35526 7.38068 9.35526C8.38636 9.35526 9.03409 10.125 10.4489 10.125C11.9659 10.125 13.108 9.46184 13.5 7.88684H11.7273C11.625 8.40789 11.1818 8.64474 10.6193 8.64474C9.63068 8.64474 8.94886 7.875 7.53409 7.875C6.01705 7.875 4.89205 8.52632 4.5 10.1132Z" fill="white"/>
</svg>
