<svg width="88" height="88" viewBox="0 0 88 88" fill="none" xmlns="http://www.w3.org/2000/svg">
<path fill-rule="evenodd" clip-rule="evenodd" d="M45.0549 43.2571C45.445 42.8508 46.075 42.8508 46.4651 43.2571L60.5451 57.9238C60.9367 58.3317 60.9385 58.9951 60.5491 59.4053C60.1597 59.8156 59.5265 59.8175 59.1349 59.4096L45.76 45.4774L32.3851 59.4096C31.9934 59.8175 31.3603 59.8156 30.9709 59.4053C30.5815 58.9951 30.5833 58.3317 30.9749 57.9238L45.0549 43.2571Z" fill="#474E5D"/>
<path fill-rule="evenodd" clip-rule="evenodd" d="M9.32273 26.3014C14.9022 15.1477 26.4993 8.73196 38.4888 10.1579C50.2197 11.5532 59.9614 20.1746 63.2075 31.9529H66.8802C75.377 31.9587 82.7953 37.9649 84.8935 46.5519C86.992 55.14 83.2327 64.1133 75.7696 68.3515C75.284 68.6272 74.677 68.4384 74.4138 67.9297C74.1507 67.4211 74.3309 66.7852 74.8164 66.5095C81.4782 62.7263 84.8258 54.7236 82.956 47.0715C81.086 39.4183 74.4703 34.0533 66.8795 34.0481H62.445C61.9896 34.0481 61.5918 33.7258 61.4772 33.2641C58.6642 21.9305 49.4366 13.5687 38.2631 12.2398C27.0893 10.9108 16.2882 16.891 11.0942 27.274C5.90085 37.6557 7.38433 50.2975 14.8276 59.0712C15.1945 59.5037 15.1573 60.1659 14.7445 60.5502C14.3317 60.9346 13.6996 60.8956 13.3327 60.4631C5.33788 51.0392 3.74265 37.4562 9.32273 26.3014ZM45.0549 43.2571C45.445 42.8508 46.075 42.8508 46.4651 43.2571L60.5451 57.9237C60.9367 58.3317 60.9385 58.995 60.5491 59.4053C60.1597 59.8156 59.5265 59.8175 59.1349 59.4095L46.76 46.519V77C46.76 77.5785 46.3123 78.0476 45.76 78.0476C45.2077 78.0476 44.76 77.5785 44.76 77V46.519L32.3851 59.4095C31.9935 59.8175 31.3603 59.8156 30.9709 59.4053C30.5815 58.995 30.5833 58.3317 30.9749 57.9237L45.0549 43.2571Z" fill="#474E5D"/>
</svg>
