<svg width="24" height="24" viewBox="0 0 24 24" fill="none" xmlns="http://www.w3.org/2000/svg">
<path d="M24 12C24 18.6274 18.6274 24 12 24C5.37258 24 0 18.6274 0 12C0 5.37258 5.37258 0 12 0C18.6274 0 24 5.37258 24 12Z" fill="#AAAAAA"/>
<path d="M8.67512 12C8.67512 14.5 10.1751 15 10.1751 15V17.5C7.95212 18.341 5.33012 19.167 4.00012 20.087C6.66013 22.9566 11.0001 23.5 12.5001 23.5C14.0009 23.5 17.5001 23 20.3611 20.075C19.1051 19.197 16.6521 18.429 14.1751 17.5V15C14.1751 15 15.6751 14.5 15.6751 12C16.5011 12 16.5011 10 15.6751 10C15.6751 9.754 16.5221 7.888 16.1751 6.5C15.6751 4.5 10.1751 4.5 9.67512 6.5C7.17512 6 8.67512 9.665 8.67512 10C7.84912 10 7.84912 12 8.67512 12Z" fill="#ECEBEA"/>
</svg>
