<svg width="24" height="24" viewBox="0 0 24 24" fill="none" xmlns="http://www.w3.org/2000/svg">
<path fill-rule="evenodd" clip-rule="evenodd" d="M0.5 19C0.5 16.5147 2.51472 14.5 5 14.5H13C15.4853 14.5 17.5 16.5147 17.5 19V21C17.5 21.2761 17.2761 21.5 17 21.5C16.7239 21.5 16.5 21.2761 16.5 21V19C16.5 17.067 14.933 15.5 13 15.5H5C3.067 15.5 1.5 17.067 1.5 19V21C1.5 21.2761 1.27614 21.5 1 21.5C0.723858 21.5 0.5 21.2761 0.5 21V19Z" fill="#474E5D"/>
<path fill-rule="evenodd" clip-rule="evenodd" d="M4.5 7C4.5 4.51472 6.51472 2.5 9 2.5C11.4853 2.5 13.5 4.51472 13.5 7C13.5 9.48528 11.4853 11.5 9 11.5C6.51472 11.5 4.5 9.48528 4.5 7ZM9 3.5C7.067 3.5 5.5 5.067 5.5 7C5.5 8.933 7.067 10.5 9 10.5C10.933 10.5 12.5 8.933 12.5 7C12.5 5.067 10.933 3.5 9 3.5Z" fill="#474E5D"/>
<path fill-rule="evenodd" clip-rule="evenodd" d="M19.5159 15.005C19.5849 14.7376 19.8576 14.5768 20.125 14.6459C22.1106 15.1586 23.4985 16.9489 23.5 18.9996L23.5 19V21C23.5 21.2761 23.2761 21.5 23 21.5C22.7239 21.5 22.5 21.2761 22.5 21L22.5 19.0004C22.5 19.0003 22.5 19.0002 22.5 19.0001C22.5 19.0001 22.5 19 22.5 19C22.4986 17.4051 21.4193 16.0129 19.875 15.6141C19.6076 15.5451 19.4468 15.2724 19.5159 15.005Z" fill="#474E5D"/>
<path fill-rule="evenodd" clip-rule="evenodd" d="M15.5156 3.00598C15.5841 2.73847 15.8565 2.57713 16.124 2.64563C18.1152 3.15544 19.5078 4.94962 19.5078 7.005C19.5078 9.06039 18.1152 10.8546 16.124 11.3644C15.8565 11.4329 15.5841 11.2715 15.5156 11.004C15.4471 10.7365 15.6085 10.4641 15.876 10.3956C17.4247 9.9991 18.5078 8.60364 18.5078 7.005C18.5078 5.40637 17.4247 4.0109 15.876 3.61438C15.6085 3.54588 15.4471 3.2735 15.5156 3.00598Z" fill="#474E5D"/>
</svg>
