<svg width="24" height="24" viewBox="0 0 24 24" fill="none" xmlns="http://www.w3.org/2000/svg">
<path fill-rule="evenodd" clip-rule="evenodd" d="M11.9999 5.5L12 6L12 6.5L11.9375 6.50009L11.7577 6.50073C11.6019 6.50146 11.3776 6.50292 11.1039 6.50585C10.5562 6.51171 9.81199 6.52342 9.02455 6.54682C8.23632 6.57025 7.4088 6.60527 6.69341 6.65745C5.96685 6.71044 5.39756 6.77861 5.09666 6.85844C4.79755 6.94372 4.52609 7.10613 4.30951 7.32941C4.09575 7.54978 3.94289 7.82177 3.86575 8.11875C3.61574 9.51113 3.49347 10.9235 3.50046 12.3381L3.50049 12.3437C3.49156 13.7662 3.6133 15.1865 3.86424 16.5867C3.94938 16.8714 4.1047 17.1303 4.31607 17.3395C4.53264 17.5538 4.80075 17.7088 5.09456 17.7894C5.39491 17.8695 5.96515 17.9379 6.69341 17.991C7.4088 18.0432 8.23632 18.0782 9.02455 18.1016C9.81199 18.125 10.5562 18.1367 11.1039 18.1426C11.3776 18.1455 11.6019 18.147 11.7577 18.1477L11.9375 18.1483L11.9991 18.1484L12 18.6484L11.9999 19.1484L11.9353 19.1483L11.753 19.1477C11.5955 19.147 11.3691 19.1455 11.0932 19.1425C10.5414 19.1366 9.79051 19.1248 8.99485 19.1012C8.19999 19.0776 7.35645 19.042 6.62067 18.9883C5.89887 18.9357 5.23845 18.8631 4.83482 18.7551L4.83204 18.7544C4.37179 18.6284 3.95179 18.3859 3.61264 18.0503C3.27348 17.7146 3.02663 17.2971 2.89593 16.8382C2.89141 16.8223 2.88768 16.8063 2.88475 16.79C2.61991 15.3218 2.49127 13.8322 2.50046 12.3402C2.49331 10.8595 2.62195 9.38117 2.88475 7.92389C2.88673 7.91292 2.88907 7.90203 2.89177 7.89122C3.01032 7.41758 3.25177 6.98361 3.59172 6.63315C3.93166 6.28269 4.35808 6.02815 4.82789 5.89523L4.83481 5.89327C5.23843 5.78532 5.89887 5.71274 6.62067 5.66009C7.35645 5.60643 8.19999 5.57088 8.99485 5.54726C9.79051 5.52362 10.5414 5.51181 11.0932 5.50591C11.3691 5.50296 11.5955 5.50148 11.753 5.50074L11.9353 5.50009L11.9999 5.5ZM18.9033 17.79C18.6024 17.8698 18.0331 17.938 17.3066 17.991C16.5912 18.0432 15.7637 18.0782 14.9754 18.1016C14.188 18.125 13.4438 18.1367 12.8961 18.1426C12.6224 18.1455 12.3981 18.147 12.2423 18.1477L12.0625 18.1483L12.0009 18.1484L12 18.6484L11.9999 19.1484L12.0647 19.1483L12.247 19.1477C12.4045 19.147 12.6309 19.1455 12.9068 19.1425C13.4586 19.1366 14.2095 19.1248 15.0052 19.1012C15.8 19.0776 16.6436 19.042 17.3793 18.9883C18.1011 18.9357 18.7616 18.8631 19.1652 18.7551L19.1721 18.7532C19.6419 18.6203 20.0683 18.3657 20.4083 18.0153C20.7482 17.6648 20.9897 17.2309 21.1082 16.7572C21.1109 16.7464 21.1133 16.7355 21.1153 16.7245C21.376 15.2781 21.5047 13.811 21.4995 12.3413C21.5088 10.8493 21.3801 9.35954 21.1152 7.89114L20.6232 7.9799L21.1082 7.85849C20.9897 7.38485 20.7482 6.95089 20.4083 6.60043C20.0683 6.24997 19.6419 5.99542 19.1721 5.8625C19.1663 5.86086 19.1605 5.85932 19.1546 5.85789C18.7549 5.7603 18.0982 5.69415 17.3762 5.64607C16.6413 5.59713 15.7984 5.56469 15.0039 5.54314C14.2086 5.52156 13.4579 5.51078 12.9064 5.50539C12.6305 5.5027 12.4042 5.50135 12.2468 5.50068L12.0646 5.50008L11.9999 5.5L12 6L12 6.5L12.0625 6.50008L12.2425 6.50067C12.3983 6.50133 12.6228 6.50267 12.8966 6.50535C13.4444 6.5107 14.1889 6.52139 14.9767 6.54277C15.7653 6.56416 16.5935 6.59616 17.3097 6.64386C18.0319 6.69195 18.6024 6.75392 18.9085 6.82721C19.2056 6.91288 19.4752 7.0747 19.6905 7.29668C19.9043 7.51705 20.0571 7.78904 20.1343 8.08602C20.3862 9.48893 20.5085 10.9121 20.4995 12.3374L20.4995 12.3424C20.5046 13.7463 20.3823 15.1478 20.1343 16.5297C20.0571 16.8267 19.9042 17.0987 19.6905 17.319C19.4739 17.5423 19.2024 17.7047 18.9033 17.79Z" fill="#474E5D"/>
<path fill-rule="evenodd" clip-rule="evenodd" d="M9.90783 9.23306C10.0617 9.14353 10.2516 9.1426 10.4064 9.23062L15.1107 11.9059C15.267 11.9948 15.3635 12.1608 15.3635 12.3406C15.3635 12.5204 15.267 12.6863 15.1107 12.7752L10.4064 15.4505C10.2516 15.5385 10.0617 15.5376 9.90783 15.4481C9.75393 15.3586 9.65924 15.1939 9.65924 15.0159V9.66525C9.65924 9.4872 9.75393 9.32258 9.90783 9.23306ZM10.6592 10.5248V14.1563L13.8521 12.3406L10.6592 10.5248Z" fill="#474E5D"/>
</svg>
