<svg width="582" height="558" viewBox="0 0 582 558" fill="none" xmlns="http://www.w3.org/2000/svg">
  <path d="M245.646 531.912C252.126 531.912 258.942 531 258.942 522.84C258.942 517.992 256.158 515.208 251.55 514.344V514.248C255.15 513.24 257.358 510.504 257.358 506.712C257.358 499.704 251.214 498.792 245.646 498.792H238.11V531.912H245.646ZM243.39 512.856V501.96H245.646C249.486 501.96 252.078 502.68 252.078 507.096C252.078 511.464 249.678 512.856 245.646 512.856H243.39ZM243.39 528.744V516.024H245.646C250.11 516.024 253.662 517.32 253.662 522.408C253.662 527.928 250.302 528.744 245.646 528.744H243.39ZM273.086 532.44C280.526 532.44 283.214 527.304 283.214 520.488C283.214 513.672 280.526 508.536 273.086 508.536C265.646 508.536 263.006 513.72 263.006 520.488C263.006 527.256 265.646 532.44 273.086 532.44ZM273.086 530.424C268.526 530.424 268.286 523.752 268.286 520.488C268.286 517.224 268.526 510.552 273.086 510.552C277.694 510.552 277.934 517.224 277.934 520.488C277.934 523.752 277.694 530.424 273.086 530.424ZM297.133 532.44C304.573 532.44 307.261 527.304 307.261 520.488C307.261 513.672 304.573 508.536 297.133 508.536C289.693 508.536 287.053 513.72 287.053 520.488C287.053 527.256 289.693 532.44 297.133 532.44ZM297.133 530.424C292.573 530.424 292.333 523.752 292.333 520.488C292.333 517.224 292.573 510.552 297.133 510.552C301.741 510.552 301.981 517.224 301.981 520.488C301.981 523.752 301.741 530.424 297.133 530.424ZM343.02 531.912V516.408C343.02 512.424 342.06 508.536 337.26 508.536C333.468 508.536 331.74 511.128 330.348 514.2H330.252C330.06 510.984 327.948 508.536 324.588 508.536C321.132 508.536 318.636 511.368 317.676 514.488H317.58V509.064H312.732V531.912H317.58V522.456C317.58 519.336 318.3 512.136 322.572 512.136C325.5 512.136 325.452 515.496 325.452 517.608V531.912H330.3V522.408C330.3 519.336 331.212 512.136 335.388 512.136C338.076 512.136 338.172 515.208 338.172 517.176V531.912H343.02Z" fill="#4C4C4C"/>
  <path d="M425.343 320.381C425.343 410.41 364.888 483.226 290.5 483.226C216.112 483.226 155.656 410.41 155.656 320.381C155.656 230.352 216.112 157.536 290.5 157.536C364.888 157.536 425.343 230.352 425.343 320.381Z" stroke="#8B9F70"/>
  <path d="M479.273 243.116C479.273 375.842 394.42 483.226 289.981 483.226C185.542 483.226 100.689 375.842 100.689 243.116C100.689 110.39 185.542 3.00574 289.981 3.00574C394.42 3.00574 479.273 110.39 479.273 243.116Z" stroke="#608188"/>
  <circle cx="289.982" cy="392.46" r="90.766" stroke="#789DA1"/>
  <path d="M292.698 366.493V343.273H289.638L284.706 346.369V349.141L288.882 346.513V366.493H292.698Z" fill="black"/>
  <path d="M296.91 211.964V209.264H286.398C290.43 205.808 296.766 200.804 296.766 195.008C296.766 190.759 293.49 188.743 289.566 188.743C285.678 188.743 282.762 190.399 282.222 194.432H286.434C286.542 192.595 287.334 190.796 289.458 190.796C291.51 190.796 292.662 192.2 292.662 194.18C292.662 198.967 285.858 206.24 282.258 209.264V211.964H296.91ZM229.776 250.392C227.94 251.832 226.212 252.768 223.8 252.768C217.824 252.768 216.924 246.036 216.924 241.428C216.924 238.008 217.608 231.887 222.18 231.887C225.096 231.887 226.176 234.3 226.176 236.856H230.784C230.784 231.959 227.04 229.727 222.504 229.727C215.16 229.727 212.712 235.668 212.712 242.076C212.712 248.88 215.376 255.36 223.152 255.36C225.42 255.36 227.796 254.964 229.776 253.776V250.392ZM240.06 255.36C245.64 255.36 247.656 251.508 247.656 246.396C247.656 241.284 245.64 237.432 240.06 237.432C234.48 237.432 232.5 241.32 232.5 246.396C232.5 251.472 234.48 255.36 240.06 255.36ZM240.06 253.848C236.64 253.848 236.46 248.844 236.46 246.396C236.46 243.948 236.64 238.944 240.06 238.944C243.516 238.944 243.696 243.948 243.696 246.396C243.696 248.844 243.516 253.848 240.06 253.848ZM265.799 254.964V242.436C265.799 239.772 264.359 237.432 261.479 237.432C258.527 237.432 256.619 239.375 255.467 241.896H255.395V237.828H251.759V254.964H255.395V247.872C255.395 245.207 256.619 240.131 260.003 240.131C262.091 240.131 262.163 242.724 262.163 244.236V254.964H265.799ZM269.742 254.604C271.254 255.108 272.73 255.36 274.314 255.36C277.698 255.36 280.83 254.028 280.83 250.176C280.83 244.704 272.982 244.416 272.982 241.32C272.982 239.988 274.314 239.52 275.43 239.52C277.086 239.52 278.418 240.312 279.75 241.211V238.116C278.418 237.719 277.086 237.432 275.718 237.432C272.55 237.432 269.706 238.872 269.706 242.364C269.706 247.26 277.446 247.872 277.446 250.896C277.446 252.48 275.826 253.056 274.494 253.056C272.73 253.056 271.146 252.228 269.742 251.256V254.604ZM294.052 253.02C293.512 253.236 292.936 253.308 292.36 253.308C289.804 253.308 289.768 251.652 289.768 249.564V239.7H294.448V237.828H289.768V231.599L286.132 233.796V237.828H283.396V239.7H286.132V251.004C286.132 254.532 288.4 255.36 291.532 255.36C292.36 255.36 293.224 255.324 294.052 255.108V253.02ZM301.309 254.964V247.116C301.309 243.047 302.893 241.32 306.925 241.211V237.432C303.901 237.684 302.605 239.7 301.381 242.184H301.309V237.828H297.673V254.964H301.309ZM324.369 254.964V237.828H320.733V244.92C320.733 247.584 319.509 252.66 316.125 252.66C314.037 252.66 313.965 250.068 313.965 248.556V237.828H310.329V250.356C310.329 253.02 311.769 255.36 314.649 255.36C317.601 255.36 319.473 253.416 320.625 250.896H320.697V254.964H324.369ZM341.616 252.804C340.644 253.2 339.6 253.452 338.556 253.452C333.948 253.452 332.4 248.268 332.4 244.488C332.4 242.543 332.94 238.944 335.568 238.944C337.944 238.944 338.052 241.644 338.052 243.408H341.868C341.868 239.34 339.744 237.432 335.712 237.432C330.528 237.432 328.44 240.887 328.44 245.712C328.44 251.4 330.996 255.36 337.044 255.36C338.592 255.36 340.14 255.036 341.616 254.496V252.804ZM354.029 253.02C353.489 253.236 352.913 253.308 352.337 253.308C349.781 253.308 349.745 251.652 349.745 249.564V239.7H354.425V237.828H349.745V231.599L346.109 233.796V237.828H343.373V239.7H346.109V251.004C346.109 254.532 348.377 255.36 351.509 255.36C352.337 255.36 353.201 255.324 354.029 255.108V253.02ZM356.262 254.604C357.774 255.108 359.25 255.36 360.834 255.36C364.218 255.36 367.35 254.028 367.35 250.176C367.35 244.704 359.502 244.416 359.502 241.32C359.502 239.988 360.834 239.52 361.95 239.52C363.606 239.52 364.938 240.312 366.27 241.211V238.116C364.938 237.719 363.606 237.432 362.238 237.432C359.07 237.432 356.226 238.872 356.226 242.364C356.226 247.26 363.966 247.872 363.966 250.896C363.966 252.48 362.346 253.056 361.014 253.056C359.25 253.056 357.666 252.228 356.262 251.256V254.604Z" fill="black"/>
  <path d="M292.518 53.6705C295.182 52.9505 296.442 51.3305 296.442 48.5225C296.442 44.2385 293.382 42.5105 289.458 42.5105C286.29 42.5105 282.402 44.0945 282.294 47.7665H286.506C286.506 45.9665 287.262 44.5625 289.242 44.5625C291.618 44.5625 292.338 46.5065 292.338 48.5585C292.338 50.8985 291.402 52.6625 288.846 52.6625H288.162V54.8225H288.846C292.122 54.8225 292.77 56.6945 292.77 59.6825C292.77 61.9505 291.906 64.0745 289.314 64.0745C287.01 64.0745 286.002 62.9945 286.038 60.7625H281.826C282.114 64.8305 285.642 66.1265 289.278 66.1265C293.85 66.1265 296.874 64.3625 296.874 59.4305C296.874 56.4065 295.506 54.3905 292.518 53.7425V53.6705ZM279.347 108.73L271.031 83.8905H266.927L258.647 108.73H262.139L264.407 101.35H272.975L275.243 108.73H279.347ZM272.255 98.9745H265.163L268.691 87.4545H268.763L272.255 98.9745ZM286.467 108.73V97.7865H287.619C292.587 97.7865 297.231 96.7785 297.231 90.7305C297.231 84.6465 292.623 83.8905 287.619 83.8905H282.507V108.73H286.467ZM286.467 95.4105V86.2665H287.619C290.967 86.2665 293.271 86.8785 293.271 90.7305C293.271 94.6905 291.075 95.4105 287.619 95.4105H286.467ZM304.682 108.73V83.8905H300.722V108.73H304.682ZM308.994 108.37C310.506 108.874 311.982 109.126 313.566 109.126C316.95 109.126 320.082 107.794 320.082 103.942C320.082 98.4705 312.234 98.1825 312.234 95.0865C312.234 93.7545 313.566 93.2865 314.682 93.2865C316.338 93.2865 317.67 94.0785 319.002 94.9785V91.8825C317.67 91.4865 316.338 91.1985 314.97 91.1985C311.802 91.1985 308.958 92.6385 308.958 96.1305C308.958 101.026 316.698 101.638 316.698 104.662C316.698 106.246 315.078 106.822 313.746 106.822C311.982 106.822 310.398 105.994 308.994 105.022V108.37Z" fill="black"/>
  <path d="M241.739 433.017H241.804C242.461 431.687 244.366 428.582 248.307 428.582C253.627 428.582 256.517 433.081 256.517 440.051C256.517 447.655 252.905 451.267 246.993 451.267C238.126 451.267 238.126 443.853 238.126 440.304V419.267H241.607V433.017H241.739ZM247.059 449.112C251.46 449.112 252.708 444.677 252.708 440.304C252.708 436.122 251.657 430.799 247.519 430.799C243.184 430.799 241.804 436.756 241.804 440.685C241.739 444.613 242.527 449.112 247.059 449.112Z" fill="black"/>
  <path d="M259.145 419.267H264.399V423.452H259.145V419.267ZM259.495 429.182H264.136V451.267H259.495V429.182Z" fill="black"/>
  <path d="M338.46 418.546C338.46 418.65 338.462 418.742 338.465 418.82C338.47 418.898 338.474 418.965 338.479 419.021C338.485 419.078 338.492 419.125 338.5 419.163C338.51 419.202 338.519 419.233 338.528 419.259V419.267H337.965V419.259C337.974 419.233 337.983 419.202 337.991 419.163C338 419.125 338.007 419.078 338.012 419.021C338.018 418.965 338.023 418.898 338.026 418.82C338.031 418.743 338.033 418.651 338.033 418.546V417.345C338.033 417.241 338.031 417.15 338.026 417.072C338.023 416.993 338.018 416.926 338.012 416.869C338.007 416.813 338 416.765 337.991 416.727C337.983 416.688 337.974 416.655 337.965 416.629V416.622L338.063 416.629C338.093 416.632 338.126 416.634 338.162 416.635C338.2 416.635 338.238 416.635 338.277 416.635C338.338 416.635 338.42 416.629 338.524 416.618C338.629 416.606 338.762 416.6 338.923 416.6C339.073 416.6 339.212 416.616 339.338 416.648C339.467 416.68 339.578 416.727 339.672 416.788C339.766 416.85 339.839 416.925 339.89 417.015C339.943 417.103 339.97 417.204 339.97 417.317C339.97 417.406 339.955 417.488 339.925 417.564C339.897 417.639 339.857 417.708 339.803 417.769C339.752 417.831 339.689 417.885 339.615 417.933C339.542 417.98 339.46 418.019 339.369 418.051L340.193 418.961C340.234 419.006 340.271 419.045 340.306 419.079C340.342 419.112 340.375 419.141 340.407 419.165C340.44 419.189 340.471 419.208 340.501 419.224C340.53 419.239 340.561 419.251 340.592 419.259V419.267H339.914C339.909 419.243 339.893 419.213 339.867 419.174C339.842 419.135 339.812 419.096 339.777 419.058L338.946 418.138C338.91 418.141 338.874 418.143 338.838 418.145C338.802 418.147 338.766 418.147 338.728 418.147C338.684 418.147 338.639 418.146 338.594 418.144C338.55 418.141 338.506 418.137 338.46 418.131V418.546ZM338.46 417.987C338.503 417.994 338.546 418 338.589 418.003C338.633 418.006 338.675 418.007 338.716 418.007C338.834 418.007 338.941 417.994 339.038 417.967C339.135 417.938 339.217 417.896 339.284 417.839C339.353 417.783 339.406 417.713 339.444 417.629C339.482 417.544 339.5 417.445 339.5 417.332C339.5 417.24 339.487 417.156 339.461 417.081C339.434 417.006 339.394 416.943 339.341 416.891C339.289 416.838 339.223 416.798 339.144 416.77C339.064 416.74 338.971 416.725 338.864 416.725C338.756 416.725 338.67 416.73 338.606 416.738C338.542 416.747 338.493 416.756 338.46 416.766V417.987Z" fill="#7B7B7B"/>
  <path fill-rule="evenodd" clip-rule="evenodd" d="M338.623 421.725C340.323 421.725 341.702 420.326 341.702 418.6C341.702 416.874 340.323 415.475 338.623 415.475C336.923 415.475 335.544 416.874 335.544 418.6C335.544 420.326 336.923 421.725 338.623 421.725ZM338.623 421.933C340.437 421.933 341.907 420.441 341.907 418.6C341.907 416.759 340.437 415.266 338.623 415.266C336.809 415.266 335.339 416.759 335.339 418.6C335.339 420.441 336.809 421.933 338.623 421.933Z" fill="#7B7B7B"/>
  <path d="M280.163 435.485C280.163 427.064 283.44 419.267 292.179 419.267C300.918 419.267 303.809 427.064 303.809 435.485C303.809 443.594 300.918 451.267 292.179 451.267C283.44 451.267 280.163 443.657 280.163 435.485ZM291.858 448.897C298.348 448.897 299.633 441.162 299.633 435.797C299.633 429.122 298.348 421.575 291.858 421.575C285.432 421.575 284.275 429.122 284.275 435.797C284.275 441.224 285.432 448.897 291.858 448.897Z" fill="#941100"/>
  <path d="M307.247 449.94V447.235C308.98 448.017 311.759 449.142 314.514 449.142C316.543 449.142 318.257 448.657 319.471 447.643C320.699 446.618 321.351 445.107 321.351 443.204C321.351 440.789 320.028 439.189 318.213 437.898C317.31 437.257 316.27 436.679 315.187 436.109C314.873 435.943 314.557 435.779 314.238 435.614C313.446 435.202 312.642 434.785 311.84 434.331L311.84 434.331L311.834 434.328C310.495 433.594 309.273 432.727 308.386 431.578C307.506 430.44 306.937 429.001 306.937 427.079C306.937 424.719 307.824 422.916 309.379 421.691C310.949 420.453 313.25 419.767 316.129 419.767C318.274 419.767 320.885 420.169 322.278 420.429V422.813C320.698 422.146 318.03 421.204 315.384 421.204C313.674 421.204 312.2 421.701 311.146 422.596C310.085 423.497 309.478 424.778 309.478 426.267C309.478 428.783 311.099 430.351 313.084 431.589C314.003 432.162 315.031 432.684 316.055 433.204C316.138 433.246 316.221 433.288 316.305 433.331C317.418 433.896 318.52 434.467 319.519 435.121C321.202 436.25 322.387 437.127 323.166 438.195C323.927 439.236 324.328 440.5 324.328 442.454C324.328 445.366 323.186 447.415 321.349 448.754C319.491 450.108 316.874 450.767 313.893 450.767C310.805 450.767 308.322 450.206 307.247 449.94Z" fill="#941100" stroke="#941100"/>
  <path d="M280.164 455.267C270.968 453.865 270.968 443.62 270.968 435.45C270.968 426.974 270.968 416.852 280.164 415.266V417.218C275.141 419.047 275.141 428.132 275.141 435.998C275.141 443.133 275.141 451.182 280.164 453.255V455.267Z" fill="black"/>
  <path d="M326.142 453.255C330.446 451.182 330.446 443.133 330.446 435.998C330.446 428.072 330.446 419.047 326.142 417.218V415.266C334.024 416.913 334.024 426.974 334.024 435.45C334.024 443.62 334.024 453.865 326.142 455.267V453.255Z" fill="black"/>
  <rect display="none" x="0.5" y="0.5" width="581" height="557" stroke="#897E7E"/>
</svg>
