<svg width="631" height="552" viewBox="0 0 631 552" fill="none" xmlns="http://www.w3.org/2000/svg">
  <path d="M182.649 461V458.12H172.169V447.96H181.769V445.32H172.169V436.04H182.329V433.4H167.769V461H182.649ZM202.146 461L195.586 450.92L201.466 441.96H197.506L193.586 447.88L189.746 441.96H185.186L191.066 451.04L184.386 461H188.466L193.026 454.04L197.586 461H202.146ZM209.617 469.56V458.36H209.697C210.737 460.4 212.257 461.44 214.617 461.44C220.297 461.44 221.817 456.24 221.817 451.48C221.817 446.6 220.497 441.52 214.617 441.52C212.217 441.52 210.617 442.96 209.697 445.08H209.617V441.96H205.577V469.56H209.617ZM213.577 459.12C209.857 459.12 209.777 454.12 209.777 451.48C209.777 448.92 210.057 444.08 213.577 444.08C217.057 444.08 217.417 448.96 217.417 451.48C217.417 453.96 217.017 459.12 213.577 459.12ZM239.999 458.52C238.839 459.04 237.599 459.32 236.359 459.32C231.079 459.32 228.959 453.84 228.959 449.32H240.359C240.359 444.44 238.199 441.52 233.039 441.52C227.199 441.52 224.919 445.2 224.919 450.64C224.919 456.84 227.839 461.44 234.439 461.44C236.519 461.44 238.079 461.16 239.999 460.36V458.52ZM229.079 447.48C229.239 445.28 230.439 443.2 232.879 443.2C235.399 443.2 236.399 445.24 236.399 447.48H229.079ZM248.875 461V452.28C248.875 447.76 250.635 445.84 255.115 445.72V441.52C251.755 441.8 250.315 444.04 248.955 446.8H248.875V441.96H244.835V461H248.875ZM263.298 437.4V433.4H258.938V437.4H263.298ZM263.138 461V441.96H259.098V461H263.138ZM282.968 458.52C281.808 459.04 280.568 459.32 279.328 459.32C274.048 459.32 271.928 453.84 271.928 449.32H283.328C283.328 444.44 281.168 441.52 276.008 441.52C270.168 441.52 267.888 445.2 267.888 450.64C267.888 456.84 270.808 461.44 277.408 461.44C279.488 461.44 281.048 461.16 282.968 460.36V458.52ZM272.048 447.48C272.208 445.28 273.408 443.2 275.848 443.2C278.368 443.2 279.368 445.24 279.368 447.48H272.048ZM303.404 461V447.08C303.404 444.12 301.804 441.52 298.604 441.52C295.324 441.52 293.204 443.68 291.924 446.48H291.844V441.96H287.804V461H291.844V453.12C291.844 450.16 293.204 444.52 296.964 444.52C299.284 444.52 299.364 447.4 299.364 449.08V461H303.404ZM322.567 458.6C321.487 459.04 320.327 459.32 319.167 459.32C314.047 459.32 312.327 453.56 312.327 449.36C312.327 447.2 312.927 443.2 315.847 443.2C318.487 443.2 318.607 446.2 318.607 448.16H322.847C322.847 443.64 320.487 441.52 316.007 441.52C310.247 441.52 307.927 445.36 307.927 450.72C307.927 457.04 310.767 461.44 317.487 461.44C319.207 461.44 320.927 461.08 322.567 460.48V458.6ZM340.038 458.52C338.878 459.04 337.638 459.32 336.398 459.32C331.118 459.32 328.998 453.84 328.998 449.32H340.398C340.398 444.44 338.238 441.52 333.078 441.52C327.238 441.52 324.958 445.2 324.958 450.64C324.958 456.84 327.878 461.44 334.478 461.44C336.558 461.44 338.118 461.16 340.038 460.36V458.52ZM329.118 447.48C329.278 445.28 330.478 443.2 332.918 443.2C335.438 443.2 336.438 445.24 336.438 447.48H329.118ZM86.657 513V492.3H83.357V501.24H75.827V492.3H72.527V513H75.827V503.22H83.357V513H86.657ZM94.9334 519.42L102.283 498.72H99.4334L96.0734 508.92H96.0134L92.2634 498.72H89.1134L94.6034 513.15L92.5034 519.42H94.9334ZM107.633 519.42V511.02H107.693C108.473 512.55 109.613 513.33 111.383 513.33C115.643 513.33 116.783 509.43 116.783 505.86C116.783 502.2 115.793 498.39 111.383 498.39C109.583 498.39 108.383 499.47 107.693 501.06H107.633V498.72H104.603V519.42H107.633ZM110.603 511.59C107.813 511.59 107.753 507.84 107.753 505.86C107.753 503.94 107.963 500.31 110.603 500.31C113.213 500.31 113.483 503.97 113.483 505.86C113.483 507.72 113.183 511.59 110.603 511.59ZM130.419 511.14C129.549 511.53 128.619 511.74 127.689 511.74C123.729 511.74 122.139 507.63 122.139 504.24H130.689C130.689 500.58 129.069 498.39 125.199 498.39C120.819 498.39 119.109 501.15 119.109 505.23C119.109 509.88 121.299 513.33 126.249 513.33C127.809 513.33 128.979 513.12 130.419 512.52V511.14ZM122.229 502.86C122.349 501.21 123.249 499.65 125.079 499.65C126.969 499.65 127.719 501.18 127.719 502.86H122.229ZM137.076 513V506.46C137.076 503.07 138.396 501.63 141.756 501.54V498.39C139.236 498.6 138.156 500.28 137.136 502.35H137.076V498.72H134.046V513H137.076ZM157.973 509.19C156.443 510.39 155.003 511.17 152.993 511.17C148.013 511.17 147.263 505.56 147.263 501.72C147.263 498.87 147.833 493.77 151.643 493.77C154.073 493.77 154.973 495.78 154.973 497.91H158.813C158.813 493.83 155.693 491.97 151.913 491.97C145.793 491.97 143.753 496.92 143.753 502.26C143.753 507.93 145.973 513.33 152.453 513.33C154.343 513.33 156.323 513 157.973 512.01V509.19ZM166.543 513.33C171.193 513.33 172.873 510.12 172.873 505.86C172.873 501.6 171.193 498.39 166.543 498.39C161.893 498.39 160.243 501.63 160.243 505.86C160.243 510.09 161.893 513.33 166.543 513.33ZM166.543 512.07C163.693 512.07 163.543 507.9 163.543 505.86C163.543 503.82 163.693 499.65 166.543 499.65C169.423 499.65 169.573 503.82 169.573 505.86C169.573 507.9 169.423 512.07 166.543 512.07ZM187.992 513V502.56C187.992 500.34 186.792 498.39 184.392 498.39C181.932 498.39 180.342 500.01 179.382 502.11H179.322V498.72H176.292V513H179.322V507.09C179.322 504.87 180.342 500.64 183.162 500.64C184.902 500.64 184.962 502.8 184.962 504.06V513H187.992ZM198.405 513L203.445 498.72H200.655L197.295 508.92H197.235L193.545 498.72H190.335L195.765 513H198.405ZM216.054 511.14C215.184 511.53 214.254 511.74 213.324 511.74C209.364 511.74 207.774 507.63 207.774 504.24H216.324C216.324 500.58 214.704 498.39 210.834 498.39C206.454 498.39 204.744 501.15 204.744 505.23C204.744 509.88 206.934 513.33 211.884 513.33C213.444 513.33 214.614 513.12 216.054 512.52V511.14ZM207.864 502.86C207.984 501.21 208.884 499.65 210.714 499.65C212.604 499.65 213.354 501.18 213.354 502.86H207.864ZM222.711 513V506.46C222.711 503.07 224.031 501.63 227.391 501.54V498.39C224.871 498.6 223.791 500.28 222.771 502.35H222.711V498.72H219.681V513H222.711ZM229.671 519.18C231.021 519.54 232.371 519.75 233.781 519.75C238.791 519.75 240.831 517.44 240.831 512.58V498.72H237.801V501.06H237.741C237.081 499.44 235.821 498.39 234.021 498.39C229.671 498.39 228.651 502.05 228.651 505.71C228.651 509.25 229.821 513 234.021 513C235.671 513 236.901 512.46 237.741 511.02H237.801C237.801 513.93 238.311 517.95 234.261 517.95C232.521 517.95 231.111 517.08 229.671 516.21V519.18ZM234.831 511.26C232.221 511.26 231.951 507.6 231.951 505.71C231.951 503.82 232.251 500.31 234.831 500.31C237.501 500.31 237.711 503.91 237.711 505.86C237.711 507.87 237.591 511.26 234.831 511.26ZM255.488 511.14C254.618 511.53 253.688 511.74 252.758 511.74C248.798 511.74 247.208 507.63 247.208 504.24H255.758C255.758 500.58 254.138 498.39 250.268 498.39C245.888 498.39 244.178 501.15 244.178 505.23C244.178 509.88 246.368 513.33 251.318 513.33C252.878 513.33 254.048 513.12 255.488 512.52V511.14ZM247.298 502.86C247.418 501.21 248.318 499.65 250.148 499.65C252.038 499.65 252.788 501.18 252.788 502.86H247.298ZM270.275 513V492.3H267.245V500.7H267.185C266.375 499.17 265.235 498.39 263.465 498.39C259.235 498.39 258.095 502.32 258.095 505.86C258.095 509.52 259.085 513.33 263.465 513.33C265.265 513.33 266.495 512.25 267.185 510.66H267.245V513H270.275ZM264.275 511.41C261.665 511.41 261.395 507.75 261.395 505.86C261.395 504 261.695 500.13 264.275 500.13C267.065 500.13 267.125 503.88 267.125 505.86C267.125 507.78 266.915 511.41 264.275 511.41ZM287.821 513C295.051 513 297.211 509.37 297.211 502.44C297.211 495.6 294.811 492.3 287.821 492.3H283.171V513H287.821ZM286.471 511.02V494.28H287.821C288.871 494.28 289.981 494.37 290.941 494.79C293.701 496.02 293.911 499.86 293.911 502.44C293.911 507.09 293.431 511.02 287.821 511.02H286.471ZM310.884 513V503.79C310.884 500.13 309.804 498.39 305.844 498.39C302.664 498.39 300.594 499.44 300.354 502.77H303.534C303.624 501.21 303.924 499.65 305.844 499.65C307.884 499.65 307.854 502.35 307.854 503.79V505.05C304.824 505.2 299.874 505.74 299.874 509.76C299.874 511.92 301.734 513.33 303.774 513.33C305.454 513.33 306.954 512.46 307.794 511.02H307.854V513H310.884ZM307.854 507.99C307.854 509.31 307.254 510.51 306.054 511.14C305.724 511.32 305.304 511.44 304.914 511.44C303.744 511.44 303.174 510.36 303.174 509.31C303.174 506.91 305.994 506.43 307.854 506.31V507.99ZM322.777 511.38C322.327 511.56 321.847 511.62 321.367 511.62C319.237 511.62 319.207 510.24 319.207 508.5V500.28H323.107V498.72H319.207V493.53L316.177 495.36V498.72H313.897V500.28H316.177V509.7C316.177 512.64 318.067 513.33 320.677 513.33C321.367 513.33 322.087 513.3 322.777 513.12V511.38ZM335.874 513V503.79C335.874 500.13 334.794 498.39 330.834 498.39C327.654 498.39 325.584 499.44 325.344 502.77H328.524C328.614 501.21 328.914 499.65 330.834 499.65C332.874 499.65 332.844 502.35 332.844 503.79V505.05C329.814 505.2 324.864 505.74 324.864 509.76C324.864 511.92 326.724 513.33 328.764 513.33C330.444 513.33 331.944 512.46 332.784 511.02H332.844V513H335.874ZM332.844 507.99C332.844 509.31 332.244 510.51 331.044 511.14C330.714 511.32 330.294 511.44 329.904 511.44C328.734 511.44 328.164 510.36 328.164 509.31C328.164 506.91 330.984 506.43 332.844 506.31V507.99ZM369.016 513V492.3H364.756L358.996 509.13H358.936L353.206 492.3H348.796V513H351.286V495.12H351.346L357.406 513H359.926L365.986 495.12H366.046V513H369.016ZM383.716 513V503.79C383.716 500.13 382.636 498.39 378.676 498.39C375.496 498.39 373.426 499.44 373.186 502.77H376.366C376.456 501.21 376.756 499.65 378.676 499.65C380.716 499.65 380.686 502.35 380.686 503.79V505.05C377.656 505.2 372.706 505.74 372.706 509.76C372.706 511.92 374.566 513.33 376.606 513.33C378.286 513.33 379.786 512.46 380.626 511.02H380.686V513H383.716ZM380.686 507.99C380.686 509.31 380.086 510.51 378.886 511.14C378.556 511.32 378.136 511.44 377.746 511.44C376.576 511.44 376.006 510.36 376.006 509.31C376.006 506.91 378.826 506.43 380.686 506.31V507.99ZM399.809 513V502.56C399.809 500.34 398.609 498.39 396.209 498.39C393.749 498.39 392.159 500.01 391.199 502.11H391.139V498.72H388.109V513H391.139V507.09C391.139 504.87 392.159 500.64 394.979 500.64C396.719 500.64 396.779 502.8 396.779 504.06V513H399.809ZM414.331 513V503.79C414.331 500.13 413.251 498.39 409.291 498.39C406.111 498.39 404.041 499.44 403.801 502.77H406.981C407.071 501.21 407.371 499.65 409.291 499.65C411.331 499.65 411.301 502.35 411.301 503.79V505.05C408.271 505.2 403.321 505.74 403.321 509.76C403.321 511.92 405.181 513.33 407.221 513.33C408.901 513.33 410.401 512.46 411.241 511.02H411.301V513H414.331ZM411.301 507.99C411.301 509.31 410.701 510.51 409.501 511.14C409.171 511.32 408.751 511.44 408.361 511.44C407.191 511.44 406.621 510.36 406.621 509.31C406.621 506.91 409.441 506.43 411.301 506.31V507.99ZM418.724 519.18C420.074 519.54 421.424 519.75 422.834 519.75C427.844 519.75 429.884 517.44 429.884 512.58V498.72H426.854V501.06H426.794C426.134 499.44 424.874 498.39 423.074 498.39C418.724 498.39 417.704 502.05 417.704 505.71C417.704 509.25 418.874 513 423.074 513C424.724 513 425.954 512.46 426.794 511.02H426.854C426.854 513.93 427.364 517.95 423.314 517.95C421.574 517.95 420.164 517.08 418.724 516.21V519.18ZM423.884 511.26C421.274 511.26 421.004 507.6 421.004 505.71C421.004 503.82 421.304 500.31 423.884 500.31C426.554 500.31 426.764 503.91 426.764 505.86C426.764 507.87 426.644 511.26 423.884 511.26ZM444.541 511.14C443.671 511.53 442.741 511.74 441.811 511.74C437.851 511.74 436.261 507.63 436.261 504.24H444.811C444.811 500.58 443.191 498.39 439.321 498.39C434.941 498.39 433.231 501.15 433.231 505.23C433.231 509.88 435.421 513.33 440.371 513.33C441.931 513.33 443.101 513.12 444.541 512.52V511.14ZM436.351 502.86C436.471 501.21 437.371 499.65 439.201 499.65C441.091 499.65 441.841 501.18 441.841 502.86H436.351ZM467.097 513V503.31C467.097 500.82 466.497 498.39 463.497 498.39C461.127 498.39 460.047 500.01 459.177 501.93H459.117C458.997 499.92 457.677 498.39 455.577 498.39C453.417 498.39 451.857 500.16 451.257 502.11H451.197V498.72H448.167V513H451.197V507.09C451.197 505.14 451.647 500.64 454.317 500.64C456.147 500.64 456.117 502.74 456.117 504.06V513H459.147V507.06C459.147 505.14 459.717 500.64 462.327 500.64C464.007 500.64 464.067 502.56 464.067 503.79V513H467.097ZM481.806 511.14C480.936 511.53 480.006 511.74 479.076 511.74C475.116 511.74 473.526 507.63 473.526 504.24H482.076C482.076 500.58 480.456 498.39 476.586 498.39C472.206 498.39 470.496 501.15 470.496 505.23C470.496 509.88 472.686 513.33 477.636 513.33C479.196 513.33 480.366 513.12 481.806 512.52V511.14ZM473.616 502.86C473.736 501.21 474.636 499.65 476.466 499.65C478.356 499.65 479.106 501.18 479.106 502.86H473.616ZM497.133 513V502.56C497.133 500.34 495.933 498.39 493.533 498.39C491.073 498.39 489.483 500.01 488.523 502.11H488.463V498.72H485.433V513H488.463V507.09C488.463 504.87 489.483 500.64 492.303 500.64C494.043 500.64 494.103 502.8 494.103 504.06V513H497.133ZM509.075 511.38C508.625 511.56 508.145 511.62 507.665 511.62C505.535 511.62 505.505 510.24 505.505 508.5V500.28H509.405V498.72H505.505V493.53L502.475 495.36V498.72H500.195V500.28H502.475V509.7C502.475 512.64 504.365 513.33 506.975 513.33C507.665 513.33 508.385 513.3 509.075 513.12V511.38Z" fill="#1D1D1D"/>
  <path d="M515.736 500V494.384H517.239V493.79H513.243V494.384H514.746V500H515.736ZM524.037 500V493.79H522.759L521.031 498.839H521.013L519.294 493.79H517.971V500H518.718V494.636H518.736L520.554 500H521.31L523.128 494.636H523.146V500H524.037Z" fill="#1D1D1D"/>
  <g clip-path="url(#clip0)">
    <path d="M-5.58398 3.09436L43.0116 12.0335C58.7473 14.9281 73.8536 19.942 87.7714 26.8902C115.578 40.7709 137.591 61.8399 150.683 87.1022L174.218 132.517L204.034 185.51C215.524 205.932 230.912 224.551 249.558 240.595L260.714 250.194C265.419 254.242 270.623 257.837 276.232 260.916C288.228 267.497 301.839 271.583 315.988 272.852L321.232 273.322C340.208 275.022 359.377 272.595 376.979 266.261L392.687 260.609L405.57 257.325C438.369 248.963 472.601 245.052 506.5 249" stroke="url(#paint0_linear)" stroke-width="1.5"/>
    <path d="M-5.58398 128.415L43.0116 133.217C58.7473 134.771 73.8536 137.465 87.7714 141.197C115.578 148.653 137.591 159.97 150.683 173.539L174.218 197.934L204.034 226.398C215.524 237.368 230.912 247.369 249.558 255.987L260.714 261.143C265.419 263.317 270.623 265.249 276.232 266.902C288.228 270.437 301.839 272.632 315.988 273.313L321.231 273.566C340.208 274.479 359.377 273.175 376.979 269.773L392.687 266.738L405.57 264.973C438.369 260.482 473.553 246.974 507.452 249.094" stroke="url(#paint1_linear)" stroke-width="1.5"/>
    <path d="M-5.58398 211.075L10.7912 202.534C52.3438 180.86 104.718 182.273 144.63 206.143C150.12 209.426 155.292 213.089 160.097 217.095L195.392 246.528L232.307 282.732C234.748 285.126 237.407 287.345 240.26 289.368L243.435 291.62C256.402 300.815 273.261 304.831 289.839 302.675C299.637 301.401 308.908 298.022 316.809 292.85L352.308 269.606L359.646 265.916C392.178 249.557 429.523 241.772 467.096 243.518L505.358 249.538" stroke="url(#paint2_linear)" stroke-width="1.5"/>
    <path d="M-19.5439 326.483L-3.61615 338.1C36.8011 367.576 87.7441 365.654 126.566 333.192C131.906 328.727 136.936 323.745 141.61 318.296L175.941 278.268L211.848 229.03C214.221 225.775 216.808 222.756 219.583 220.005L222.671 216.943C235.284 204.438 251.682 198.975 267.807 201.908C277.337 203.641 286.356 208.235 294.041 215.27L328.569 246.882L335.707 251.9C367.35 274.149 393.677 273.075 427.182 260.698L463.478 251.9L483 246.5" stroke="url(#paint3_linear)" stroke-width="1.5"/>
    <path d="M-5.58398 262.269C39.0079 250.431 87.4824 264.072 115.098 296.23L128.412 311.734L160.757 357.376C168.713 368.603 179.293 378.31 191.836 385.892L195.985 388.4C215.171 399.998 238.593 405.333 261.994 403.436C278.232 402.119 293.83 397.369 307.38 389.615L309.771 388.246C318.567 383.212 326.461 377.116 333.208 370.147L348.8 354.046C357.611 344.945 365.614 335.295 372.74 325.177L407.988 275.13L413.623 269.132C427.718 254.127 449.646 246.111 472.09 247.76L506.5 249.5" stroke="url(#paint4_linear)" stroke-width="2"/>
    <path d="M-5.58398 262.269C39.0079 250.431 87.4824 264.072 115.098 296.23L128.412 311.734L160.757 357.376C168.713 368.603 179.293 378.31 191.836 385.892L195.985 388.4C215.171 399.998 238.593 405.333 261.994 403.436C278.232 402.119 293.83 397.369 307.38 389.615L309.771 388.246C318.567 383.212 326.461 377.116 333.208 370.147L348.8 354.046C357.611 344.945 365.614 335.295 372.74 325.177L407.988 275.13L413.623 269.132C427.718 254.127 449.646 246.111 472.09 247.76L509.547 249.868" stroke="url(#paint5_linear)" stroke-width="1.5"/>
    <path d="M-5.58398 219.698C39.0079 229.31 87.4824 234.131 115.098 208.023L128.412 195.435L160.757 158.38C168.713 149.264 179.293 141.383 191.836 135.227L195.985 133.191C215.171 123.775 238.593 119.444 261.994 120.984C278.232 122.053 293.83 125.909 307.38 132.205L309.771 133.316C318.567 137.403 326.461 142.353 333.208 148.01L348.8 161.083C357.611 168.471 365.614 176.306 372.74 184.521L407.988 225.153L413.623 230.023C427.718 242.205 449.646 248.713 472.09 247.375L509.547 249.094" stroke="url(#paint6_linear)" stroke-width="1.5"/>
    <path d="M-5.58398 238.655C39.0079 245.805 87.4824 237.567 115.098 218.145L128.412 208.781L160.757 181.215C168.713 174.434 179.293 168.571 191.836 163.992L195.985 162.477C215.171 155.473 238.593 152.251 261.994 153.397C278.232 154.192 293.83 157.06 307.38 161.744L309.771 162.571C318.567 165.611 326.461 169.293 333.208 173.502L348.8 183.226C357.611 188.722 365.614 194.551 372.74 200.662L407.988 230.888L413.623 234.511C427.718 243.573 449.646 248.415 472.09 247.419L509.547 249.868" stroke="url(#paint7_linear)" stroke-width="1.5"/>
    <path d="M-12.5645 417.736L-9.16806 417.331C42.7987 411.127 90.6626 389.852 126.35 357.093L198.742 281.124L230.484 247.878C235.403 242.726 240.75 237.88 246.481 233.378L264.941 218.876C283.264 204.483 307.281 196.491 332.211 196.491C346.372 196.491 360.37 199.072 373.263 204.062L396.744 213.151L430.787 230.477C451.815 238.877 474.119 244.727 497.052 247.859L503.962 248.803" stroke="url(#paint8_linear)" stroke-width="1.5"/>
    <path d="M1.52246 488.021C39.9044 490.438 76.2918 472.844 94.2384 443.189L103.59 427.736C109.596 417.811 113.844 407.151 116.186 396.118L132.898 317.42C136.884 298.647 144.096 280.505 154.293 263.606L162.824 249.467C168.66 239.794 176.338 231.054 185.533 223.621L196.481 214.77C213.097 201.336 235.593 194.853 258.129 197.002C269.104 198.049 279.699 201.111 289.217 205.985L337.574 230.749L343.753 233.313C360.868 240.413 379 245.481 397.663 248.381C411.862 250.588 426.284 251.527 440.702 251.183L505.029 249.647" stroke="url(#paint9_linear)" stroke-width="1.5"/>
    <path d="M-5.58398 82.9498C34.4076 73.3582 77.3213 81.058 109.524 103.604L126.993 115.833C136.178 122.264 144.564 129.496 152.018 137.414L208.721 197.65L244.942 240.205L268.187 261.433C280.237 272.437 294.724 281.257 310.794 287.371L315.944 289.331C329.332 294.425 343.809 297.057 358.448 297.057C370.227 297.057 381.922 295.353 393.043 292.016L396.064 291.11C406.447 287.996 416.302 283.707 425.371 278.355L438.752 270.459L450.258 264.903C467.621 256.518 486.647 250.814 506.5 249.5" stroke="url(#paint10_linear)" stroke-width="1.5"/>
    <path d="M501 249.357H539.898" stroke="#C66262" stroke-width="2.5"/>
    <path d="M544.693 249.357L534.145 256.07V242.643L544.693 249.357Z" fill="#C66262"/>
  </g>
  <path d="M359.117 446.088H359.173C359.74 444.957 361.383 442.318 364.783 442.318C369.373 442.318 371.867 446.142 371.867 452.067C371.867 458.53 368.75 461.6 363.65 461.6C356 461.6 356 455.298 356 452.282V434.4H359.003V446.088H359.117ZM363.707 459.769C367.503 459.769 368.58 455.998 368.58 452.282C368.58 448.727 367.673 444.203 364.103 444.203C360.363 444.203 359.173 449.266 359.173 452.605C359.117 455.945 359.797 459.769 363.707 459.769Z" fill="black"/>
  <path d="M374.133 434.4H378.666V437.957H374.133V434.4ZM374.435 442.828H378.439V461.6H374.435V442.828Z" fill="black"/>
  <path d="M442.56 433.787C442.56 433.876 442.562 433.954 442.564 434.021C442.568 434.086 442.572 434.143 442.576 434.191C442.582 434.24 442.588 434.28 442.595 434.312C442.603 434.345 442.611 434.372 442.619 434.394V434.4H442.133V434.394C442.141 434.372 442.148 434.345 442.155 434.312C442.163 434.28 442.169 434.24 442.173 434.191C442.179 434.143 442.183 434.086 442.185 434.021C442.19 433.955 442.192 433.877 442.192 433.787V432.767C442.192 432.678 442.19 432.6 442.185 432.535C442.183 432.468 442.179 432.41 442.173 432.362C442.169 432.314 442.163 432.274 442.155 432.241C442.148 432.208 442.141 432.18 442.133 432.158V432.152L442.218 432.158C442.244 432.16 442.272 432.162 442.303 432.163C442.335 432.163 442.368 432.163 442.402 432.163C442.455 432.163 442.526 432.158 442.615 432.149C442.705 432.139 442.82 432.133 442.959 432.133C443.089 432.133 443.208 432.147 443.318 432.174C443.429 432.201 443.524 432.241 443.605 432.293C443.686 432.345 443.749 432.41 443.794 432.486C443.84 432.561 443.863 432.647 443.863 432.743C443.863 432.818 443.85 432.888 443.824 432.953C443.8 433.017 443.765 433.075 443.719 433.127C443.674 433.179 443.62 433.226 443.557 433.267C443.493 433.306 443.422 433.34 443.344 433.367L444.055 434.14C444.09 434.178 444.123 434.212 444.152 434.24C444.183 434.268 444.212 434.293 444.239 434.314C444.268 434.334 444.295 434.35 444.32 434.364C444.346 434.376 444.372 434.386 444.399 434.394V434.4H443.814C443.81 434.38 443.797 434.354 443.774 434.322C443.752 434.288 443.726 434.255 443.697 434.223L442.98 433.441C442.948 433.443 442.917 433.445 442.886 433.447C442.855 433.448 442.824 433.448 442.791 433.448C442.753 433.448 442.715 433.447 442.676 433.445C442.638 433.443 442.599 433.44 442.56 433.434V433.787ZM442.56 433.312C442.597 433.318 442.634 433.323 442.672 433.326C442.709 433.328 442.746 433.329 442.781 433.329C442.882 433.329 442.975 433.318 443.059 433.295C443.142 433.271 443.213 433.235 443.271 433.187C443.331 433.139 443.377 433.079 443.409 433.008C443.441 432.936 443.458 432.852 443.458 432.756C443.458 432.677 443.446 432.606 443.423 432.542C443.4 432.479 443.366 432.425 443.32 432.381C443.275 432.336 443.219 432.302 443.15 432.277C443.081 432.252 443 432.24 442.909 432.24C442.815 432.24 442.741 432.244 442.686 432.251C442.63 432.258 442.589 432.266 442.56 432.274V433.312Z" fill="#7B7B7B"/>
  <path fill-rule="evenodd" clip-rule="evenodd" d="M442.701 436.49C444.168 436.49 445.357 435.3 445.357 433.833C445.357 432.366 444.168 431.177 442.701 431.177C441.234 431.177 440.044 432.366 440.044 433.833C440.044 435.3 441.234 436.49 442.701 436.49ZM442.701 436.667C444.265 436.667 445.534 435.398 445.534 433.833C445.534 432.269 444.265 431 442.701 431C441.136 431 439.867 432.269 439.867 433.833C439.867 435.398 441.136 436.667 442.701 436.667Z" fill="#7B7B7B"/>
  <path d="M392.267 448.186C392.267 441.028 395.094 434.4 402.633 434.4C410.172 434.4 412.667 441.028 412.667 448.186C412.667 455.078 410.172 461.6 402.633 461.6C395.094 461.6 392.267 455.131 392.267 448.186ZM402.356 459.585C407.955 459.585 409.063 453.011 409.063 448.451C409.063 442.777 407.955 436.362 402.356 436.362C396.812 436.362 395.814 442.777 395.814 448.451C395.814 453.064 396.812 459.585 402.356 459.585Z" fill="#941100"/>
  <path d="M415.701 460.412V458.284C417.203 458.948 419.561 459.869 421.901 459.869C423.66 459.869 425.155 459.454 426.219 458.58C427.297 457.693 427.869 456.385 427.869 454.747C427.869 452.657 426.703 451.276 425.129 450.174C424.347 449.626 423.446 449.133 422.511 448.648C422.24 448.507 421.966 448.367 421.691 448.226C421.008 447.877 420.316 447.523 419.625 447.138L419.625 447.138L419.62 447.135C418.468 446.513 417.423 445.782 416.666 444.816C415.918 443.862 415.433 442.656 415.433 441.041C415.433 439.058 416.188 437.549 417.511 436.522C418.85 435.482 420.819 434.9 423.295 434.9C425.111 434.9 427.318 435.23 428.53 435.452V437.306C427.154 436.741 424.895 435.972 422.652 435.972C421.165 435.972 419.878 436.397 418.954 437.171C418.022 437.95 417.488 439.06 417.488 440.35C417.488 442.533 418.918 443.885 420.634 444.94C421.43 445.428 422.319 445.873 423.201 446.314C423.273 446.35 423.346 446.386 423.418 446.423C424.378 446.904 425.326 447.387 426.184 447.941C427.637 448.901 428.648 449.64 429.312 450.536C429.956 451.405 430.299 452.461 430.299 454.109C430.299 456.559 429.326 458.277 427.761 459.401C426.173 460.541 423.929 461.1 421.365 461.1C418.759 461.1 416.653 460.643 415.701 460.412Z" fill="#941100" stroke="#941100"/>
  <path d="M392.267 465C384.334 463.808 384.334 455.101 384.334 448.155C384.334 440.951 384.334 432.348 392.267 431V432.659C387.934 434.213 387.934 441.936 387.934 448.622C387.934 454.686 387.934 461.527 392.267 463.29V465Z" fill="black"/>
  <path d="M431.933 463.29C435.646 461.527 435.646 454.686 435.646 448.622C435.646 441.884 435.646 434.213 431.933 432.659V431C438.733 432.399 438.733 440.951 438.733 448.155C438.733 455.101 438.733 463.808 431.933 465V463.29Z" fill="black"/>
  <defs>
    <linearGradient id="paint0_linear" x1="-66.2913" y1="275.914" x2="638.222" y2="275.914" gradientUnits="userSpaceOnUse">
      <stop/>
      <stop offset="0.445356" stop-opacity="0.510417"/>
      <stop offset="0.757559" stop-color="#C66262"/>
    </linearGradient>
    <linearGradient id="paint1_linear" x1="-66.2913" y1="274.958" x2="638.222" y2="274.958" gradientUnits="userSpaceOnUse">
      <stop/>
      <stop offset="0.445356" stop-opacity="0.510417"/>
      <stop offset="0.757559" stop-color="#C66262"/>
    </linearGradient>
    <linearGradient id="paint2_linear" x1="-66.2632" y1="306.062" x2="637.925" y2="306.062" gradientUnits="userSpaceOnUse">
      <stop/>
      <stop offset="0.445356" stop-opacity="0.510417"/>
      <stop offset="0.757559" stop-color="#C66262"/>
    </linearGradient>
    <linearGradient id="paint3_linear" x1="-78.5653" y1="197.302" x2="606.383" y2="197.302" gradientUnits="userSpaceOnUse">
      <stop/>
      <stop offset="0.445356" stop-opacity="0.510417"/>
      <stop offset="0.757559" stop-color="#C66262"/>
    </linearGradient>
    <linearGradient id="paint4_linear" x1="-65.8241" y1="428.141" x2="637.75" y2="428.141" gradientUnits="userSpaceOnUse">
      <stop/>
      <stop offset="0.445356" stop-opacity="0.510417"/>
      <stop offset="0.757559" stop-color="#C66262"/>
    </linearGradient>
    <linearGradient id="paint5_linear" x1="-65.8241" y1="428.141" x2="637.75" y2="428.141" gradientUnits="userSpaceOnUse">
      <stop/>
      <stop offset="0.445356" stop-opacity="0.510417"/>
      <stop offset="0.757559" stop-color="#C66262"/>
    </linearGradient>
    <linearGradient id="paint6_linear" x1="-65.8241" y1="100.926" x2="637.75" y2="100.926" gradientUnits="userSpaceOnUse">
      <stop/>
      <stop offset="0.445356" stop-opacity="0.510417"/>
      <stop offset="0.757559" stop-color="#C66262"/>
    </linearGradient>
    <linearGradient id="paint7_linear" x1="-65.8241" y1="138.476" x2="637.75" y2="138.476" gradientUnits="userSpaceOnUse">
      <stop/>
      <stop offset="0.445356" stop-opacity="0.510417"/>
      <stop offset="0.757559" stop-color="#C66262"/>
    </linearGradient>
    <linearGradient id="paint8_linear" x1="-73.171" y1="205.69" x2="639.253" y2="205.69" gradientUnits="userSpaceOnUse">
      <stop/>
      <stop offset="0.445356" stop-opacity="0.510417"/>
      <stop offset="0.757559" stop-color="#C66262"/>
    </linearGradient>
    <linearGradient id="paint9_linear" x1="-42.2728" y1="205.86" x2="472.536" y2="205.86" gradientUnits="userSpaceOnUse">
      <stop/>
      <stop offset="0.445356" stop-opacity="0.510417"/>
      <stop offset="0.757559" stop-color="#C66262"/>
    </linearGradient>
    <linearGradient id="paint10_linear" x1="-64.4184" y1="297.057" x2="618.36" y2="297.057" gradientUnits="userSpaceOnUse">
      <stop/>
      <stop offset="0.445356" stop-opacity="0.510417"/>
      <stop offset="0.757559" stop-color="#C66262"/>
    </linearGradient>
    <clipPath id="clip0">
      <rect width="631" height="492" fill="white"/>
    </clipPath>
  </defs>
</svg>
