<svg xmlns="http://www.w3.org/2000/svg" width="831" height="753" viewBox="0 0 831 753" fill="none">
  <g opacity="0.25" clip-path="url(#clip0)">
    <path d="M222.008 188.001L266.092 217.799L303.219 220.975L274.712 253.42L285.904 295.242L214.144 260.907L231.611 242.832L201.895 205.396" stroke="#5B5B5B" stroke-width="0.5" stroke-miterlimit="10" stroke-linejoin="round"/>
    <path d="M105.182 362.627L74.1797 347.501L80.0021 370.341" stroke="#383838" stroke-width="0.5" stroke-miterlimit="10" stroke-linejoin="round"/>
    <path d="M74.1795 347.501L58.7539 377.072" stroke="#383838" stroke-width="0.5" stroke-miterlimit="10" stroke-linejoin="round"/>
    <path d="M141.78 327.006L163.18 324.662" stroke="#4C4C4C" stroke-width="0.5" stroke-miterlimit="10" stroke-linejoin="round"/>
    <path d="M40.9836 365.652L14.0645 451.188L29.0363 448.768L40.9836 365.652ZM40.9836 365.652L58.7533 377.072L49.755 340.317L74.1789 347.502L100.418 345.006" stroke="#353535" stroke-width="0.5" stroke-miterlimit="10" stroke-linejoin="round"/>
    <path d="M105.181 362.627L99.4346 392.274" stroke="#383838" stroke-width="0.5" stroke-miterlimit="10" stroke-linejoin="round"/>
    <path d="M78.8675 398.551L64.5762 402.03" stroke="#383838" stroke-width="0.5" stroke-miterlimit="10" stroke-linejoin="round"/>
    <path d="M40.9846 474.935L35.8428 483.254" stroke="#353535" stroke-width="0.5" stroke-miterlimit="10" stroke-linejoin="round"/>
    <path d="M100.418 566.068L102.535 588.227L120.834 593.521L139.209 567.202L113.273 563.95" stroke="#353535" stroke-width="0.5" stroke-miterlimit="10" stroke-linejoin="round"/>
    <path d="M122.346 546.934L139.209 567.202L102.535 588.227" stroke="#353535" stroke-width="0.5" stroke-miterlimit="10" stroke-linejoin="round"/>
    <path d="M148.434 648.049L167.716 658.259L189.795 664.46L182.763 648.049L161.742 643.587" stroke="#353535" stroke-width="0.5" stroke-miterlimit="10" stroke-linejoin="round"/>
    <path d="M127.337 605.999L167.716 625.965L182.763 542.774L205.902 554.269L231.611 594.655L210.212 627.024L189.795 631.94L198.491 645.25" stroke="#5B5B5B" stroke-width="0.5" stroke-miterlimit="10" stroke-linejoin="round"/>
    <path d="M255.581 608.949L304.731 614.091" stroke="#5B5B5B" stroke-width="0.5" stroke-miterlimit="10" stroke-linejoin="round"/>
    <path d="M177.394 400.139L129.53 398.551L99.4346 392.273L90.1339 420.558L118.792 445.062L102.535 479.851L86.7312 459.734L91.1925 441.508L102.535 479.851L82.6479 484.616L62.5342 489.607L67.4492 502.01L62.5342 525.757L99.4346 520.539L88.8484 507.682L80.9088 499.817L67.4492 502.01" stroke="#353535" stroke-width="0.5" stroke-miterlimit="10" stroke-linejoin="round"/>
    <path d="M70.5498 427.441L91.1929 441.508L70.5498 451.188V427.441Z" stroke="#383838" stroke-width="0.5" stroke-miterlimit="10" stroke-linejoin="round"/>
    <path d="M129.53 398.551L118.793 445.062L139.209 484.616L102.535 479.851" stroke="#383838" stroke-width="0.5" stroke-miterlimit="10" stroke-linejoin="round"/>
    <path d="M252.481 356.426L268.133 392.879H234.635L217.168 385.089L204.465 419.727L218.983 467.373L195.164 448.768" stroke="#5B5B5B" stroke-width="0.5" stroke-miterlimit="10" stroke-linejoin="round"/>
    <path d="M232.065 352.266L234.636 392.879L231.611 439.314L249.608 507.682L232.065 550.715L266.092 570.605L293.314 544.892L320.838 558.958" stroke="#5B5B5B" stroke-width="0.5" stroke-miterlimit="10" stroke-linejoin="round"/>
    <path d="M249.608 507.683L218.983 467.373" stroke="#5B5B5B" stroke-width="0.5" stroke-miterlimit="10" stroke-linejoin="round"/>
    <path d="M367.416 650.318L335.355 695.846L399.251 686.09L367.416 650.318Z" stroke="#757575" stroke-width="0.5" stroke-miterlimit="10" stroke-linejoin="round"/>
    <path d="M392.143 802.936L422.994 770.869L387.833 745.685L392.143 802.936Z" stroke="#757575" stroke-width="0.5" stroke-miterlimit="10" stroke-linejoin="round"/>
    <path d="M434.185 740.467L422.994 770.869L447.72 765.197L487.57 745.685V699.779L434.185 740.467ZM434.185 740.467L447.72 691.913" stroke="#757575" stroke-width="0.5" stroke-miterlimit="10" stroke-linejoin="round"/>
    <path d="M434.186 740.467L447.721 765.197L467.683 802.936" stroke="#757575" stroke-width="0.5" stroke-miterlimit="10" stroke-linejoin="round"/>
    <path d="M502.92 802.936H573.167L583.072 773.214L570.672 708.4L631.996 755.895" stroke="#757575" stroke-width="0.5" stroke-miterlimit="10" stroke-linejoin="round"/>
    <path d="M324.165 529.766L320.838 558.958L355.545 542.85" stroke="#757575" stroke-width="0.5" stroke-miterlimit="10" stroke-linejoin="round"/>
    <path d="M365.073 583.689L355.545 542.85" stroke="#757575" stroke-width="0.5" stroke-miterlimit="10" stroke-linejoin="round"/>
    <path d="M345.564 404.298L363.636 434.247L345.111 462.683H385.489L363.636 434.247L324.165 437.65L358.873 479.17L341.33 507.682L355.546 542.85L415.358 522.808L445.301 507.682L474.262 500.12L475.472 562.589L445.301 507.682L447.721 570.605L444.167 603.579L452.409 640.713" stroke="#757575" stroke-width="0.5" stroke-miterlimit="10" stroke-linejoin="round"/>
    <path d="M314.712 479.851L324.164 437.651L300.421 419.5" stroke="#4C4C4C" stroke-width="0.5" stroke-miterlimit="10" stroke-linejoin="round"/>
    <path d="M602.506 705.677L585.946 663.401H616.722" stroke="#8E8E8E" stroke-width="0.5" stroke-miterlimit="10" stroke-linejoin="round"/>
    <path d="M407.342 580.815L444.167 603.579L502.92 586.563L559.405 571.664L641.75 586.563L605.379 617.571L557.893 571.664L549.726 601.613L529.385 637.007L510.406 645.25L540.425 672.023" stroke="#757575" stroke-width="0.5" stroke-miterlimit="10" stroke-linejoin="round"/>
    <path d="M529.385 637.007L502.92 586.563" stroke="#757575" stroke-width="0.5" stroke-miterlimit="10" stroke-linejoin="round"/>
    <path d="M415.357 617.571L399.251 686.09L452.409 640.713L415.357 617.571Z" stroke="#757575" stroke-width="0.5" stroke-miterlimit="10" stroke-linejoin="round"/>
    <path d="M266.092 570.605L268.133 533.85L249.607 507.683L290.44 505.565L271.007 470.398L314.712 479.851L358.872 479.171L372.71 513.733L341.329 507.683L314.712 479.851L286.357 444.003L324.164 437.651L345.564 404.299L293.54 386.45L268.133 392.879L282.5 333.586L333.238 372.081" stroke="#5B5B5B" stroke-width="0.5" stroke-miterlimit="10" stroke-linejoin="round"/>
    <path d="M249.608 307.04L232.065 352.266L196.677 317.553L214.144 260.907L189.796 292.974" stroke="#5B5B5B" stroke-width="0.5" stroke-miterlimit="10" stroke-linejoin="round"/>
    <path d="M296.791 149.733L336.187 141.187L306.773 188.228L252.481 161.531L174.975 228.841L196.676 317.553" stroke="#5B5B5B" stroke-width="0.5" stroke-miterlimit="10" stroke-linejoin="round"/>
    <path d="M569.764 4.90516L548.894 23.9635L485.68 -3.11145L508.213 100.802L433.883 91.2728L482.352 134.759L508.213 100.802L548.894 83.9368L582.619 75.8446L627.232 105.793L624.132 47.4839L648.631 85.9032L689.993 83.9368L665.342 123.037L627.232 105.793" stroke="#757575" stroke-width="0.5" stroke-miterlimit="10" stroke-linejoin="round"/>
    <path d="M582.619 75.8445L602.052 122.583L548.895 83.9367" stroke="#8E8E8E" stroke-width="0.5" stroke-miterlimit="10" stroke-linejoin="round"/>
    <path d="M367.266 67.0717L435.017 146.406L385.489 138.843" stroke="#757575" stroke-width="0.5" stroke-miterlimit="10" stroke-linejoin="round"/>
    <path d="M580.729 371.854L541.711 444.987L546.021 373.367L580.729 371.854Z" stroke="#8E8E8E" stroke-width="0.5" stroke-miterlimit="10" stroke-linejoin="round"/>
    <path d="M605.531 60.1895L627.232 105.793L573.999 141.187L613.017 177.035L616.722 259.395" stroke="#8E8E8E" stroke-width="0.5" stroke-miterlimit="10" stroke-linejoin="round"/>
    <path d="M579.292 247.975L580.729 371.854L541.711 289.192L546.021 373.366L505.491 324.662" stroke="#757575" stroke-width="0.5" stroke-miterlimit="10" stroke-linejoin="round"/>
    <path d="M645.985 382.669L622.847 371.93L631.996 429.785" stroke="#8E8E8E" stroke-width="0.5" stroke-miterlimit="10" stroke-linejoin="round"/>
    <path d="M541.711 444.986L484.772 376.997L491.956 358.846" stroke="#757575" stroke-width="0.5" stroke-miterlimit="10" stroke-linejoin="round"/>
    <path d="M471.389 395.147L484.773 376.997L491.956 358.846L505.491 324.662L510.104 289.192L498.988 245.781L478.421 252.588L484.773 224.908L498.988 245.781L541.711 289.192H510.104" stroke="#757575" stroke-width="0.5" stroke-miterlimit="10" stroke-linejoin="round"/>
    <path d="M429.346 225.059L392.899 220.597" stroke="#757575" stroke-width="0.5" stroke-miterlimit="10" stroke-linejoin="round"/>
    <path d="M396.075 245.781L379.742 269.226L404.015 275.201L433.883 300.612" stroke="#757575" stroke-width="0.5" stroke-miterlimit="10" stroke-linejoin="round"/>
    <path d="M433.883 300.612L439.252 327.611" stroke="#757575" stroke-width="0.5" stroke-miterlimit="10" stroke-linejoin="round"/>
    <path d="M407.191 333.586L379.742 372.081" stroke="#757575" stroke-width="0.5" stroke-miterlimit="10" stroke-linejoin="round"/>
    <path d="M694.984 135.894V182.783L665.343 180.287L694.984 135.894Z" stroke="#8E8E8E" stroke-width="0.5" stroke-miterlimit="10" stroke-linejoin="round"/>
    <path d="M647.119 144.666L665.343 123.037L648.632 85.9031L627.232 105.793L665.343 180.287L613.017 177.035" stroke="#8E8E8E" stroke-width="0.5" stroke-miterlimit="10" stroke-linejoin="round"/>
    <path d="M665.343 123.037L694.984 135.893L689.993 83.9368" stroke="#8E8E8E" stroke-width="0.5" stroke-miterlimit="10" stroke-linejoin="round"/>
    <path d="M662.771 672.023L675.324 708.4" stroke="#8E8E8E" stroke-width="0.5" stroke-miterlimit="10" stroke-linejoin="round"/>
    <path d="M669.35 216.211L639.406 220.975L645.985 275.806" stroke="#8E8E8E" stroke-width="0.5" stroke-miterlimit="10" stroke-linejoin="round"/>
    <path d="M415.357 617.57L444.167 603.579" stroke="#757575" stroke-width="0.5" stroke-miterlimit="10" stroke-linejoin="round"/>
    <path d="M415.357 522.808L407.342 580.815L355.545 542.85L372.71 513.733L415.357 522.808Z" stroke="#757575" stroke-width="0.5" stroke-miterlimit="10" stroke-linejoin="round"/>
    <path d="M615.284 539.976L616.721 581.874L605.379 617.571" stroke="#8E8E8E" stroke-width="0.5" stroke-miterlimit="10" stroke-linejoin="round"/>
    <path d="M647.119 144.666L694.984 135.894" stroke="#8E8E8E" stroke-width="0.5" stroke-miterlimit="10" stroke-linejoin="round"/>
    <path d="M167.111 161.531L201.895 205.396L223.067 161.531" stroke="#5B5B5B" stroke-width="0.5" stroke-miterlimit="10" stroke-linejoin="round"/>
    <path d="M300.421 419.5L345.563 404.298" stroke="#757575" stroke-width="0.5" stroke-miterlimit="10" stroke-linejoin="round"/>
    <path d="M99.4346 392.273L118.792 445.062" stroke="#383838" stroke-width="0.5" stroke-miterlimit="10" stroke-linejoin="round"/>
    <path d="M78.8672 398.551L99.4346 392.273" stroke="#383838" stroke-width="0.5" stroke-miterlimit="10" stroke-linejoin="round"/>
    <path d="M205.902 502.464L249.608 507.682" stroke="#5B5B5B" stroke-width="0.5" stroke-miterlimit="10" stroke-linejoin="round"/>
    <path d="M252.481 356.426L234.636 392.879L253.464 422.147" stroke="#5B5B5B" stroke-width="0.5" stroke-miterlimit="10" stroke-linejoin="round"/>
    <path d="M231.611 439.314L271.007 470.398" stroke="#5B5B5B" stroke-width="0.5" stroke-miterlimit="10" stroke-linejoin="round"/>
    <path d="M69.1133 539.522L85.6731 529.766" stroke="#353535" stroke-width="0.5" stroke-miterlimit="10" stroke-linejoin="round"/>
    <path d="M502.92 586.563L549.726 601.613L605.379 617.57" stroke="#757575" stroke-width="0.5" stroke-miterlimit="10" stroke-linejoin="round"/>
    <path d="M142.233 305.982L167.716 286.772L189.796 292.974L163.179 324.662" stroke="#4C4C4C" stroke-width="0.5" stroke-miterlimit="10" stroke-linejoin="round"/>
    <path d="M252.481 356.426L249.607 307.041" stroke="#5B5B5B" stroke-width="0.5" stroke-miterlimit="10" stroke-linejoin="round"/>
    <path d="M163.179 324.662L185.637 368.829" stroke="#4C4C4C" stroke-width="0.5" stroke-miterlimit="10" stroke-linejoin="round"/>
    <path d="M42.875 321.788L73.953 307.343L62.5351 327.384" stroke="#353535" stroke-width="0.5" stroke-miterlimit="10" stroke-linejoin="round"/>
    <path d="M99.4346 319.822L73.9521 307.343L109.718 305.982" stroke="#383838" stroke-width="0.5" stroke-miterlimit="10" stroke-linejoin="round"/>
    <path d="M255.355 60.1895L250.44 -3.11145L191.687 13.6024" stroke="#5B5B5B" stroke-width="0.5" stroke-miterlimit="10" stroke-linejoin="round"/>
    <path d="M175.732 127.953L167.111 161.532L174.975 228.841L214.144 260.907L274.712 253.42L300.422 269.226L312.823 292.974" stroke="#5B5B5B" stroke-width="0.5" stroke-miterlimit="10" stroke-linejoin="round"/>
    <path d="M40.9836 365.652L48.2427 410.802L14.0645 451.188L20.8699 473.045L40.9836 474.935L47.5622 462.759L29.0364 448.768L56.0311 444.986L70.5493 427.441L48.2427 410.802L58.7533 377.072" stroke="#353535" stroke-width="0.5" stroke-miterlimit="10" stroke-linejoin="round"/>
    <path d="M88.8485 568.034L102.535 588.227L113.272 563.95L122.346 546.934L94.6709 550.715L113.272 563.95L88.8485 568.034ZM88.8485 568.034L94.6709 550.715L78.8672 547.085L85.6726 529.766" stroke="#353535" stroke-width="0.5" stroke-miterlimit="10" stroke-linejoin="round"/>
    <path d="M189.796 631.94L182.763 648.049L167.716 625.965L189.796 631.94Z" stroke="#383838" stroke-width="0.5" stroke-miterlimit="10" stroke-linejoin="round"/>
    <path d="M282.349 644.04L271.007 623.016L304.732 614.092L306.622 588.227L293.314 544.892L268.134 533.85L232.065 550.715L231.611 594.655L306.622 588.227L255.581 608.949L231.611 594.655L232.065 550.715L205.902 502.464L166.052 441.583L144.502 442.642" stroke="#4C4C4C" stroke-width="0.5" stroke-miterlimit="10" stroke-linejoin="round"/>
    <path d="M155.618 365.652L129.53 398.551" stroke="#383838" stroke-width="0.5" stroke-miterlimit="10" stroke-linejoin="round"/>
    <path d="M94.6708 550.715L108.811 533.85L62.5342 525.758L69.1127 539.522L78.8672 547.085L108.811 533.85L99.4346 520.539L126.127 522.808L106.694 506.472L88.8484 507.682" stroke="#353535" stroke-width="0.5" stroke-miterlimit="10" stroke-linejoin="round"/>
    <path d="M249.607 307.04L285.903 295.242L282.5 333.586L249.607 307.04Z" stroke="#5B5B5B" stroke-width="0.5" stroke-miterlimit="10" stroke-linejoin="round"/>
    <path d="M196.677 317.553L217.169 385.089L231.611 439.314" stroke="#5B5B5B" stroke-width="0.5" stroke-miterlimit="10" stroke-linejoin="round"/>
    <path d="M249.607 507.683L300.421 419.5L268.133 392.879L253.464 422.147L271.007 470.398" stroke="#5B5B5B" stroke-width="0.5" stroke-miterlimit="10" stroke-linejoin="round"/>
    <path d="M487.57 699.778L470.935 671.04L399.251 686.09L387.833 745.685" stroke="#757575" stroke-width="0.5" stroke-miterlimit="10" stroke-linejoin="round"/>
    <path d="M533.167 723.829L540.426 672.023L529.386 637.007L566.438 625.965L585.946 663.401L570.672 708.4" stroke="#8E8E8E" stroke-width="0.5" stroke-miterlimit="10" stroke-linejoin="round"/>
    <path d="M358.872 479.171L385.489 462.684L415.357 522.808L358.872 479.171Z" stroke="#757575" stroke-width="0.5" stroke-miterlimit="10" stroke-linejoin="round"/>
    <path d="M605.379 617.571L653.622 645.25" stroke="#8E8E8E" stroke-width="0.5" stroke-miterlimit="10" stroke-linejoin="round"/>
    <path d="M415.357 617.57L371.425 615.68" stroke="#757575" stroke-width="0.5" stroke-miterlimit="10" stroke-linejoin="round"/>
    <path d="M514.868 546.177L510.406 505.565" stroke="#383838" stroke-width="0.5" stroke-miterlimit="10" stroke-linejoin="round"/>
    <path d="M249.607 307.04L214.144 260.907" stroke="#5B5B5B" stroke-width="0.5" stroke-miterlimit="10" stroke-linejoin="round"/>
    <path d="M523.186 -10.5987L569.765 4.90512L554.869 -36.7661L523.186 -10.5987Z" stroke="#8E8E8E" stroke-width="0.5" stroke-miterlimit="10" stroke-linejoin="round"/>
    <path d="M392.899 220.597L436.605 208.95" stroke="#757575" stroke-width="0.5" stroke-miterlimit="10" stroke-linejoin="round"/>
    <path d="M616.722 259.395L622.846 371.93L580.729 371.854" stroke="#8E8E8E" stroke-width="0.5" stroke-miterlimit="10" stroke-linejoin="round"/>
    <path d="M541.711 289.192L505.491 324.662" stroke="#757575" stroke-width="0.5" stroke-miterlimit="10" stroke-linejoin="round"/>
    <path d="M333.238 225.891L358.872 210.69L355.469 247.823L333.238 225.891Z" stroke="#757575" stroke-width="0.5" stroke-miterlimit="10" stroke-linejoin="round"/>
    <path d="M423.977 331.922L407.19 333.586L400.158 368.829L387.379 399.08" stroke="#757575" stroke-width="0.5" stroke-miterlimit="10" stroke-linejoin="round"/>
    <path d="M396.075 245.781L392.899 220.597L457.551 254.857L490.746 290.478L498.988 245.781" stroke="#757575" stroke-width="0.5" stroke-miterlimit="10" stroke-linejoin="round"/>
    <path d="M375.508 242.832L379.742 269.226" stroke="#757575" stroke-width="0.5" stroke-miterlimit="10" stroke-linejoin="round"/>
    <path d="M405.3 299.402L379.742 269.226" stroke="#757575" stroke-width="0.5" stroke-miterlimit="10" stroke-linejoin="round"/>
    <path d="M433.883 300.612L423.978 267.638" stroke="#757575" stroke-width="0.5" stroke-miterlimit="10" stroke-linejoin="round"/>
    <path d="M648.632 85.9031L678.424 37.4253L689.994 83.9367" stroke="#8E8E8E" stroke-width="0.5" stroke-miterlimit="10" stroke-linejoin="round"/>
    <path d="M624.132 47.4839L678.424 37.4253" stroke="#8E8E8E" stroke-width="0.5" stroke-miterlimit="10" stroke-linejoin="round"/>
    <path d="M631.996 429.785L653.622 444.986L640.314 505.565" stroke="#8E8E8E" stroke-width="0.5" stroke-miterlimit="10" stroke-linejoin="round"/>
    <path d="M675.324 346.745L662.696 396.509L653.622 444.986" stroke="#8E8E8E" stroke-width="0.5" stroke-miterlimit="10" stroke-linejoin="round"/>
    <path d="M582.619 -36.7661L569.765 4.90512L598.272 -10.5987L582.619 -36.7661Z" stroke="#8E8E8E" stroke-width="0.5" stroke-miterlimit="10" stroke-linejoin="round"/>
    <path d="M385.489 138.843L433.883 91.2728L446.738 39.6186L485.68 -3.11144L403.486 -19.5228L439.252 -58.1689L448.175 -10.5987L495.661 -58.1689H439.252L481.748 -92.2017L495.661 -58.1689L554.868 -36.7661H582.619L617.478 -52.1186L598.272 -10.5987" stroke="#757575" stroke-width="0.5" stroke-miterlimit="10" stroke-linejoin="round"/>
    <path d="M645.985 382.669L631.996 429.785L640.314 505.565" stroke="#8E8E8E" stroke-width="0.5" stroke-miterlimit="10" stroke-linejoin="round"/>
    <path d="M106.694 506.472L139.209 484.616V567.202L156.525 541.866L167.716 484.616L205.902 502.464L195.165 448.768L177.395 400.139L155.618 365.652L144.502 442.642L139.209 484.616L156.525 541.866L182.764 542.774L198.492 590.117L210.212 627.024L255.582 608.949L271.007 623.016" stroke="#5B5B5B" stroke-width="0.5" stroke-miterlimit="10" stroke-linejoin="round"/>
    <path d="M126.127 522.808L139.208 484.616H167.716" stroke="#383838" stroke-width="0.5" stroke-miterlimit="10" stroke-linejoin="round"/>
    <path d="M616.722 259.395L577.704 299.402L619.519 310.671L580.729 371.854" stroke="#8E8E8E" stroke-width="0.5" stroke-miterlimit="10" stroke-linejoin="round"/>
    <path d="M315.62 55.6517L351.235 105.415L385.489 138.843" stroke="#757575" stroke-width="0.5" stroke-miterlimit="10" stroke-linejoin="round"/>
    <path d="M29.0371 448.768L40.9844 474.935" stroke="#353535" stroke-width="0.5" stroke-miterlimit="10" stroke-linejoin="round"/>
    <path d="M314.713 479.851L345.11 462.684" stroke="#757575" stroke-width="0.5" stroke-miterlimit="10" stroke-linejoin="round"/>
    <path d="M80.9092 499.817L106.694 506.472" stroke="#383838" stroke-width="0.5" stroke-miterlimit="10" stroke-linejoin="round"/>
    <path d="M85.673 529.766L99.435 520.539L106.694 506.472L102.535 479.851L80.9092 499.817" stroke="#353535" stroke-width="0.5" stroke-miterlimit="10" stroke-linejoin="round"/>
    <path d="M74.1793 347.502L73.7256 333.586" stroke="#383838" stroke-width="0.5" stroke-miterlimit="10" stroke-linejoin="round"/>
    <path d="M35.8428 335.704L42.875 321.788L49.7561 340.317L73.7262 333.586L100.419 345.006" stroke="#353535" stroke-width="0.5" stroke-miterlimit="10" stroke-linejoin="round"/>
    <path d="M100.418 345.006L113.046 327.763L73.7256 333.586L99.4349 319.822L113.046 327.763L109.719 305.982" stroke="#383838" stroke-width="0.5" stroke-miterlimit="10" stroke-linejoin="round"/>
    <path d="M141.78 327.006L113.046 327.763L142.234 305.982" stroke="#4C4C4C" stroke-width="0.5" stroke-miterlimit="10" stroke-linejoin="round"/>
    <path d="M49.7555 340.317L62.5345 327.384L42.8744 321.788L24.8779 306.057L35.8422 335.704" stroke="#353535" stroke-width="0.5" stroke-miterlimit="10" stroke-linejoin="round"/>
    <path d="M73.7253 333.586L62.5342 327.384L99.4346 319.822L109.718 305.982H142.233" stroke="#4C4C4C" stroke-width="0.5" stroke-miterlimit="10" stroke-linejoin="round"/>
    <path d="M141.78 327.006L142.234 305.982L163.18 324.662" stroke="#4C4C4C" stroke-width="0.5" stroke-miterlimit="10" stroke-linejoin="round"/>
    <path d="M73.9525 307.343L24.8779 306.057L57.317 287.604L73.9525 307.343Z" stroke="#353535" stroke-width="0.5" stroke-miterlimit="10" stroke-linejoin="round"/>
    <path d="M73.9528 307.343L104.426 291.385L57.3174 287.604L93.6129 276.94L138.755 278.68L104.426 291.385" stroke="#4C4C4C" stroke-width="0.5" stroke-miterlimit="10" stroke-linejoin="round"/>
    <path d="M109.719 305.982L104.426 291.385L142.234 305.982L138.755 278.68L167.716 286.772" stroke="#4C4C4C" stroke-width="0.5" stroke-miterlimit="10" stroke-linejoin="round"/>
    <path d="M5.5957 238.067L11.1156 272.403L24.8777 306.057" stroke="#353535" stroke-width="0.5" stroke-miterlimit="10" stroke-linejoin="round"/>
    <path d="M5.5957 238.067L25.1802 239.958L57.3168 287.604" stroke="#353535" stroke-width="0.5" stroke-miterlimit="10" stroke-linejoin="round"/>
    <path d="M25.1807 239.958L47.6385 253.42L93.6128 276.94L104.426 291.385" stroke="#353535" stroke-width="0.5" stroke-miterlimit="10" stroke-linejoin="round"/>
    <path d="M139.662 123.037L167.111 161.532" stroke="#383838" stroke-width="0.5" stroke-miterlimit="10" stroke-linejoin="round"/>
    <path d="M25.18 239.958L25.4825 194.884L23.7433 149.809L0.529297 188.758" stroke="#353535" stroke-width="0.5" stroke-miterlimit="10" stroke-linejoin="round"/>
    <path d="M46.6553 217.799L93.6126 276.94L174.975 228.841" stroke="#353535" stroke-width="0.5" stroke-miterlimit="10" stroke-linejoin="round"/>
    <path d="M46.6553 217.799L80.5311 233.076L93.6126 276.94" stroke="#353535" stroke-width="0.5" stroke-miterlimit="10" stroke-linejoin="round"/>
    <path d="M174.975 228.841L124.993 226.95L80.5312 233.076L135.05 252.437L138.755 278.68L174.975 228.841Z" stroke="#4C4C4C" stroke-width="0.5" stroke-miterlimit="10" stroke-linejoin="round"/>
    <path d="M42.3457 155.632L73.7262 188.001L46.6558 217.799" stroke="#353535" stroke-width="0.5" stroke-miterlimit="10" stroke-linejoin="round"/>
    <path d="M139.663 123.037L113.046 161.531H167.111L124.993 226.95L113.046 161.531L73.7258 188.001L71.7598 158.053" stroke="#4C4C4C" stroke-width="0.5" stroke-miterlimit="10" stroke-linejoin="round"/>
    <path d="M38.7158 88.6257L71.7598 100.802L42.3454 155.632" stroke="#353535" stroke-width="0.5" stroke-miterlimit="10" stroke-linejoin="round"/>
    <path d="M38.7158 28.5012L71.7598 100.802V158.053" stroke="#353535" stroke-width="0.5" stroke-miterlimit="10" stroke-linejoin="round"/>
    <path d="M38.7158 28.5012L86.9586 42.6437L71.7598 100.802L113.046 161.531L42.3454 155.632" stroke="#353535" stroke-width="0.5" stroke-miterlimit="10" stroke-linejoin="round"/>
    <path d="M38.7158 28.5012L71.4574 -31.8502L58.4515 34.249L38.7158 88.6258" stroke="#353535" stroke-width="0.5" stroke-miterlimit="10" stroke-linejoin="round"/>
    <path d="M71.7598 100.802L139.663 123.037L86.9585 42.6437L185.713 88.6257" stroke="#383838" stroke-width="0.5" stroke-miterlimit="10" stroke-linejoin="round"/>
    <path d="M71.457 -31.8503L115.919 -79.5718L135.05 4.9051L182.763 -54.9169L191.686 13.6024" stroke="#383838" stroke-width="0.5" stroke-miterlimit="10" stroke-linejoin="round"/>
    <path d="M223.067 161.531L238.568 117.44L167.111 161.531H252.481L238.568 117.44L267.68 102.92L255.355 60.1895L238.568 117.44L185.713 88.6257L255.355 60.1895L191.686 13.6024L185.713 88.6257L175.732 127.952" stroke="#5B5B5B" stroke-width="0.5" stroke-miterlimit="10" stroke-linejoin="round"/>
    <path d="M105.182 362.627L80.002 370.341" stroke="#383838" stroke-width="0.5" stroke-miterlimit="10" stroke-linejoin="round"/>
    <path d="M189.796 664.46L248.171 653.191L244.088 642.981L189.796 664.46Z" stroke="#353535" stroke-width="0.5" stroke-miterlimit="10" stroke-linejoin="round"/>
    <path d="M189.795 664.46L198.491 645.25L182.763 648.049L167.716 658.258L161.742 643.587L167.716 625.965L161.742 579.454L147.073 595.789L147.148 615.831L134.898 631.94L125.144 620.747L127.337 605.999L147.073 595.789L139.209 567.202L127.337 605.999L120.834 593.521" stroke="#353535" stroke-width="0.5" stroke-miterlimit="10" stroke-linejoin="round"/>
    <path d="M86.7314 459.734L70.5497 451.188L64.576 462.759H47.5625" stroke="#353535" stroke-width="0.5" stroke-miterlimit="10" stroke-linejoin="round"/>
    <path d="M314.411 745.685H339.364L296.565 781.911" stroke="#383838" stroke-width="0.5" stroke-miterlimit="10" stroke-linejoin="round"/>
    <path d="M231.611 439.314L177.395 400.139L217.168 385.089" stroke="#5B5B5B" stroke-width="0.5" stroke-miterlimit="10" stroke-linejoin="round"/>
    <path d="M339.364 776.088L320.838 802.936L296.565 781.911L339.364 776.088ZM339.364 776.088V745.685L371.425 774.273L392.144 802.936H358.873L371.425 774.273L389.875 773.138L422.995 770.869L423.448 802.936H392.144" stroke="#757575" stroke-width="0.5" stroke-miterlimit="10" stroke-linejoin="round"/>
    <path d="M470.934 671.04L452.408 640.713L491.35 623.016L510.406 645.25L470.934 671.04ZM470.934 671.04L387.833 745.685L335.355 695.846" stroke="#757575" stroke-width="0.5" stroke-miterlimit="10" stroke-linejoin="round"/>
    <path d="M474.261 500.12L460.272 453.381L502.315 455.423L484.772 376.997" stroke="#757575" stroke-width="0.5" stroke-miterlimit="10" stroke-linejoin="round"/>
    <path d="M335.129 206.984L303.219 220.975L323.786 259.773L300.421 269.226L303.219 220.975" stroke="#4C4C4C" stroke-width="0.5" stroke-miterlimit="10" stroke-linejoin="round"/>
    <path d="M448.174 -10.5988L446.737 39.6185L508.213 100.802" stroke="#757575" stroke-width="0.5" stroke-miterlimit="10" stroke-linejoin="round"/>
    <path d="M358.872 210.69L392.899 220.597L375.508 242.832L358.872 210.69ZM358.872 210.69L385.489 138.843L436.605 208.95L495.661 174.464L538.384 154.574L545.567 225.891L495.661 174.464L482.352 134.759" stroke="#757575" stroke-width="0.5" stroke-miterlimit="10" stroke-linejoin="round"/>
    <path d="M546.021 373.366L484.772 376.997" stroke="#757575" stroke-width="0.5" stroke-miterlimit="10" stroke-linejoin="round"/>
    <path d="M379.742 372.081L400.158 368.829" stroke="#757575" stroke-width="0.5" stroke-miterlimit="10" stroke-linejoin="round"/>
    <path d="M363.636 434.247L387.379 399.08L385.489 462.684L402.805 410.424" stroke="#757575" stroke-width="0.5" stroke-miterlimit="10" stroke-linejoin="round"/>
    <path d="M293.541 386.45L333.239 372.081L285.903 295.242L312.822 292.974L328.248 330.032L358.872 347.502L379.742 372.081" stroke="#757575" stroke-width="0.5" stroke-miterlimit="10" stroke-linejoin="round"/>
    <path d="M413.618 254.857L396.075 245.781L404.015 275.201L457.551 254.857L463.449 292.974L490.746 290.478L463.449 321.107L423.977 331.922L428.212 372.081L402.805 410.424L428.212 389.853L448.552 408.08" stroke="#757575" stroke-width="0.5" stroke-miterlimit="10" stroke-linejoin="round"/>
    <path d="M463.449 292.974L433.883 300.612L463.449 321.107" stroke="#757575" stroke-width="0.5" stroke-miterlimit="10" stroke-linejoin="round"/>
    <path d="M333.238 225.891L323.787 259.773L312.822 292.973L335.961 294.335L352.218 296.982L355.469 247.823" stroke="#757575" stroke-width="0.5" stroke-miterlimit="10" stroke-linejoin="round"/>
    <path d="M252.481 161.531L266.092 217.799L231.611 242.832L222.008 188.001L223.066 161.531L213.236 133.095" stroke="#5B5B5B" stroke-width="0.5" stroke-miterlimit="10" stroke-linejoin="round"/>
    <path d="M35.8428 335.704L49.7561 340.317L40.9846 365.652L35.8428 335.704Z" stroke="#353535" stroke-width="0.5" stroke-miterlimit="10" stroke-linejoin="round"/>
    <path d="M448.553 408.08L460.273 453.381" stroke="#757575" stroke-width="0.5" stroke-miterlimit="10" stroke-linejoin="round"/>
    <path d="M463.449 321.107V292.974" stroke="#757575" stroke-width="0.5" stroke-miterlimit="10" stroke-linejoin="round"/>
    <path d="M404.015 275.201L407.191 333.586L382.238 299.024L379.742 335.704L360.914 323.603L328.248 330.032L352.218 296.982L382.238 299.024L352.218 296.982L360.914 323.603L358.872 347.502L333.239 372.081L328.248 330.032L285.903 295.242" stroke="#757575" stroke-width="0.5" stroke-miterlimit="10" stroke-linejoin="round"/>
    <path d="M675.324 346.745L683.037 303.94L648.632 343.191L645.985 275.806L619.52 310.671L648.632 343.191L645.985 382.669" stroke="#8E8E8E" stroke-width="0.5" stroke-miterlimit="10" stroke-linejoin="round"/>
    <path d="M645.984 275.806L683.036 303.94L694.983 182.783" stroke="#8E8E8E" stroke-width="0.5" stroke-miterlimit="10" stroke-linejoin="round"/>
    <path d="M625.342 703.711L631.996 755.895L675.324 708.4L616.722 663.401L625.342 703.711ZM625.342 703.711L662.772 672.023L653.622 645.25L641.75 586.563L640.314 542.85V505.565L621.561 502.464H593.961L568.781 514.716L541.711 518.119" stroke="#8E8E8E" stroke-width="0.5" stroke-miterlimit="10" stroke-linejoin="round"/>
    <path d="M653.622 645.25L616.722 663.401" stroke="#8E8E8E" stroke-width="0.5" stroke-miterlimit="10" stroke-linejoin="round"/>
    <path d="M605.379 617.571L616.721 663.401" stroke="#8E8E8E" stroke-width="0.5" stroke-miterlimit="10" stroke-linejoin="round"/>
    <path d="M570.672 708.4L625.342 703.711L675.324 708.4L704.739 760.886L631.996 755.895L613.924 802.936L601.372 732.147L583.073 773.214L613.924 802.936H667.158L631.996 755.895" stroke="#8E8E8E" stroke-width="0.5" stroke-miterlimit="10" stroke-linejoin="round"/>
    <path d="M616.722 663.401L602.506 705.677L601.372 732.147L625.342 703.711" stroke="#8E8E8E" stroke-width="0.5" stroke-miterlimit="10" stroke-linejoin="round"/>
    <path d="M653.622 645.25L645.984 686.241" stroke="#8E8E8E" stroke-width="0.5" stroke-miterlimit="10" stroke-linejoin="round"/>
    <path d="M523.185 -10.5988L548.894 23.9634L605.531 60.1894L569.764 4.90506L624.132 47.4838L598.271 -10.5988L678.424 37.4253L665.343 -10.5988L648.934 19.5013L624.132 47.4838L582.619 75.8444L548.894 23.9634V83.9367L485.68 -3.11155" stroke="#757575" stroke-width="0.5" stroke-miterlimit="10" stroke-linejoin="round"/>
    <path d="M435.018 146.406L482.353 134.759" stroke="#757575" stroke-width="0.5" stroke-miterlimit="10" stroke-linejoin="round"/>
    <path d="M385.489 462.684H418.231" stroke="#757575" stroke-width="0.5" stroke-miterlimit="10" stroke-linejoin="round"/>
    <path d="M457.551 254.857L433.883 300.612" stroke="#757575" stroke-width="0.5" stroke-miterlimit="10" stroke-linejoin="round"/>
    <path d="M300.422 269.226L285.903 295.242" stroke="#383838" stroke-width="0.5" stroke-miterlimit="10" stroke-linejoin="round"/>
    <path d="M358.872 347.502L379.742 335.704" stroke="#757575" stroke-width="0.5" stroke-miterlimit="10" stroke-linejoin="round"/>
    <path d="M360.914 323.603L382.238 299.024" stroke="#757575" stroke-width="0.5" stroke-miterlimit="10" stroke-linejoin="round"/>
    <path d="M385.489 138.843L392.9 220.597" stroke="#757575" stroke-width="0.5" stroke-miterlimit="10" stroke-linejoin="round"/>
    <path d="M166.053 441.583L195.165 448.768L204.465 419.727" stroke="#383838" stroke-width="0.5" stroke-miterlimit="10" stroke-linejoin="round"/>
    <path d="M185.637 368.829L177.395 400.139L166.053 441.583" stroke="#383838" stroke-width="0.5" stroke-miterlimit="10" stroke-linejoin="round"/>
    <path d="M253.464 422.147L286.357 444.003" stroke="#5B5B5B" stroke-width="0.5" stroke-miterlimit="10" stroke-linejoin="round"/>
    <path d="M274.712 253.42L266.092 217.799" stroke="#5B5B5B" stroke-width="0.5" stroke-miterlimit="10" stroke-linejoin="round"/>
    <path d="M252.481 161.531L296.792 149.733" stroke="#5B5B5B" stroke-width="0.5" stroke-miterlimit="10" stroke-linejoin="round"/>
    <path d="M161.742 643.587L147.148 615.831" stroke="#383838" stroke-width="0.5" stroke-miterlimit="10" stroke-linejoin="round"/>
    <path d="M293.767 -92.2017L250.439 -3.11144L322.955 4.90517L390.48 15.5688L367.266 67.0717L315.62 55.6518L390.48 15.5688L403.485 -19.5228L446.738 39.6186L390.48 15.5688L433.883 91.2728L367.266 67.0717L385.489 138.843L336.188 141.187" stroke="#5B5B5B" stroke-width="0.5" stroke-miterlimit="10" stroke-linejoin="round"/>
    <path d="M80.531 233.076L73.7256 188.001L124.993 226.95L135.05 252.437" stroke="#4C4C4C" stroke-width="0.5" stroke-miterlimit="10" stroke-linejoin="round"/>
    <path d="M191.686 13.6024L135.05 4.90516L71.457 -31.8502L86.9582 42.6437L135.05 4.90516L138.755 65.8616L191.686 13.6024Z" stroke="#383838" stroke-width="0.5" stroke-miterlimit="10" stroke-linejoin="round"/>
    <path d="M139.662 123.037L138.755 65.8616" stroke="#383838" stroke-width="0.5" stroke-miterlimit="10" stroke-linejoin="round"/>
    <path d="M467.683 802.935H423.448L447.721 765.197L460.273 720.803L487.57 745.685L533.166 723.828L487.57 699.779L540.426 672.023L570.672 708.4L533.166 723.828L583.073 773.214L502.92 802.935L487.57 745.685L467.683 802.935ZM467.683 802.935H502.92L533.166 723.828" stroke="#757575" stroke-width="0.5" stroke-miterlimit="10" stroke-linejoin="round"/>
    <path d="M185.712 88.6257L139.662 123.037L213.236 133.095L185.712 88.6257Z" stroke="#353535" stroke-width="0.5" stroke-miterlimit="10" stroke-linejoin="round"/>
    <path d="M163.179 324.662L174.975 228.841L231.611 242.832L274.712 253.42L245.222 275.806L249.607 307.04L196.676 317.553" stroke="#4C4C4C" stroke-width="0.5" stroke-miterlimit="10" stroke-linejoin="round"/>
    <path d="M20.8699 473.045L35.8418 483.254L62.5341 489.607L40.9836 474.935L14.0645 451.188" stroke="#353535" stroke-width="0.5" stroke-miterlimit="10" stroke-linejoin="round"/>
    <path d="M134.898 631.94L161.742 643.587L148.434 648.049L134.898 631.94ZM134.898 631.94L127.337 605.999" stroke="#353535" stroke-width="0.5" stroke-miterlimit="10" stroke-linejoin="round"/>
    <path d="M86.7316 459.734L82.6483 484.616L64.5762 462.759L86.7316 459.734Z" stroke="#383838" stroke-width="0.5" stroke-miterlimit="10" stroke-linejoin="round"/>
    <path d="M232.065 352.266L185.637 368.829L155.617 365.652L163.179 324.662L196.676 317.553" stroke="#4C4C4C" stroke-width="0.5" stroke-miterlimit="10" stroke-linejoin="round"/>
    <path d="M126.128 522.808L122.347 546.934L108.812 533.85L126.128 522.808ZM126.128 522.808L139.209 567.202L161.742 579.454L174.219 590.117" stroke="#353535" stroke-width="0.5" stroke-miterlimit="10" stroke-linejoin="round"/>
    <path d="M447.721 691.913L399.251 686.09L434.186 740.467L387.833 745.685L375.811 690.401L352.143 672.023L317.738 647.897L367.417 650.318L371.425 615.68L407.342 580.815L365.073 583.689L317.738 647.897L371.425 615.68L365.073 583.689L338.91 584.596L320.838 558.958L306.622 588.227L338.91 584.596L317.738 647.897L335.356 695.846L314.411 745.685L286.206 802.936" stroke="#757575" stroke-width="0.5" stroke-miterlimit="10" stroke-linejoin="round"/>
    <path d="M339.363 745.685L361.972 722.089L375.81 690.4L367.417 650.317L415.357 617.57L407.342 580.815L447.72 570.605" stroke="#757575" stroke-width="0.5" stroke-miterlimit="10" stroke-linejoin="round"/>
    <path d="M205.902 502.464L218.984 467.373L231.612 439.314L253.465 422.147L300.422 419.5L282.501 333.586" stroke="#5E5E5E" stroke-width="0.5" stroke-miterlimit="10" stroke-linejoin="round"/>
    <path d="M621.561 502.464L605.379 433.113L593.961 502.464L641.75 586.563" stroke="#8E8E8E" stroke-width="0.5" stroke-miterlimit="10" stroke-linejoin="round"/>
    <path d="M460.273 453.381L445.301 507.683L418.23 462.684L460.273 453.381Z" stroke="#757575" stroke-width="0.5" stroke-miterlimit="10" stroke-linejoin="round"/>
    <path d="M367.266 67.0717L336.188 141.187L358.872 210.69L335.129 206.984L336.188 141.187" stroke="#757575" stroke-width="0.5" stroke-miterlimit="10" stroke-linejoin="round"/>
    <path d="M433.883 91.2727L436.605 208.95L482.352 134.759L538.384 154.574L508.213 100.802L573.999 141.187L548.894 83.9368" stroke="#757575" stroke-width="0.5" stroke-miterlimit="10" stroke-linejoin="round"/>
    <path d="M306.774 188.228L296.792 149.733L267.68 102.919L252.481 161.531L303.22 220.975L306.774 188.228ZM306.774 188.228L335.129 206.984L333.239 225.891L303.22 220.975" stroke="#5B5B5B" stroke-width="0.5" stroke-miterlimit="10" stroke-linejoin="round"/>
    <path d="M423.978 416.021L448.553 408.08L471.389 395.148L465.49 373.367L484.772 376.997L475.925 356.728L485.68 324.662H505.491L490.746 290.478L478.421 252.588L436.605 208.95L484.772 224.908L462.163 235.572L457.551 254.857" stroke="#757575" stroke-width="0.5" stroke-miterlimit="10" stroke-linejoin="round"/>
    <path d="M463.449 321.107L461.634 349.014" stroke="#757575" stroke-width="0.5" stroke-miterlimit="10" stroke-linejoin="round"/>
    <path d="M457.55 254.857L429.346 225.059" stroke="#757575" stroke-width="0.5" stroke-miterlimit="10" stroke-linejoin="round"/>
    <path d="M404.015 275.201L413.618 254.857L428.514 239.429L423.977 267.638L413.618 254.857L409.988 229.673" stroke="#757575" stroke-width="0.5" stroke-miterlimit="10" stroke-linejoin="round"/>
    <path d="M510.104 289.192L490.746 290.478L485.68 324.662L495.661 349.014L475.925 356.728L465.49 373.366L461.634 349.014L485.68 324.662L463.449 321.107L428.212 372.081V389.853L465.49 373.366L441.974 352.796L461.634 349.014" stroke="#757575" stroke-width="0.5" stroke-miterlimit="10" stroke-linejoin="round"/>
    <path d="M44.2358 446.65L48.2434 410.802L56.0318 444.987L47.5629 462.759L44.2358 446.65ZM44.2358 446.65L31.6836 430.39" stroke="#353535" stroke-width="0.5" stroke-miterlimit="10" stroke-linejoin="round"/>
    <path d="M137.772 365.652L105.182 362.627L100.418 345.006L141.78 327.006" stroke="#4C4C4C" stroke-width="0.5" stroke-miterlimit="10" stroke-linejoin="round"/>
    <path d="M137.772 365.652L129.53 398.551L144.502 442.642" stroke="#383838" stroke-width="0.5" stroke-miterlimit="10" stroke-linejoin="round"/>
    <path d="M335.355 695.846L339.363 745.685H387.833L371.424 774.272L339.363 776.088" stroke="#757575" stroke-width="0.5" stroke-miterlimit="10" stroke-linejoin="round"/>
    <path d="M428.212 372.081L407.191 333.586L379.742 335.704V372.081" stroke="#757575" stroke-width="0.5" stroke-miterlimit="10" stroke-linejoin="round"/>
    <path d="M478.421 252.588L457.551 254.857L436.605 208.95L429.346 225.059L409.989 229.673L396.075 245.781L375.508 242.832L355.47 247.823L379.742 269.226L382.238 299.024L433.883 300.612L423.978 331.922L441.974 352.796L439.252 327.611" stroke="#757575" stroke-width="0.5" stroke-miterlimit="10" stroke-linejoin="round"/>
    <path d="M580.728 371.854L568.781 437.651" stroke="#8E8E8E" stroke-width="0.5" stroke-miterlimit="10" stroke-linejoin="round"/>
    <path d="M631.996 429.785L661.259 404.299L645.985 382.669L672.904 356.426L648.631 343.191L622.846 371.93L605.379 433.113" stroke="#8E8E8E" stroke-width="0.5" stroke-miterlimit="10" stroke-linejoin="round"/>
    <path d="M510.406 645.25L514.867 685.409L470.935 671.04L491.351 623.016" stroke="#757575" stroke-width="0.5" stroke-miterlimit="10" stroke-linejoin="round"/>
    <path d="M487.57 699.779L447.721 691.913L460.273 720.803" stroke="#757575" stroke-width="0.5" stroke-miterlimit="10" stroke-linejoin="round"/>
    <path d="M517.892 763.76L546.021 786.978L558.573 749.013L517.892 763.76Z" stroke="#8E8E8E" stroke-width="0.5" stroke-miterlimit="10" stroke-linejoin="round"/>
    <path d="M487.57 745.685L517.892 763.76" stroke="#757575" stroke-width="0.5" stroke-miterlimit="10" stroke-linejoin="round"/>
    <path d="M514.867 685.409L533.166 723.828" stroke="#383838" stroke-width="0.5" stroke-miterlimit="10" stroke-linejoin="round"/>
    <path d="M541.711 289.192L577.704 299.402" stroke="#8E8E8E" stroke-width="0.5" stroke-miterlimit="10" stroke-linejoin="round"/>
    <path d="M428.212 241.395L429.346 225.059L446.738 229.673L462.163 235.572" stroke="#757575" stroke-width="0.5" stroke-miterlimit="10" stroke-linejoin="round"/>
    <path d="M475.925 356.728L461.634 349.014" stroke="#757575" stroke-width="0.5" stroke-miterlimit="10" stroke-linejoin="round"/>
    <path d="M405.301 299.402L423.978 331.922" stroke="#757575" stroke-width="0.5" stroke-miterlimit="10" stroke-linejoin="round"/>
    <path d="M80.002 370.341L99.4352 392.274L137.772 365.652" stroke="#383838" stroke-width="0.5" stroke-miterlimit="10" stroke-linejoin="round"/>
    <path d="M141.78 327.006L105.182 362.627" stroke="#4C4C4C" stroke-width="0.5" stroke-miterlimit="10" stroke-linejoin="round"/>
    <path d="M315.62 55.6517L267.68 102.919L351.235 105.415L296.792 149.733" stroke="#5B5B5B" stroke-width="0.5" stroke-miterlimit="10" stroke-linejoin="round"/>
    <path d="M147.073 595.79L167.716 625.965" stroke="#383838" stroke-width="0.5" stroke-miterlimit="10" stroke-linejoin="round"/>
    <path d="M185.712 88.6257L139.662 123.037L213.236 133.095L185.712 88.6257Z" stroke="#353535" stroke-width="0.5" stroke-miterlimit="10" stroke-linejoin="round"/>
    <path d="M163.179 324.662L174.975 228.841L231.611 242.832L274.712 253.42L245.222 275.806L249.607 307.04L196.676 317.553" stroke="#4C4C4C" stroke-width="0.5" stroke-miterlimit="10" stroke-linejoin="round"/>
    <path d="M20.8699 473.045L35.8418 483.254L62.5341 489.607L40.9836 474.935L14.0645 451.188" stroke="#353535" stroke-width="0.5" stroke-miterlimit="10" stroke-linejoin="round"/>
    <path d="M134.898 631.94L161.742 643.587L148.434 648.049L134.898 631.94ZM134.898 631.94L127.337 605.999" stroke="#353535" stroke-width="0.5" stroke-miterlimit="10" stroke-linejoin="round"/>
    <path d="M86.7316 459.734L82.6483 484.616L64.5762 462.759L86.7316 459.734Z" stroke="#383838" stroke-width="0.5" stroke-miterlimit="10" stroke-linejoin="round"/>
    <path d="M232.065 352.266L185.637 368.829L155.617 365.652L163.179 324.662L196.676 317.553" stroke="#4C4C4C" stroke-width="0.5" stroke-miterlimit="10" stroke-linejoin="round"/>
    <path d="M126.128 522.808L122.347 546.934L108.812 533.85L126.128 522.808ZM126.128 522.808L139.209 567.202L161.742 579.454L174.219 590.117" stroke="#353535" stroke-width="0.5" stroke-miterlimit="10" stroke-linejoin="round"/>
    <path d="M447.721 691.913L399.251 686.09L434.186 740.467L387.833 745.685L375.811 690.401L352.143 672.023L317.738 647.897L367.417 650.318L371.425 615.68L407.342 580.815L365.073 583.689L317.738 647.897L371.425 615.68L365.073 583.689L338.91 584.596L320.838 558.958L306.622 588.227L338.91 584.596L317.738 647.897L335.356 695.846L314.411 745.685L286.206 802.936" stroke="#757575" stroke-width="0.5" stroke-miterlimit="10" stroke-linejoin="round"/>
    <path d="M339.363 745.685L361.972 722.089L375.81 690.4L367.417 650.317L415.357 617.57L407.342 580.815L447.72 570.605" stroke="#757575" stroke-width="0.5" stroke-miterlimit="10" stroke-linejoin="round"/>
    <path d="M205.902 502.464L218.984 467.373L231.612 439.314L253.465 422.147L300.422 419.5L282.501 333.586" stroke="#5E5E5E" stroke-width="0.5" stroke-miterlimit="10" stroke-linejoin="round"/>
    <path d="M621.561 502.464L605.379 433.113L593.961 502.464L641.75 586.563" stroke="#8E8E8E" stroke-width="0.5" stroke-miterlimit="10" stroke-linejoin="round"/>
    <path d="M460.273 453.381L445.301 507.683L418.23 462.684L460.273 453.381Z" stroke="#757575" stroke-width="0.5" stroke-miterlimit="10" stroke-linejoin="round"/>
    <path d="M367.266 67.0717L336.188 141.187L358.872 210.69L335.129 206.984L336.188 141.187" stroke="#757575" stroke-width="0.5" stroke-miterlimit="10" stroke-linejoin="round"/>
    <path d="M433.883 91.2727L436.605 208.95L482.352 134.759L538.384 154.574L508.213 100.802L573.999 141.187L548.894 83.9368" stroke="#757575" stroke-width="0.5" stroke-miterlimit="10" stroke-linejoin="round"/>
    <path d="M306.774 188.228L296.792 149.733L267.68 102.919L252.481 161.531L303.22 220.975L306.774 188.228ZM306.774 188.228L335.129 206.984L333.239 225.891L303.22 220.975" stroke="#5B5B5B" stroke-width="0.5" stroke-miterlimit="10" stroke-linejoin="round"/>
    <path d="M423.978 416.021L448.553 408.08L471.389 395.148L465.49 373.367L484.772 376.997L475.925 356.728L485.68 324.662H505.491L490.746 290.478L478.421 252.588L436.605 208.95L484.772 224.908L462.163 235.572L457.551 254.857" stroke="#757575" stroke-width="0.5" stroke-miterlimit="10" stroke-linejoin="round"/>
    <path d="M463.449 321.107L461.634 349.014" stroke="#757575" stroke-width="0.5" stroke-miterlimit="10" stroke-linejoin="round"/>
    <path d="M457.55 254.857L429.346 225.059" stroke="#757575" stroke-width="0.5" stroke-miterlimit="10" stroke-linejoin="round"/>
    <path d="M404.015 275.201L413.618 254.857L428.514 239.429L423.977 267.638L413.618 254.857L409.988 229.673" stroke="#757575" stroke-width="0.5" stroke-miterlimit="10" stroke-linejoin="round"/>
    <path d="M510.104 289.192L490.746 290.478L485.68 324.662L495.661 349.014L475.925 356.728L465.49 373.366L461.634 349.014L485.68 324.662L463.449 321.107L428.212 372.081V389.853L465.49 373.366L441.974 352.796L461.634 349.014" stroke="#757575" stroke-width="0.5" stroke-miterlimit="10" stroke-linejoin="round"/>
    <path d="M44.2358 446.65L48.2434 410.802L56.0318 444.987L47.5629 462.759L44.2358 446.65ZM44.2358 446.65L31.6836 430.39" stroke="#353535" stroke-width="0.5" stroke-miterlimit="10" stroke-linejoin="round"/>
    <path d="M137.772 365.652L105.182 362.627L100.418 345.006L141.78 327.006" stroke="#4C4C4C" stroke-width="0.5" stroke-miterlimit="10" stroke-linejoin="round"/>
    <path d="M137.772 365.652L129.53 398.551L144.502 442.642" stroke="#383838" stroke-width="0.5" stroke-miterlimit="10" stroke-linejoin="round"/>
    <path d="M335.355 695.846L339.363 745.685H387.833L371.424 774.272L339.363 776.088" stroke="#757575" stroke-width="0.5" stroke-miterlimit="10" stroke-linejoin="round"/>
    <path d="M428.212 372.081L407.191 333.586L379.742 335.704V372.081" stroke="#757575" stroke-width="0.5" stroke-miterlimit="10" stroke-linejoin="round"/>
    <path d="M478.421 252.588L457.551 254.857L436.605 208.95L429.346 225.059L409.989 229.673L396.075 245.781L375.508 242.832L355.47 247.823L379.742 269.226L382.238 299.024L433.883 300.612L423.978 331.922L441.974 352.796L439.252 327.611" stroke="#757575" stroke-width="0.5" stroke-miterlimit="10" stroke-linejoin="round"/>
    <path d="M580.728 371.854L568.781 437.651" stroke="#8E8E8E" stroke-width="0.5" stroke-miterlimit="10" stroke-linejoin="round"/>
    <path d="M631.996 429.785L661.259 404.299L645.985 382.669L672.904 356.426L648.631 343.191L622.846 371.93L605.379 433.113" stroke="#8E8E8E" stroke-width="0.5" stroke-miterlimit="10" stroke-linejoin="round"/>
    <path d="M510.406 645.25L514.867 685.409L470.935 671.04L491.351 623.016" stroke="#757575" stroke-width="0.5" stroke-miterlimit="10" stroke-linejoin="round"/>
    <path d="M487.57 699.779L447.721 691.913L460.273 720.803" stroke="#757575" stroke-width="0.5" stroke-miterlimit="10" stroke-linejoin="round"/>
    <path d="M517.892 763.76L546.021 786.978L558.573 749.013L517.892 763.76Z" stroke="#8E8E8E" stroke-width="0.5" stroke-miterlimit="10" stroke-linejoin="round"/>
    <path d="M487.57 745.685L517.892 763.76" stroke="#757575" stroke-width="0.5" stroke-miterlimit="10" stroke-linejoin="round"/>
    <path d="M514.867 685.409L533.166 723.828" stroke="#383838" stroke-width="0.5" stroke-miterlimit="10" stroke-linejoin="round"/>
    <path d="M541.711 289.192L577.704 299.402" stroke="#8E8E8E" stroke-width="0.5" stroke-miterlimit="10" stroke-linejoin="round"/>
    <path d="M428.212 241.395L429.346 225.059L446.738 229.673L462.163 235.572" stroke="#757575" stroke-width="0.5" stroke-miterlimit="10" stroke-linejoin="round"/>
    <path d="M475.925 356.728L461.634 349.014" stroke="#757575" stroke-width="0.5" stroke-miterlimit="10" stroke-linejoin="round"/>
    <path d="M405.301 299.402L423.978 331.922" stroke="#757575" stroke-width="0.5" stroke-miterlimit="10" stroke-linejoin="round"/>
    <path d="M80.002 370.341L99.4352 392.274L137.772 365.652" stroke="#383838" stroke-width="0.5" stroke-miterlimit="10" stroke-linejoin="round"/>
    <path d="M141.78 327.006L105.182 362.627" stroke="#4C4C4C" stroke-width="0.5" stroke-miterlimit="10" stroke-linejoin="round"/>
    <path d="M315.62 55.6517L267.68 102.919L351.235 105.415L296.792 149.733" stroke="#5B5B5B" stroke-width="0.5" stroke-miterlimit="10" stroke-linejoin="round"/>
    <path d="M147.073 595.79L167.716 625.965" stroke="#383838" stroke-width="0.5" stroke-miterlimit="10" stroke-linejoin="round"/>
    <path d="M58.7539 377.072L70.5499 427.441L78.8677 398.551L58.7539 377.072Z" stroke="#383838" stroke-width="0.5" stroke-miterlimit="10" stroke-linejoin="round"/>
    <path d="M282.35 644.04L317.738 647.897L304.732 614.092L282.35 644.04Z" stroke="#4C4C4C" stroke-width="0.5" stroke-miterlimit="10" stroke-linejoin="round"/>
    <path d="M88.8491 507.682L62.5348 525.758L80.9094 499.817L82.6486 484.616L40.9844 474.935L64.5765 462.759L56.0319 444.987L70.5501 451.188" stroke="#353535" stroke-width="0.5" stroke-miterlimit="10" stroke-linejoin="round"/>
    <path d="M355.469 247.823L323.786 259.773L352.218 296.982L379.742 269.226" stroke="#757575" stroke-width="0.5" stroke-miterlimit="10" stroke-linejoin="round"/>
    <path d="M196.677 317.553L185.637 368.829L217.168 385.089L232.065 352.266L252.481 356.426L282.5 333.586L307.302 336.233L328.248 330.031" stroke="#5B5B5B" stroke-width="0.5" stroke-miterlimit="10" stroke-linejoin="round"/>
    <path d="M290.44 505.565L324.165 529.766L293.314 544.892L290.44 505.565Z" stroke="#4C4C4C" stroke-width="0.5" stroke-miterlimit="10" stroke-linejoin="round"/>
    <path d="M558.573 749.013L570.672 708.4L566.437 625.965L540.426 672.023L585.946 663.401L605.379 617.57L566.437 625.965L533.771 578.319L514.867 546.177L475.472 562.589L502.92 586.563L514.867 546.177L541.711 518.119L557.893 571.664L568.781 514.716" stroke="#757575" stroke-width="0.5" stroke-miterlimit="10" stroke-linejoin="round"/>
    <path d="M613.016 177.035L602.052 122.583L647.119 144.666L613.016 177.035Z" stroke="#8E8E8E" stroke-width="0.5" stroke-miterlimit="10" stroke-linejoin="round"/>
    <path d="M579.292 247.975L580.729 371.854L605.379 433.113" stroke="#8E8E8E" stroke-width="0.5" stroke-miterlimit="10" stroke-linejoin="round"/>
    <path d="M155.618 365.652L141.78 327.006L137.772 365.652H155.618ZM155.618 365.652L166.053 441.583L167.716 484.616" stroke="#4C4C4C" stroke-width="0.5" stroke-miterlimit="10" stroke-linejoin="round"/>
    <path d="M248.171 653.191L282.349 644.04L244.087 642.982L271.007 623.016L237.282 631.183L244.087 642.982L198.491 645.25L237.282 631.183L210.212 627.024L198.491 645.25" stroke="#4C4C4C" stroke-width="0.5" stroke-miterlimit="10" stroke-linejoin="round"/>
    <path d="M58.7539 377.072L80.0019 370.341L78.8677 398.551L90.1344 420.559L91.193 441.508L118.793 445.062L144.502 442.642L167.716 484.616L182.764 542.774" stroke="#383838" stroke-width="0.5" stroke-miterlimit="10" stroke-linejoin="round"/>
    <path d="M639.406 220.975L616.722 259.395L578.687 188.909L538.384 154.574L573.999 141.187L578.687 188.909L613.016 177.035L639.406 220.975ZM639.406 220.975L665.342 180.287L669.35 216.211L694.984 182.783" stroke="#8E8E8E" stroke-width="0.5" stroke-miterlimit="10" stroke-linejoin="round"/>
    <path d="M495.661 174.464L498.988 245.781L545.567 225.891L541.711 289.192L579.292 247.975L545.567 225.891L578.687 188.909L579.292 247.975L616.722 259.395L645.985 275.806L669.35 216.211L688.027 253.42L645.985 275.806" stroke="#757575" stroke-width="0.5" stroke-miterlimit="10" stroke-linejoin="round"/>
    <path d="M640.314 505.565L615.285 539.976L621.561 502.464L631.996 429.785L568.781 437.65L593.961 502.464L541.711 444.986L502.315 455.423L541.711 482.574L510.406 505.565L502.315 455.423L474.262 500.12L510.406 505.565L541.711 518.119V482.574V444.986L568.781 437.65L570.672 476.826L568.781 514.716L541.711 482.574L570.672 476.826" stroke="#757575" stroke-width="0.5" stroke-miterlimit="10" stroke-linejoin="round"/>
    <path d="M447.721 570.605L470.935 595.789L475.472 562.589" stroke="#757575" stroke-width="0.5" stroke-miterlimit="10" stroke-linejoin="round"/>
    <path d="M471.388 395.147L460.273 453.381L423.977 416.021L402.805 410.424L418.23 462.684L415.357 522.808L447.72 570.605L475.471 562.589L502.92 586.563L491.351 623.016L470.934 595.79L452.409 640.713" stroke="#757575" stroke-width="0.5" stroke-miterlimit="10" stroke-linejoin="round"/>
    <path d="M514.867 546.177L557.892 571.664L615.285 539.976L568.781 514.716" stroke="#8E8E8E" stroke-width="0.5" stroke-miterlimit="10" stroke-linejoin="round"/>
    <path d="M156.524 541.866L161.742 579.454L205.901 502.464V554.27L189.795 631.94L174.218 590.117H198.491L231.611 594.655L266.091 570.605" stroke="#5B5B5B" stroke-width="0.5" stroke-miterlimit="10" stroke-linejoin="round"/>
    <path d="M306.622 588.227L266.092 570.605" stroke="#5B5B5B" stroke-width="0.5" stroke-miterlimit="10" stroke-linejoin="round"/>
    <path d="M205.902 554.27L232.065 550.715" stroke="#5B5B5B" stroke-width="0.5" stroke-miterlimit="10" stroke-linejoin="round"/>
    <path d="M341.33 507.683L324.165 529.766" stroke="#757575" stroke-width="0.5" stroke-miterlimit="10" stroke-linejoin="round"/>
    <path d="M418.23 462.684L423.977 416.021L428.212 389.854" stroke="#757575" stroke-width="0.5" stroke-miterlimit="10" stroke-linejoin="round"/>
    <path d="M379.742 372.081L345.564 404.298L333.238 372.081H379.742ZM379.742 372.081L387.379 399.08L402.805 410.424L400.158 368.829L428.212 372.081L465.49 373.366L448.552 408.08" stroke="#757575" stroke-width="0.5" stroke-miterlimit="10" stroke-linejoin="round"/>
    <path d="M315.62 55.6517L250.439 -3.11153L317.813 -30.6403L322.955 4.90508" stroke="#5B5B5B" stroke-width="0.5" stroke-miterlimit="10" stroke-linejoin="round"/>
    <path d="M403.486 -19.5228L401.142 -92.2017L317.813 -30.6402L403.486 -19.5228ZM403.486 -19.5228L322.955 4.90516L315.62 55.6518L255.355 60.1895L224.957 4.14888L182.764 -54.9169L293.767 -92.2017" stroke="#5B5B5B" stroke-width="0.5" stroke-miterlimit="10" stroke-linejoin="round"/>
    <path d="M491.351 623.016L529.385 637.007" stroke="#757575" stroke-width="0.5" stroke-miterlimit="10" stroke-linejoin="round"/>
    <path d="M70.5498 427.441L90.1342 420.559" stroke="#383838" stroke-width="0.5" stroke-miterlimit="10" stroke-linejoin="round"/>
    <path d="M48.2432 410.803L64.5761 402.03" stroke="#353535" stroke-width="0.5" stroke-miterlimit="10" stroke-linejoin="round"/>
    <path d="M5.59555 238.067L0.529297 188.758" stroke="#353535" stroke-width="0.5" stroke-miterlimit="10" stroke-linejoin="round"/>
    <path d="M25.18 239.958L0.529297 188.758L25.4825 194.884L46.6548 217.799L25.18 239.958Z" stroke="#353535" stroke-width="0.5" stroke-miterlimit="10" stroke-linejoin="round"/>
    <path d="M3.02461 133.095L17.8453 72.7438L23.7433 149.809L3.02461 133.095ZM3.02461 133.095L0.529297 188.758" stroke="#353535" stroke-width="0.5" stroke-miterlimit="10" stroke-linejoin="round"/>
    <path d="M17.8457 72.7438L38.7156 28.5012V88.6258L17.8457 72.7438Z" stroke="#353535" stroke-width="0.5" stroke-miterlimit="10" stroke-linejoin="round"/>
    <path d="M23.7441 149.809L38.716 88.6257L42.3456 155.632L23.7441 149.809Z" stroke="#353535" stroke-width="0.5" stroke-miterlimit="10" stroke-linejoin="round"/>
    <path d="M25.4832 194.884L42.3455 155.632L46.6556 217.799L49.7558 254.554L57.3174 287.604L11.1162 272.403L25.1807 239.958" stroke="#353535" stroke-width="0.5" stroke-miterlimit="10" stroke-linejoin="round"/>
    <path d="M268.134 533.85L290.44 505.565L314.713 479.851L324.165 529.766L355.545 542.85L338.91 584.596L304.732 614.091" stroke="#5B5B5B" stroke-width="0.5" stroke-miterlimit="10" stroke-linejoin="round"/>
  </g>
  <defs>
    <clipPath id="clip0">
      <rect width="831" height="752.633" fill="white"/>
    </clipPath>
  </defs>
</svg>
