<svg xmlns="http://www.w3.org/2000/svg" width="582" height="558" viewBox="0 0 582 558" fill="none">
  <g clip-path="url(#clip0)">
    <path d="M375.326 230.578H204.219L290.748 362.039L375.326 230.578Z" fill="#789DA1"/>
    <path d="M286.986 363.712L200.596 232.808L114.346 363.712H286.986Z" fill="#608188"/>
    <path d="M467.151 367.895H111.56L33.5892 486.102C29.9201 491.665 33.9074 499.077 40.5688 499.077H538.016C544.675 499.077 548.663 491.67 545 486.107L467.151 367.895Z" fill="#FCFCFC"/>
    <path fill-rule="evenodd" clip-rule="evenodd" d="M112.46 369.568L34.9851 487.024C32.0498 491.474 35.2397 497.404 40.5688 497.404H538.016C543.343 497.404 546.534 491.478 543.603 487.028L466.25 369.568H112.46ZM467.151 367.895H111.56L33.5892 486.102C29.9201 491.665 33.9074 499.077 40.5688 499.077H538.016C544.675 499.077 548.663 491.67 545 486.107L467.151 367.895Z" fill="#C5C5C5"/>
    <path d="M373.795 226.396L296.331 108.864C293.028 103.851 285.679 103.849 282.372 108.858L204.777 226.396H373.795Z" fill="#8B9F70"/>
    <path d="M378.393 233.505L294.65 363.712H464.364L378.393 233.505Z" fill="#608188"/>
    <path d="M179.803 321L180.872 317.907H188.13L189.199 321H193.102L186.465 303H182.637L176 321H179.803ZM184.526 307.563L186.962 314.586H182.04L184.476 307.563H184.526Z" fill="white"/>
    <path d="M199.281 310.783V306.397H203.209C204.874 306.397 205.595 307.31 205.595 308.603C205.595 309.896 204.874 310.783 203.209 310.783H199.281ZM199.281 314.18H203.209C207.31 314.18 209.224 311.746 209.224 308.603C209.224 305.459 207.46 303 203.209 303H195.652V321H199.281V314.18Z" fill="white"/>
    <path d="M216 303H212.371V321H216V303Z" fill="white"/>
    <path d="M377.815 321C381.661 321 383.633 318.997 383.633 315.904C383.633 313.977 382.534 312.558 380.912 311.924C382.435 311.239 383.383 309.82 383.383 307.944C383.383 305.206 381.561 303 377.491 303H370V321H377.815ZM377.715 313.572C379.264 313.572 379.963 314.408 379.963 315.625C379.963 316.893 379.264 317.679 377.715 317.679H373.546V313.572H377.715ZM377.466 306.321C379.064 306.321 379.713 307.208 379.713 308.273C379.713 309.566 378.864 310.225 377.466 310.225H373.546V306.321H377.466Z" fill="white"/>
    <path d="M391 303H387.355V321H391V303Z" fill="white"/>
    <path d="M280.921 281L282.022 277.907H289.505L290.607 281H294.63L287.788 263H283.842L277 281H280.921ZM285.789 267.563L288.301 274.586H283.227L285.738 267.563H285.789Z" fill="white"/>
    <path d="M301 263H297.259V281H301V263Z" fill="white"/>
    <path d="M263.15 206.54C268.038 206.54 270.704 203.505 270.704 199.31C270.704 195.114 268.038 192.079 263.15 192.079H258V206.54H263.15ZM267.594 199.31C267.594 202.018 266.2 203.811 263.069 203.811H260.949V194.809H263.069C266.2 194.809 267.594 196.601 267.594 199.31Z" fill="white"/>
    <path d="M283.329 202.039C283.329 202.039 283.369 201.652 283.369 201.183C283.369 198.026 281.248 195.623 278.118 195.623C274.987 195.623 272.806 198.026 272.806 201.183C272.806 204.462 275.008 206.784 278.138 206.784C280.582 206.784 282.521 205.297 283.147 203.138H280.259C279.915 203.912 279.087 204.299 278.219 204.299C276.785 204.299 275.856 203.505 275.654 202.039H283.329ZM278.098 197.945C279.431 197.945 280.299 198.76 280.501 199.961H275.694C275.937 198.739 276.785 197.945 278.098 197.945Z" fill="white"/>
    <path d="M288.781 206.54V191.265H285.913V206.54H288.781Z" fill="white"/>
    <path d="M293.455 194.483C294.465 194.483 295.192 193.77 295.192 192.752C295.192 191.733 294.465 191 293.455 191C292.446 191 291.718 191.733 291.718 192.752C291.718 193.77 292.446 194.483 293.455 194.483ZM292.021 206.54H294.889V195.868H292.021V206.54Z" fill="white"/>
    <path d="M305.603 197.171C304.937 196.193 303.785 195.623 302.291 195.623C299.342 195.623 297.464 198.006 297.464 200.98C297.464 203.953 299.342 206.336 302.291 206.336C303.785 206.336 304.836 205.684 305.381 204.951V206.438C305.381 207.701 304.634 208.515 303.179 208.515C301.745 208.515 301.261 207.721 301.14 207.11H298.272C298.433 208.8 299.867 211 303.139 211C306.371 211 308.249 208.923 308.249 206.132V195.868H305.603V197.171ZM305.462 200.98C305.462 202.65 304.432 203.79 302.897 203.79C301.362 203.79 300.332 202.65 300.332 200.98C300.332 199.31 301.362 198.169 302.897 198.169C304.432 198.169 305.462 199.31 305.462 200.98Z" fill="white"/>
    <path d="M314.247 191.265H311.379V206.54H314.247V200.45C314.247 198.984 315.014 198.108 316.408 198.108C317.68 198.108 318.205 198.963 318.205 200.206V206.54H321.073V199.88C321.073 197.334 319.72 195.623 317.175 195.623C315.802 195.623 314.792 196.112 314.247 196.845V191.265Z" fill="white"/>
    <path d="M327.445 198.149H329V195.868H327.445V193.22H324.577V195.868H323.143V198.149H324.577V206.54H327.445V198.149Z" fill="white"/>
    <path d="M230.85 434.757C238.446 434.757 240.57 428.457 240.57 421.941C240.57 415.425 238.446 409.125 230.85 409.125C223.254 409.125 221.166 415.461 221.166 421.941C221.166 428.421 223.254 434.757 230.85 434.757ZM230.85 432.597C225.738 432.597 225.378 425.649 225.378 421.941C225.378 418.233 225.738 411.285 230.85 411.285C235.962 411.285 236.358 418.233 236.358 421.941C236.358 425.649 235.962 432.597 230.85 432.597ZM258.89 434.361V421.833C258.89 419.169 257.45 416.829 254.57 416.829C251.618 416.829 249.71 418.773 248.558 421.293H248.486V417.225H244.85V434.361H248.486V427.269C248.486 424.605 249.71 419.529 253.094 419.529C255.182 419.529 255.254 422.121 255.254 423.633V434.361H258.89ZM276.533 432.129C275.489 432.597 274.373 432.849 273.257 432.849C268.505 432.849 266.597 427.917 266.597 423.849H276.857C276.857 419.457 274.913 416.829 270.269 416.829C265.013 416.829 262.961 420.141 262.961 425.037C262.961 430.617 265.589 434.757 271.529 434.757C273.401 434.757 274.805 434.505 276.533 433.785V432.129ZM266.705 422.193C266.849 420.213 267.929 418.341 270.125 418.341C272.393 418.341 273.293 420.177 273.293 422.193H266.705ZM201.31 470.849C200.89 471.017 200.442 471.073 199.994 471.073C198.006 471.073 197.978 469.785 197.978 468.161V460.489H201.618V459.033H197.978V454.189L195.15 455.897V459.033H193.022V460.489H195.15V469.281C195.15 472.025 196.914 472.669 199.35 472.669C199.994 472.669 200.666 472.641 201.31 472.473V470.849ZM209.055 472.669C213.395 472.669 214.963 469.673 214.963 465.697C214.963 461.721 213.395 458.725 209.055 458.725C204.715 458.725 203.175 461.749 203.175 465.697C203.175 469.645 204.715 472.669 209.055 472.669ZM209.055 471.493C206.395 471.493 206.255 467.601 206.255 465.697C206.255 463.793 206.395 459.901 209.055 459.901C211.743 459.901 211.883 463.793 211.883 465.697C211.883 467.601 211.743 471.493 209.055 471.493ZM225.387 472.081C226.563 472.473 227.711 472.669 228.943 472.669C231.575 472.669 234.011 471.633 234.011 468.637C234.011 464.381 227.907 464.157 227.907 461.749C227.907 460.713 228.943 460.349 229.811 460.349C231.099 460.349 232.135 460.965 233.171 461.665V459.257C232.135 458.949 231.099 458.725 230.035 458.725C227.571 458.725 225.359 459.845 225.359 462.561C225.359 466.369 231.379 466.845 231.379 469.197C231.379 470.429 230.119 470.877 229.083 470.877C227.711 470.877 226.479 470.233 225.387 469.477V472.081ZM246.871 470.625C246.059 470.989 245.191 471.185 244.323 471.185C240.627 471.185 239.143 467.349 239.143 464.185H247.123C247.123 460.769 245.611 458.725 241.999 458.725C237.911 458.725 236.315 461.301 236.315 465.109C236.315 469.449 238.359 472.669 242.979 472.669C244.435 472.669 245.527 472.473 246.871 471.913V470.625ZM239.227 462.897C239.339 461.357 240.179 459.901 241.887 459.901C243.651 459.901 244.351 461.329 244.351 462.897H239.227ZM253.084 472.361V466.257C253.084 463.093 254.316 461.749 257.452 461.665V458.725C255.1 458.921 254.092 460.489 253.14 462.421H253.084V459.033H250.256V472.361H253.084ZM265.671 472.361L270.375 459.033H267.771L264.635 468.553H264.579L261.135 459.033H258.139L263.207 472.361H265.671ZM282.144 470.625C281.332 470.989 280.464 471.185 279.596 471.185C275.9 471.185 274.416 467.349 274.416 464.185H282.396C282.396 460.769 280.884 458.725 277.272 458.725C273.184 458.725 271.588 461.301 271.588 465.109C271.588 469.449 273.632 472.669 278.252 472.669C279.708 472.669 280.8 472.473 282.144 471.913V470.625ZM274.5 462.897C274.612 461.357 275.452 459.901 277.16 459.901C278.924 459.901 279.624 461.329 279.624 462.897H274.5ZM300.322 470.849C299.902 471.017 299.454 471.073 299.006 471.073C297.018 471.073 296.99 469.785 296.99 468.161V460.489H300.63V459.033H296.99V454.189L294.162 455.897V459.033H292.034V460.489H294.162V469.281C294.162 472.025 295.926 472.669 298.362 472.669C299.006 472.669 299.678 472.641 300.322 472.473V470.849ZM314.058 472.361V462.617C314.058 460.545 312.938 458.725 310.698 458.725C308.402 458.725 306.918 460.237 306.022 462.197H305.966V453.041H303.138V472.361H305.966V466.845C305.966 464.773 306.918 460.825 309.55 460.825C311.174 460.825 311.23 462.841 311.23 464.017V472.361H314.058ZM327.781 470.625C326.969 470.989 326.101 471.185 325.233 471.185C321.537 471.185 320.053 467.349 320.053 464.185H328.033C328.033 460.769 326.521 458.725 322.909 458.725C318.821 458.725 317.225 461.301 317.225 465.109C317.225 469.449 319.269 472.669 323.889 472.669C325.345 472.669 326.437 472.473 327.781 471.913V470.625ZM320.137 462.897C320.249 461.357 321.089 459.901 322.797 459.901C324.561 459.901 325.261 461.329 325.261 462.897H320.137ZM348.834 472.361V463.317C348.834 460.993 348.274 458.725 345.474 458.725C343.262 458.725 342.254 460.237 341.442 462.029H341.386C341.274 460.153 340.042 458.725 338.082 458.725C336.066 458.725 334.61 460.377 334.05 462.197H333.994V459.033H331.166V472.361H333.994V466.845C333.994 465.025 334.414 460.825 336.906 460.825C338.614 460.825 338.586 462.785 338.586 464.017V472.361H341.414V466.817C341.414 465.025 341.946 460.825 344.382 460.825C345.95 460.825 346.006 462.617 346.006 463.765V472.361H348.834ZM370.187 472.361V463.765C370.187 460.349 369.179 458.725 365.483 458.725C362.515 458.725 360.583 459.705 360.359 462.813H363.327C363.411 461.357 363.691 459.901 365.483 459.901C367.387 459.901 367.359 462.421 367.359 463.765V464.941C364.531 465.081 359.911 465.585 359.911 469.337C359.911 471.353 361.647 472.669 363.551 472.669C365.119 472.669 366.519 471.857 367.303 470.513H367.359V472.361H370.187ZM367.359 467.685C367.359 468.917 366.799 470.037 365.679 470.625C365.371 470.793 364.979 470.905 364.615 470.905C363.523 470.905 362.991 469.897 362.991 468.917C362.991 466.677 365.623 466.229 367.359 466.117V467.685ZM377.255 472.361V453.041H374.427V472.361H377.255ZM384.528 472.361V453.041H381.7V472.361H384.528Z" fill="#1D1D1D"/>
    <path d="M290.117 419.088H290.173C290.74 417.957 292.383 415.318 295.783 415.318C300.373 415.318 302.867 419.142 302.867 425.067C302.867 431.53 299.75 434.6 294.65 434.6C287 434.6 287 428.298 287 425.282V407.4H290.003V419.088H290.117ZM294.707 432.769C298.503 432.769 299.58 428.999 299.58 425.282C299.58 421.727 298.673 417.203 295.103 417.203C291.363 417.203 290.173 422.266 290.173 425.605C290.117 428.945 290.797 432.769 294.707 432.769Z" fill="black"/>
    <path d="M305.133 407.4H309.666V410.957H305.133V407.4ZM305.435 415.828H309.439V434.6H305.435V415.828Z" fill="black"/>
    <path d="M373.56 406.787C373.56 406.876 373.562 406.954 373.564 407.021C373.568 407.086 373.572 407.143 373.576 407.191C373.582 407.24 373.588 407.28 373.595 407.312C373.603 407.345 373.611 407.372 373.619 407.394V407.4H373.133V407.394C373.141 407.372 373.148 407.345 373.155 407.312C373.163 407.28 373.169 407.24 373.173 407.191C373.179 407.143 373.183 407.086 373.185 407.021C373.19 406.955 373.192 406.877 373.192 406.787V405.767C373.192 405.678 373.19 405.6 373.185 405.535C373.183 405.468 373.179 405.41 373.173 405.362C373.169 405.314 373.163 405.274 373.155 405.241C373.148 405.208 373.141 405.18 373.133 405.158V405.152L373.218 405.158C373.244 405.16 373.272 405.162 373.303 405.163C373.335 405.163 373.368 405.163 373.402 405.163C373.455 405.163 373.526 405.158 373.615 405.149C373.705 405.139 373.82 405.133 373.959 405.133C374.089 405.133 374.208 405.147 374.318 405.174C374.429 405.201 374.524 405.241 374.605 405.293C374.686 405.345 374.749 405.41 374.794 405.486C374.84 405.561 374.863 405.647 374.863 405.743C374.863 405.818 374.85 405.888 374.824 405.953C374.8 406.017 374.765 406.075 374.719 406.127C374.674 406.179 374.62 406.226 374.557 406.267C374.493 406.306 374.422 406.34 374.344 406.367L375.055 407.14C375.09 407.178 375.123 407.212 375.152 407.24C375.183 407.268 375.212 407.293 375.239 407.314C375.268 407.334 375.295 407.35 375.32 407.364C375.346 407.376 375.372 407.386 375.399 407.394V407.4H374.814C374.81 407.38 374.797 407.354 374.774 407.322C374.752 407.288 374.726 407.255 374.697 407.223L373.98 406.441C373.948 406.443 373.917 406.445 373.886 406.447C373.855 406.448 373.824 406.448 373.791 406.448C373.753 406.448 373.715 406.447 373.676 406.445C373.638 406.443 373.599 406.44 373.56 406.434V406.787ZM373.56 406.312C373.597 406.318 373.634 406.323 373.672 406.326C373.709 406.328 373.746 406.329 373.781 406.329C373.882 406.329 373.975 406.318 374.059 406.295C374.142 406.271 374.213 406.235 374.271 406.187C374.331 406.139 374.377 406.079 374.409 406.008C374.441 405.936 374.458 405.852 374.458 405.756C374.458 405.677 374.446 405.606 374.423 405.542C374.4 405.479 374.366 405.425 374.32 405.381C374.275 405.336 374.219 405.302 374.15 405.278C374.081 405.252 374 405.24 373.909 405.24C373.815 405.24 373.741 405.244 373.686 405.251C373.63 405.258 373.589 405.266 373.56 405.274V406.312Z" fill="#7B7B7B"/>
    <path fill-rule="evenodd" clip-rule="evenodd" d="M373.701 409.49C375.168 409.49 376.357 408.3 376.357 406.833C376.357 405.366 375.168 404.177 373.701 404.177C372.234 404.177 371.044 405.366 371.044 406.833C371.044 408.3 372.234 409.49 373.701 409.49ZM373.701 409.667C375.265 409.667 376.534 408.398 376.534 406.833C376.534 405.269 375.265 404 373.701 404C372.136 404 370.867 405.269 370.867 406.833C370.867 408.398 372.136 409.667 373.701 409.667Z" fill="#7B7B7B"/>
    <path d="M323.267 421.186C323.267 414.028 326.094 407.4 333.633 407.4C341.172 407.4 343.667 414.028 343.667 421.186C343.667 428.079 341.172 434.6 333.633 434.6C326.094 434.6 323.267 428.132 323.267 421.186ZM333.356 432.585C338.955 432.585 340.063 426.011 340.063 421.451C340.063 415.778 338.955 409.362 333.356 409.362C327.812 409.362 326.814 415.778 326.814 421.451C326.814 426.064 327.812 432.585 333.356 432.585Z" fill="#941100"/>
    <path d="M346.701 433.412V431.284C348.203 431.948 350.561 432.869 352.901 432.869C354.66 432.869 356.155 432.455 357.219 431.58C358.297 430.693 358.869 429.385 358.869 427.747C358.869 425.657 357.703 424.276 356.129 423.174C355.347 422.626 354.446 422.133 353.511 421.648C353.24 421.507 352.966 421.367 352.691 421.226C352.008 420.877 351.316 420.523 350.625 420.138L350.625 420.138L350.62 420.135C349.468 419.513 348.423 418.782 347.666 417.816C346.918 416.862 346.433 415.656 346.433 414.041C346.433 412.058 347.188 410.549 348.511 409.522C349.85 408.482 351.819 407.9 354.295 407.9C356.111 407.9 358.318 408.231 359.53 408.452V410.306C358.154 409.741 355.895 408.972 353.652 408.972C352.165 408.972 350.878 409.397 349.954 410.171C349.022 410.95 348.488 412.06 348.488 413.35C348.488 415.533 349.918 416.885 351.634 417.94C352.43 418.428 353.319 418.873 354.201 419.314C354.273 419.351 354.346 419.387 354.418 419.423C355.378 419.904 356.326 420.387 357.184 420.941C358.637 421.901 359.648 422.641 360.312 423.536C360.956 424.405 361.299 425.461 361.299 427.11C361.299 429.559 360.326 431.277 358.761 432.401C357.173 433.541 354.929 434.1 352.365 434.1C349.759 434.1 347.653 433.643 346.701 433.412Z" fill="#941100" stroke="#941100"/>
    <path d="M323.267 438C315.334 436.808 315.334 428.101 315.334 421.155C315.334 413.951 315.334 405.348 323.267 404V405.659C318.934 407.213 318.934 414.936 318.934 421.622C318.934 427.686 318.934 434.527 323.267 436.29V438Z" fill="black"/>
    <path d="M362.933 436.29C366.646 434.527 366.646 427.686 366.646 421.622C366.646 414.884 366.646 407.213 362.933 405.659V404C369.733 405.399 369.733 413.951 369.733 421.155C369.733 428.101 369.733 436.808 362.933 438V436.29Z" fill="black"/>
  </g>
  <defs>
    <clipPath id="clip0">
      <rect width="582" height="558" fill="white"/>
    </clipPath>
  </defs>
</svg>
