<svg width="24" height="24" viewBox="0 0 24 24" fill="none" xmlns="http://www.w3.org/2000/svg">
<path d="M14.1457 22.2292C14.5565 22.2292 14.5565 21.6069 14.1457 21.6069C13.735 21.6069 13.735 22.2292 14.1457 22.2292Z" fill="#2B2826"/>
<path d="M16.4026 14.2356C16.4957 16.1811 16.0215 18.1639 15.1154 19.8937C14.8275 20.4413 14.493 20.9598 14.1204 21.4534C13.9849 21.6318 13.8536 21.8766 13.5911 21.8143C13.5064 21.7936 13.4514 21.7231 13.4132 21.6526C13.2439 21.3414 13.0703 21.0303 12.9009 20.7192C12.1472 19.3462 11.3893 17.9731 10.6356 16.6C10.4408 16.2474 9.89463 16.5627 10.0852 16.9153C11.0125 18.5995 11.9355 20.2795 12.8628 21.9637C12.9941 22.2001 13.2142 22.366 13.481 22.4324C14.0357 22.5652 14.3744 22.1545 14.6666 21.7729C15.2932 20.9557 15.7886 20.0513 16.1782 19.1056C16.8048 17.579 17.1182 15.8866 17.0377 14.2397C17.0165 13.8373 16.3814 13.8332 16.4026 14.2356Z" fill="#2B2826"/>
<path d="M10.3773 7.71045C8.37032 7.61919 6.33368 8.07964 4.52991 8.93417C3.97523 9.1955 3.44596 9.50662 2.94209 9.85507C2.70074 10.021 2.42552 10.1911 2.22228 10.4068C2.0148 10.6266 1.97246 10.9129 2.0148 11.1991C2.08255 11.6554 2.55678 11.8379 2.91669 12.0287C4.4918 12.8625 6.07116 13.6922 7.64628 14.5259C8.00618 14.7168 8.32798 14.1775 7.96807 13.9867C6.24899 13.0782 4.53415 12.1739 2.81507 11.2655C2.6711 11.1908 2.60336 11.0663 2.6457 10.9087C2.68804 10.7469 2.95056 10.6183 3.07758 10.5271C3.28506 10.3777 3.49677 10.2367 3.71271 10.0998C4.44946 9.63521 5.24126 9.26602 6.06269 8.9798C7.4388 8.50275 8.92077 8.26631 10.3773 8.33683C10.788 8.35342 10.7838 7.73119 10.3773 7.71045Z" fill="#2B2826"/>
<path d="M18.1555 12.5597C17.2748 13.4225 16.3264 14.2148 15.2636 14.8578C14.2558 15.4717 13.1592 15.9073 12.0033 16.1769C11.3766 16.3221 10.7372 16.4134 10.0979 16.4715C9.80148 16.4963 9.50085 16.5171 9.20446 16.5295C8.90806 16.542 8.56086 16.5959 8.2687 16.5586C7.98078 16.5212 8.01041 16.2433 8.01465 16.0317C8.02312 15.704 8.03582 15.3722 8.05699 15.0445C8.09086 14.4886 8.15014 13.9328 8.2433 13.3852C8.4296 12.3025 8.76833 11.253 9.2722 10.274C9.80571 9.23285 10.5171 8.2912 11.3046 7.42838C12.8332 5.75251 14.6793 4.42093 16.8218 3.59959C17.8718 3.19721 18.9727 2.92343 20.0863 2.7658C20.6537 2.68698 21.2253 2.6455 21.7969 2.62891C22.0129 2.62476 22.2204 2.65795 22.2288 2.91514C22.2373 3.20966 22.2077 3.50833 22.1865 3.80285C22.0213 5.9931 21.3354 8.13357 20.1837 10.0169C19.6248 10.9378 18.9346 11.7923 18.1555 12.5597C17.8676 12.8459 18.3164 13.2856 18.6044 12.9994C20.1837 11.4438 21.365 9.54396 22.0806 7.46571C22.4448 6.40792 22.6734 5.30865 22.792 4.19693C22.8216 3.9273 22.8385 3.65352 22.8555 3.38388C22.8724 3.09766 22.9105 2.78654 22.7835 2.51691C22.504 1.92786 21.8689 1.98594 21.3142 2.01912C19.0489 2.14357 16.8218 2.75336 14.8317 3.82359C12.7612 4.93531 11.0125 6.58215 9.64905 8.46128C8.99275 9.36559 8.46771 10.357 8.09933 11.4065C7.72672 12.4643 7.54042 13.5802 7.44727 14.6919C7.42186 14.9781 7.40916 15.2685 7.39646 15.5547C7.38375 15.87 7.33718 16.2143 7.40916 16.5212C7.46844 16.7701 7.67591 16.9817 7.90879 17.0895C8.19672 17.2181 8.53122 17.1725 8.84032 17.1601C10.1233 17.1227 11.402 16.9858 12.6426 16.654C14.963 16.0317 16.9234 14.638 18.6086 12.9953C18.8965 12.7173 18.4477 12.2776 18.1555 12.5597Z" fill="#2B2826"/>
<path d="M18.38 13.0907C18.7907 13.0907 18.7907 12.4684 18.38 12.4684C17.9693 12.4684 17.9693 13.0907 18.38 13.0907Z" fill="#2B2826"/>
<path d="M18.109 8.75164C18.2826 7.80999 17.7787 6.88494 16.7921 6.65679C16.5677 6.60287 16.3306 6.60287 16.1062 6.63605C15.9241 6.66094 15.7844 6.67339 15.6785 6.49501C15.5939 6.35397 15.6955 6.19634 15.8183 6.12582C15.9919 6.02627 16.3052 6.0553 16.4957 6.05945C17.4061 6.08434 18.236 6.66924 18.562 7.49473C18.7272 7.9137 18.761 8.37415 18.6763 8.81386C18.6086 9.17475 18.0539 9.10838 18.109 8.75164C18.1344 8.58571 18.0666 8.41978 17.8888 8.37C17.7364 8.32852 17.5247 8.41978 17.4992 8.58571C17.4146 9.11668 17.7491 9.64765 18.3334 9.68083C18.5959 9.69328 18.8161 9.60202 19.0151 9.44439C19.2437 9.26601 19.303 8.96734 19.3326 8.69771C19.4639 7.57355 18.9389 6.47842 17.965 5.86864C17.4908 5.57411 16.9192 5.43722 16.3602 5.43307C15.8013 5.42893 15.2424 5.56582 15.0519 6.13827C14.8783 6.66509 15.3017 7.20021 15.831 7.26658C16.0766 7.29976 16.3137 7.20436 16.5635 7.24169C16.8302 7.27902 17.0547 7.40762 17.241 7.59429C17.495 7.85148 17.5628 8.24141 17.4992 8.58156C17.4273 8.97979 18.037 9.14572 18.109 8.75164Z" fill="#2B2826"/>
<path d="M13.536 12.2859C13.9467 12.2859 13.9467 11.6637 13.536 11.6637C13.1253 11.6637 13.1253 12.2859 13.536 12.2859Z" fill="#2B2826"/>
<path d="M8.77256 17.0813C10.263 15.6211 11.7534 14.1609 13.2396 12.7049C13.4132 12.5348 13.5868 12.3647 13.7604 12.1947C14.1923 11.7716 14.0611 11.1286 13.5995 10.7967C13.2566 10.5478 12.7358 10.6474 12.4521 10.9295C11.8169 11.5558 11.1776 12.1864 10.5424 12.8128C9.51777 13.8249 8.4931 14.8329 7.47266 15.8451C7.18473 16.1313 7.63356 16.571 7.92148 16.2848C9.40768 14.8205 10.8897 13.352 12.3759 11.8877C12.5537 11.7135 12.7315 11.5351 12.9094 11.3609C13.1719 11.1037 13.5699 11.5019 13.3074 11.7591C13.2481 11.8172 13.1846 11.8794 13.1253 11.9375C12.3166 12.7298 11.5078 13.5221 10.6991 14.3144C9.90732 15.0901 9.11553 15.8658 8.32373 16.6415C8.03581 16.9236 8.48463 17.3633 8.77256 17.0813Z" fill="#2B2826"/>
</svg>
