<svg width="34" height="34" viewBox="0 0 34 34" fill="none" xmlns="http://www.w3.org/2000/svg">
<path d="M31.9317 9.09499C31.7634 8.42265 31.4206 7.80663 30.9381 7.30915C30.4555 6.81166 29.8502 6.45033 29.1833 6.26166C26.7467 5.66666 17 5.66666 17 5.66666C17 5.66666 7.25333 5.66666 4.81666 6.31832C4.14976 6.507 3.54446 6.86833 3.0619 7.36582C2.57934 7.8633 2.23661 8.47932 2.06833 9.15166C1.62238 11.6245 1.40425 14.1331 1.41666 16.6458C1.40077 19.1775 1.61892 21.7052 2.06833 24.1967C2.25385 24.8481 2.60426 25.4407 3.0857 25.9172C3.56713 26.3936 4.16332 26.7379 4.81666 26.9167C7.25333 27.5683 17 27.5683 17 27.5683C17 27.5683 26.7467 27.5683 29.1833 26.9167C29.8502 26.728 30.4555 26.3666 30.9381 25.8692C31.4206 25.3717 31.7634 24.7557 31.9317 24.0833C32.3742 21.6291 32.5923 19.1396 32.5833 16.6458C32.5992 14.1142 32.3811 11.5865 31.9317 9.09499V9.09499Z" stroke="#3E3E3E" stroke-width="2" stroke-linecap="round" stroke-linejoin="round"/>
<path d="M13.8125 21.2783L21.9583 16.6458L13.8125 12.0133V21.2783Z" stroke="#3E3E3E" stroke-width="2" stroke-linecap="round" stroke-linejoin="round"/>
</svg>
